  0
SECTION
  2
BLOCKS
  0
TEXT
  8
1
 10
0.0000000000000000
 20
-5.000000000000000
 40
5.000000000000000
 50
0.0000000000000000
 51
0.0000000000000000
 71
0
  1
Units: METRIC
  0
TEXT
  8
1
 10
0.0000000000000000
 20
-10.00000000000000
 40
5.000000000000000
 50
0.0000000000000000
 51
0.0000000000000000
 71
0
  1
Creation Date: 15-10-2021
  0
TEXT
  8
1
 10
0.0000000000000000
 20
-15.00000000000000
 40
5.000000000000000
 50
0.0000000000000000
 51
0.0000000000000000
 71
0
  1
Creation Time: 11:00
  0
TEXT
  8
1
 10
0.0000000000000000
 20
-20.00000000000000
 40
5.000000000000000
 50
0.0000000000000000
 51
0.0000000000000000
 71
0
  1
Author: Optitex
  0
BLOCK
  8
1
  2
1
 70
64
 10
0.0
 20
0.0
  0
TEXT
  8
1
 10
819.4864653426332
 20
429.4318114622459
 40
8.000000119209290
 50
224.9997674319456
 51
0.0000000000000000
 71
0
  1
Piece Name: A - VC - Vien Nach x 1
  0
TEXT
  8
1
 10
813.2639508332959
 20
435.6543764871353
 40
8.000000119209290
 50
224.9997674319456
 51
0.0000000000000000
 71
0
  1
Size: Base
  0
TEXT
  8
1
 10
807.0414363239584
 20
441.8769415120249
 40
8.000000119209290
 50
224.9997674319456
 51
0.0000000000000000
 71
0
  1
Rotation: 90
  0
TEXT
  8
1
 10
800.8189218146210
 20
448.0995065369143
 40
8.000000119209290
 50
224.9997674319456
 51
0.0000000000000000
 71
0
  1
Flip: NO
  0
LINE
  8
7
 10
739.1729736328125
 20
381.0220336914063
 11
766.3259887695313
 21
381.0221862792969
  0
POLYLINE
  8
1
 66
1
 70
1
  0
VERTEX
  8
1
 10
1094.990692138672
 20
745.8879089355469
  0
VERTEX
  8
1
 10
1117.617950439453
 20
723.2603454589844
  0
VERTEX
  8
1
 10
410.5083465576172
 20
16.15631103515625
  0
VERTEX
  8
1
 10
387.8810119628906
 20
38.78387451171875
  0
SEQEND
  0
POINT
  8
2
 10
1094.990692138672
 20
745.8879089355469
  0
POINT
  8
2
 10
1117.617950439453
 20
723.2603454589844
  0
POINT
  8
2
 10
410.5083465576172
 20
16.15631103515625
  0
POINT
  8
2
 10
387.8810119628906
 20
38.78387451171875
  0
ENDBLK
  0
BLOCK
  8
1
  2
2
 70
64
 10
0.0
 20
0.0
  0
TEXT
  8
1
 10
614.9679172202161
 20
1488.925139701081
 40
8.000000119209290
 50
315.0001114458822
 51
0.0000000000000000
 71
0
  1
Piece Name: A - VC - Vien Co x 1
  0
TEXT
  8
1
 10
608.7453895565103
 20
1482.702587830481
 40
8.000000119209290
 50
315.0001114458822
 51
0.0000000000000000
 71
0
  1
Size: Base
  0
TEXT
  8
1
 10
602.5228618928044
 20
1476.480035959881
 40
8.000000119209290
 50
315.0001114458822
 51
0.0000000000000000
 71
0
  1
Rotation: 90
  0
TEXT
  8
1
 10
596.3003342290986
 20
1470.257484089281
 40
8.000000119209290
 50
315.0001114458822
 51
0.0000000000000000
 71
0
  1
Flip: NO
  0
LINE
  8
7
 10
659.9398803710938
 20
1411.709184646606
 11
659.9398803710938
 21
1438.861970901489
  0
POLYLINE
  8
1
 66
1
 70
1
  0
VERTEX
  8
1
 10
436.4938354492188
 20
1626.103487014771
  0
VERTEX
  8
1
 10
459.1210937500000
 20
1648.730897903442
  0
VERTEX
  8
1
 10
883.3860778808594
 20
1224.467668533325
  0
VERTEX
  8
1
 10
860.7588195800781
 20
1201.840181350708
  0
SEQEND
  0
POINT
  8
2
 10
436.4938354492188
 20
1626.103487014771
  0
POINT
  8
2
 10
459.1210937500000
 20
1648.730897903442
  0
POINT
  8
2
 10
883.3860778808594
 20
1224.467668533325
  0
POINT
  8
2
 10
860.7588195800781
 20
1201.840181350708
  0
ENDBLK
  0
BLOCK
  8
1
  2
3
 70
64
 10
0.0
 20
0.0
  0
TEXT
  8
1
 10
899.3166405851400
 20
1430.075113027550
 40
8.899999856948853
 50
89.99983174974892
 51
0.0000000000000000
 71
0
  1
Piece Name: V - 4VC + 2Keo - Lung TS
  0
TEXT
  8
1
 10
909.1066404277416
 20
1430.075084279011
 40
8.899999856948853
 50
89.99983174974892
 51
0.0000000000000000
 71
0
  1
Size: Base
  0
TEXT
  8
1
 10
918.8966402703431
 20
1430.075055530473
 40
8.899999856948853
 50
89.99983174974892
 51
0.0000000000000000
 71
0
  1
Rotation: 90
  0
TEXT
  8
1
 10
928.6866401129446
 20
1430.075026781934
 40
8.899999856948853
 50
89.99983174974892
 51
0.0000000000000000
 71
0
  1
Flip: NO
  0
TEXT
  8
8
 10
923.2307735283906
 20
1621.003112792923
 40
10.00000000000000
 50
179.9998274240379
 51
0.0000000000000000
 71
0
  1
Day keo
  0
LINE
  8
8
 10
1004.899749755859
 20
1626.099548339844
 11
930.6166076660156
 21
1616.195373535156
  0
POINT
  8
2
 10
1004.899749755859
 20
1626.099548339844
  0
POINT
  8
2
 10
930.6166076660156
 20
1616.195373535156
  0
LINE
  8
8
 10
1004.899749755859
 20
1626.099548339844
 11
995.5775451660156
 21
1628.016052246094
  0
POINT
  8
2
 10
1004.899749755859
 20
1626.099548339844
  0
POINT
  8
2
 10
995.5775451660156
 20
1628.016052246094
  0
LINE
  8
7
 10
862.3866271972656
 20
1526.237182617188
 11
965.4991149902344
 21
1526.237182617188
  0
POLYLINE
  8
1
 66
1
 70
1
  0
VERTEX
  8
1
 10
986.6432189941406
 20
1404.873352050781
  0
VERTEX
  8
1
 10
893.9723205566406
 20
1428.215942382813
  0
VERTEX
  8
1
 10
802.1377563476563
 20
1451.875610351563
  0
VERTEX
  8
1
 10
813.6824035644531
 20
1503.960876464844
  0
VERTEX
  8
1
 10
816.5361022949219
 20
1520.780944824219
  0
VERTEX
  8
1
 10
819.9903869628906
 20
1550.235290527344
  0
VERTEX
  8
1
 10
822.1923828125000
 20
1582.111816406250
  0
VERTEX
  8
1
 10
823.8169860839844
 20
1616.853942871094
  0
VERTEX
  8
1
 10
822.4626159667969
 20
1628.811950683594
  0
VERTEX
  8
1
 10
878.4854125976563
 20
1630.337219238281
  0
VERTEX
  8
1
 10
893.4947204589844
 20
1631.440124511719
  0
VERTEX
  8
1
 10
934.1371154785156
 20
1636.523742675781
  0
VERTEX
  8
1
 10
938.3039855957031
 20
1637.167358398438
  0
VERTEX
  8
1
 10
990.7736206054688
 20
1645.437622070313
  0
VERTEX
  8
1
 10
1017.258911132813
 20
1648.809509277344
  0
VERTEX
  8
1
 10
1015.420227050781
 20
1599.561157226563
  0
VERTEX
  8
1
 10
1013.769531250000
 20
1568.892517089844
  0
VERTEX
  8
1
 10
1012.210845947266
 20
1547.911987304688
  0
VERTEX
  8
1
 10
1010.574188232422
 20
1531.456298828125
  0
VERTEX
  8
1
 10
1009.534454345703
 20
1522.939758300781
  0
VERTEX
  8
1
 10
1006.675720214844
 20
1503.842163085938
  0
VERTEX
  8
1
 10
1002.117614746094
 20
1478.933715820313
  0
VERTEX
  8
1
 10
999.5831298828125
 20
1466.268310546875
  0
SEQEND
  0
POINT
  8
2
 10
986.6432189941406
 20
1404.873352050781
  0
POINT
  8
3
 10
893.9723205566406
 20
1428.215942382813
  0
POINT
  8
2
 10
802.1377563476563
 20
1451.875610351563
  0
POINT
  8
3
 10
813.6824035644531
 20
1503.960876464844
  0
POINT
  8
3
 10
816.5361022949219
 20
1520.780944824219
  0
POINT
  8
3
 10
819.9903869628906
 20
1550.235290527344
  0
POINT
  8
3
 10
822.1923828125000
 20
1582.111816406250
  0
POINT
  8
2
 10
823.8169860839844
 20
1616.853942871094
  0
POINT
  8
2
 10
822.4626159667969
 20
1628.811950683594
  0
POINT
  8
3
 10
878.4854125976563
 20
1630.337219238281
  0
POINT
  8
3
 10
893.4947204589844
 20
1631.440124511719
  0
POINT
  8
3
 10
934.1371154785156
 20
1636.523742675781
  0
POINT
  8
3
 10
938.3039855957031
 20
1637.167358398438
  0
POINT
  8
3
 10
990.7736206054688
 20
1645.437622070313
  0
POINT
  8
2
 10
1017.258911132813
 20
1648.809509277344
  0
POINT
  8
3
 10
1015.420227050781
 20
1599.561157226563
  0
POINT
  8
3
 10
1013.769531250000
 20
1568.892517089844
  0
POINT
  8
3
 10
1012.210845947266
 20
1547.911987304688
  0
POINT
  8
3
 10
1010.574188232422
 20
1531.456298828125
  0
POINT
  8
3
 10
1009.534454345703
 20
1522.939758300781
  0
POINT
  8
3
 10
1006.675720214844
 20
1503.842163085938
  0
POINT
  8
3
 10
1002.117614746094
 20
1478.933715820313
  0
POINT
  8
3
 10
999.5831298828125
 20
1466.268310546875
  0
ENDBLK
  0
BLOCK
  8
1
  2
4
 70
64
 10
0.0
 20
0.0
  0
TEXT
  8
1
 10
390.6056014421803
 20
613.8008401214428
 40
30.00000000000000
 50
90.00000250447816
 51
0.0000000000000000
 71
0
  1
Piece Name: V - VC - TT x 1
  0
TEXT
  8
1
 10
423.6056014421803
 20
613.8008415639187
 40
30.00000000000000
 50
90.00000250447816
 51
0.0000000000000000
 71
0
  1
Size: Base
  0
TEXT
  8
1
 10
456.6056014421803
 20
613.8008430063945
 40
30.00000000000000
 50
90.00000250447816
 51
0.0000000000000000
 71
0
  1
Rotation: 90
  0
TEXT
  8
1
 10
489.6056014421802
 20
613.8008444488704
 40
30.00000000000000
 50
90.00000250447816
 51
0.0000000000000000
 71
0
  1
Flip: NO
  0
POINT
  8
4
 10
226.5051269531250
 20
856.8183898925781
 30
7.000122070312500
 50
0.0000000000000000
 230
5.000000000000000
  0
TEXT
  8
8
 10
647.8543090820313
 20
721.1259491047191
 40
69.99999999999999
 50
90.00000250447816
 51
0.0000000000000000
 71
0
  1
Dap ly
  0
LINE
  8
7
 10
440.1058959960938
 20
444.4725036621094
 11
440.1055908203125
 21
1269.129180908203
  0
POLYLINE
  8
1
 66
1
 70
1
  0
VERTEX
  8
1
 10
1.427001953125000
 20
64.83673095703125
  0
VERTEX
  8
1
 10
1.210021972656250
 20
79.83558654785156
  0
VERTEX
  8
1
 10
1.210021972656250
 20
715.1077270507813
  0
VERTEX
  8
1
 10
52.59735107421875
 20
718.1231689453125
  0
VERTEX
  8
1
 10
77.98034667968750
 20
720.8940124511719
  0
VERTEX
  8
1
 10
95.22949218750000
 20
723.6524963378906
  0
VERTEX
  8
1
 10
108.9880371093750
 20
726.5795898437500
  0
VERTEX
  8
1
 10
116.5939331054688
 20
728.5455322265625
  0
VERTEX
  8
1
 10
129.7918701171875
 20
732.6551818847656
  0
VERTEX
  8
1
 10
134.1256713867188
 20
734.2234802246094
  0
VERTEX
  8
1
 10
139.1342163085938
 20
736.1874389648438
  0
VERTEX
  8
1
 10
150.2453613281250
 20
741.1776733398438
  0
VERTEX
  8
1
 10
155.2926635742188
 20
743.7510681152344
  0
VERTEX
  8
1
 10
164.8049926757813
 20
749.1659545898438
  0
VERTEX
  8
1
 10
168.3111572265625
 20
751.3627624511719
  0
VERTEX
  8
1
 10
177.2744750976563
 20
757.5268554687500
  0
VERTEX
  8
1
 10
181.6085815429688
 20
760.8193969726563
  0
VERTEX
  8
1
 10
187.6171875000000
 20
765.7806396484375
  0
VERTEX
  8
1
 10
193.3688354492188
 20
771.0415649414063
  0
VERTEX
  8
1
 10
196.8234252929688
 20
774.4894409179688
  0
VERTEX
  8
1
 10
201.1444091796875
 20
779.1702270507813
  0
VERTEX
  8
1
 10
205.5361938476563
 20
784.4500732421875
  0
VERTEX
  8
1
 10
207.6150512695313
 20
787.1804809570313
  0
VERTEX
  8
1
 10
211.5176391601563
 20
792.8280639648438
  0
VERTEX
  8
1
 10
212.4749755859375
 20
794.3417358398438
  0
VERTEX
  8
1
 10
216.1599731445313
 20
800.8168029785156
  0
VERTEX
  8
1
 10
217.4514770507813
 20
803.4118652343750
  0
VERTEX
  8
1
 10
218.0484008789063
 20
804.6888732910156
  0
VERTEX
  8
1
 10
220.7037353515625
 20
811.2007141113281
  0
VERTEX
  8
1
 10
221.5942382812500
 20
813.8208007812500
  0
VERTEX
  8
1
 10
222.1737670898438
 20
815.7084655761719
  0
VERTEX
  8
1
 10
223.1930541992188
 20
819.5228576660156
  0
VERTEX
  8
1
 10
223.8812255859375
 20
822.6002502441406
  0
VERTEX
  8
1
 10
225.0000000000000
 20
829.1081237792969
  0
VERTEX
  8
1
 10
225.3634643554688
 20
831.9343566894531
  0
VERTEX
  8
1
 10
226.2347412109375
 20
843.2359313964844
  0
VERTEX
  8
1
 10
226.4541625976563
 20
851.7214965820313
  0
VERTEX
  8
1
 10
226.5051269531250
 20
856.8183898925781
  0
VERTEX
  8
1
 10
226.2347412109375
 20
870.4008483886719
  0
VERTEX
  8
1
 10
225.6378173828125
 20
879.1337585449219
  0
VERTEX
  8
1
 10
225.0000000000000
 20
884.5286560058594
  0
VERTEX
  8
1
 10
224.2669677734375
 20
889.0567016601563
  0
VERTEX
  8
1
 10
223.0514526367188
 20
894.6896362304688
  0
VERTEX
  8
1
 10
222.1737670898438
 20
897.9283142089844
  0
VERTEX
  8
1
 10
221.4620971679688
 20
900.2235412597656
  0
VERTEX
  8
1
 10
219.5025634765625
 20
905.5773925781250
  0
VERTEX
  8
1
 10
218.3877563476563
 20
908.1967163085938
  0
VERTEX
  8
1
 10
218.0484008789063
 20
908.9479064941406
  0
VERTEX
  8
1
 10
214.2944335937500
 20
916.2432861328125
  0
VERTEX
  8
1
 10
212.7182006835938
 20
918.9010620117188
  0
VERTEX
  8
1
 10
212.4749755859375
 20
919.2948913574219
  0
VERTEX
  8
1
 10
207.2467041015625
 20
926.9520568847656
  0
VERTEX
  8
1
 10
205.2200317382813
 20
929.5870971679688
  0
VERTEX
  8
1
 10
200.9472656250000
 20
934.6902465820313
  0
VERTEX
  8
1
 10
196.8234252929688
 20
939.1471862792969
  0
VERTEX
  8
1
 10
190.9487915039063
 20
944.8767089843750
  0
VERTEX
  8
1
 10
188.1216430664063
 20
947.4162292480469
  0
VERTEX
  8
1
 10
179.2791748046875
 20
954.6141052246094
  0
VERTEX
  8
1
 10
177.2744750976563
 20
956.1097717285156
  0
VERTEX
  8
1
 10
165.9680175781250
 20
963.7547302246094
  0
VERTEX
  8
1
 10
162.4478149414063
 20
965.8848571777344
  0
VERTEX
  8
1
 10
155.2926635742188
 20
969.8857116699219
  0
VERTEX
  8
1
 10
147.8009033203125
 20
973.6343383789063
  0
VERTEX
  8
1
 10
139.1342163085938
 20
977.4491882324219
  0
VERTEX
  8
1
 10
132.2412109375000
 20
980.1107788085938
  0
VERTEX
  8
1
 10
119.8315429687500
 20
984.1722106933594
  0
VERTEX
  8
1
 10
111.4193725585938
 20
986.4590454101563
  0
VERTEX
  8
1
 10
108.9880371093750
 20
987.0570373535156
  0
VERTEX
  8
1
 10
86.76788330078125
 20
991.4247131347656
  0
VERTEX
  8
1
 10
77.45941162109375
 20
992.7819824218750
  0
VERTEX
  8
1
 10
41.82617187500000
 20
996.3154602050781
  0
VERTEX
  8
1
 10
1.210021972656250
 20
998.5289001464844
  0
VERTEX
  8
1
 10
1.210021972656250
 20
1633.801116943359
  0
VERTEX
  8
1
 10
1.427001953125000
 20
1648.800048828125
  0
VERTEX
  8
1
 10
63.23303222656250
 20
1648.349914550781
  0
VERTEX
  8
1
 10
93.55072021484375
 20
1647.835388183594
  0
VERTEX
  8
1
 10
121.4602661132813
 20
1646.787719726563
  0
VERTEX
  8
1
 10
139.1757202148438
 20
1645.658721923828
  0
VERTEX
  8
1
 10
158.7152099609375
 20
1643.883514404297
  0
VERTEX
  8
1
 10
177.4969482421875
 20
1641.661834716797
  0
VERTEX
  8
1
 10
201.8417358398438
 20
1638.078002929688
  0
VERTEX
  8
1
 10
215.4147338867188
 20
1635.752868652344
  0
VERTEX
  8
1
 10
237.2680664062500
 20
1631.535034179688
  0
VERTEX
  8
1
 10
252.9821777343750
 20
1628.132934570313
  0
VERTEX
  8
1
 10
277.7359008789063
 20
1622.123718261719
  0
VERTEX
  8
1
 10
290.1647949218750
 20
1618.796234130859
  0
VERTEX
  8
1
 10
312.1478271484375
 20
1612.385711669922
  0
VERTEX
  8
1
 10
326.8768310546875
 20
1607.709197998047
  0
VERTEX
  8
1
 10
350.8026123046875
 20
1599.448089599609
  0
VERTEX
  8
1
 10
363.0255126953125
 20
1594.904174804688
  0
VERTEX
  8
1
 10
384.1998291015625
 20
1586.501770019531
  0
VERTEX
  8
1
 10
398.5314941406250
 20
1580.422973632813
  0
VERTEX
  8
1
 10
421.6589355468750
 20
1569.923400878906
  0
VERTEX
  8
1
 10
433.3209228515625
 20
1564.295654296875
  0
VERTEX
  8
1
 10
453.6828613281250
 20
1553.912963867188
  0
VERTEX
  8
1
 10
467.3159790039063
 20
1546.553497314453
  0
VERTEX
  8
1
 10
489.3777465820313
 20
1533.921356201172
  0
VERTEX
  8
1
 10
500.4421997070313
 20
1527.236633300781
  0
VERTEX
  8
1
 10
519.7628784179688
 20
1514.978332519531
  0
VERTEX
  8
1
 10
532.6257324218750
 20
1506.387939453125
  0
VERTEX
  8
1
 10
553.4387207031250
 20
1491.722412109375
  0
VERTEX
  8
1
 10
563.7969970703125
 20
1484.053802490234
  0
VERTEX
  8
1
 10
581.9149780273438
 20
1470.015869140625
  0
VERTEX
  8
1
 10
597.7496337890625
 20
1457.060394287109
  0
VERTEX
  8
1
 10
617.0834350585938
 20
1440.312042236328
  0
VERTEX
  8
1
 10
622.8283691406250
 20
1435.126647949219
  0
VERTEX
  8
1
 10
639.5767211914063
 20
1419.429321289063
  0
VERTEX
  8
1
 10
657.7124023437500
 20
1401.391601562500
  0
VERTEX
  8
1
 10
675.2755737304688
 20
1382.795257568359
  0
VERTEX
  8
1
 10
677.0178222656250
 20
1380.885467529297
  0
VERTEX
  8
1
 10
692.2439575195313
 20
1363.662719726563
  0
VERTEX
  8
1
 10
708.6087036132813
 20
1344.006042480469
  0
VERTEX
  8
1
 10
711.8084716796875
 20
1340.012512207031
  0
VERTEX
  8
1
 10
725.8880615234375
 20
1321.807708740234
  0
VERTEX
  8
1
 10
739.4644165039063
 20
1303.193969726563
  0
VERTEX
  8
1
 10
748.1945800781250
 20
1290.615081787109
  0
VERTEX
  8
1
 10
762.2518920898438
 20
1269.236297607422
  0
VERTEX
  8
1
 10
769.0112304687500
 20
1258.410339355469
  0
VERTEX
  8
1
 10
780.7666015625000
 20
1238.628997802734
  0
VERTEX
  8
1
 10
788.2894897460938
 20
1225.266571044922
  0
VERTEX
  8
1
 10
800.3195190429688
 20
1202.596893310547
  0
VERTEX
  8
1
 10
806.0031127929688
 20
1191.259613037109
  0
VERTEX
  8
1
 10
815.9747314453125
 20
1170.240936279297
  0
VERTEX
  8
1
 10
822.1231079101563
 20
1156.451721191406
  0
VERTEX
  8
1
 10
831.8951416015625
 20
1132.944793701172
  0
VERTEX
  8
1
 10
836.5545654296875
 20
1120.910339355469
  0
VERTEX
  8
1
 10
844.1647338867188
 20
1099.855499267578
  0
VERTEX
  8
1
 10
849.2294311523438
 20
1084.763488769531
  0
VERTEX
  8
1
 10
856.9946289062500
 20
1059.718933105469
  0
VERTEX
  8
1
 10
860.3466796875000
 20
1048.124389648438
  0
VERTEX
  8
1
 10
867.0626831054688
 20
1023.058929443359
  0
VERTEX
  8
1
 10
869.9993896484375
 20
1010.877227783203
  0
VERTEX
  8
1
 10
874.2413330078125
 20
990.8741760253906
  0
VERTEX
  8
1
 10
877.3522949218750
 20
972.7606201171875
  0
VERTEX
  8
1
 10
879.6673583984375
 20
954.9253845214844
  0
VERTEX
  8
1
 10
881.4306640625000
 20
935.7962036132813
  0
VERTEX
  8
1
 10
882.6840209960938
 20
914.8374938964844
  0
VERTEX
  8
1
 10
883.5076904296875
 20
889.9633789062500
  0
VERTEX
  8
1
 10
884.0054321289063
 20
856.8183898925781
  0
VERTEX
  8
1
 10
883.4310913085938
 20
820.4409790039063
  0
VERTEX
  8
1
 10
882.6840209960938
 20
798.7992858886719
  0
VERTEX
  8
1
 10
881.3131713867188
 20
776.3085937500000
  0
VERTEX
  8
1
 10
879.4979858398438
 20
757.1974182128906
  0
VERTEX
  8
1
 10
877.3522949218750
 20
740.8761596679688
  0
VERTEX
  8
1
 10
874.2990112304688
 20
723.0633544921875
  0
VERTEX
  8
1
 10
869.9993896484375
 20
702.7595520019531
  0
VERTEX
  8
1
 10
864.9273681640625
 20
682.2682189941406
  0
VERTEX
  8
1
 10
860.3466796875000
 20
665.5123901367188
  0
VERTEX
  8
1
 10
853.4075927734375
 20
642.0458984375000
  0
VERTEX
  8
1
 10
849.2294311523438
 20
628.8731384277344
  0
VERTEX
  8
1
 10
841.3562011718750
 20
605.7951354980469
  0
VERTEX
  8
1
 10
836.5545654296875
 20
592.7262878417969
  0
VERTEX
  8
1
 10
828.5952758789063
 20
572.5112915039063
  0
VERTEX
  8
1
 10
822.1231079101563
 20
557.1850585937500
  0
VERTEX
  8
1
 10
812.3886108398438
 20
535.6580352783203
  0
VERTEX
  8
1
 10
806.0031127929688
 20
522.3770904541016
  0
VERTEX
  8
1
 10
796.4389038085938
 20
503.5396575927734
  0
VERTEX
  8
1
 10
788.2894897460938
 20
488.3701324462891
  0
VERTEX
  8
1
 10
776.4642333984375
 20
467.6199340820313
  0
VERTEX
  8
1
 10
769.0112304687500
 20
455.2264404296875
  0
VERTEX
  8
1
 10
757.6174926757813
 20
437.1892547607422
  0
VERTEX
  8
1
 10
748.1945800781250
 20
423.0216217041016
  0
VERTEX
  8
1
 10
734.4863891601563
 20
403.4890747070313
  0
VERTEX
  8
1
 10
725.8880615234375
 20
391.8290710449219
  0
VERTEX
  8
1
 10
712.8594970703125
 20
374.9472045898438
  0
VERTEX
  8
1
 10
702.1453857421875
 20
361.7173004150391
  0
VERTEX
  8
1
 10
686.6354370117188
 20
343.5159301757813
  0
VERTEX
  8
1
 10
677.0178222656250
 20
332.7512359619141
  0
VERTEX
  8
1
 10
662.4334716796875
 20
317.1304321289063
  0
VERTEX
  8
1
 10
650.5590820312500
 20
304.9952697753906
  0
VERTEX
  8
1
 10
633.3895874023438
 20
288.3052825927734
  0
VERTEX
  8
1
 10
622.8283691406250
 20
278.5100555419922
  0
VERTEX
  8
1
 10
606.8191528320313
 20
264.3013763427734
  0
VERTEX
  8
1
 10
593.8864135742188
 20
253.3543395996094
  0
VERTEX
  8
1
 10
575.2005004882813
 20
238.3234405517578
  0
VERTEX
  8
1
 10
563.7969970703125
 20
229.5829010009766
  0
VERTEX
  8
1
 10
546.5002441406250
 20
216.9171905517578
  0
VERTEX
  8
1
 10
532.6257324218750
 20
207.2487640380859
  0
VERTEX
  8
1
 10
512.5854492187500
 20
194.0158081054688
  0
VERTEX
  8
1
 10
500.4421997070313
 20
186.4001464843750
  0
VERTEX
  8
1
 10
482.0022583007813
 20
175.3907775878906
  0
VERTEX
  8
1
 10
467.3159790039063
 20
167.0832824707031
  0
VERTEX
  8
1
 10
446.0952758789063
 20
155.7706451416016
  0
VERTEX
  8
1
 10
433.3209228515625
 20
149.3410491943359
  0
VERTEX
  8
1
 10
413.9108276367188
 20
140.0990295410156
  0
VERTEX
  8
1
 10
398.5314941406250
 20
133.2138061523438
  0
VERTEX
  8
1
 10
376.3043212890625
 20
123.9222717285156
  0
VERTEX
  8
1
 10
363.0255126953125
 20
118.7326049804688
  0
VERTEX
  8
1
 10
342.7554321289063
 20
111.3173675537109
  0
VERTEX
  8
1
 10
326.8768310546875
 20
105.9275817871094
  0
VERTEX
  8
1
 10
303.8760375976563
 20
98.75953674316406
  0
VERTEX
  8
1
 10
290.1647949218750
 20
94.84054565429688
  0
VERTEX
  8
1
 10
269.4393920898438
 20
89.40856933593750
  0
VERTEX
  8
1
 10
252.9821777343750
 20
85.50376892089844
  0
VERTEX
  8
1
 10
229.2407226562500
 20
80.48393249511719
  0
VERTEX
  8
1
 10
215.4147338867188
 20
77.88383483886719
  0
VERTEX
  8
1
 10
193.4921264648438
 20
74.24293518066406
  0
VERTEX
  8
1
 10
177.4969482421875
 20
71.97494506835938
  0
VERTEX
  8
1
 10
153.7094116210938
 20
69.24499511718750
  0
VERTEX
  8
1
 10
134.3844604492188
 20
67.62962341308594
  0
VERTEX
  8
1
 10
109.9536132812500
 20
66.32476806640625
  0
VERTEX
  8
1
 10
80.58624267578125
 20
65.52825927734375
  0
VERTEX
  8
1
 10
63.23303222656250
 20
65.28678894042969
  0
SEQEND
  0
POINT
  8
2
 10
1.427001953125000
 20
64.83673095703125
  0
POINT
  8
2
 10
1.210021972656250
 20
79.83558654785156
  0
POINT
  8
2
 10
1.210021972656250
 20
715.1077270507813
  0
POINT
  8
3
 10
52.59735107421875
 20
718.1231689453125
  0
POINT
  8
3
 10
77.98034667968750
 20
720.8940124511719
  0
POINT
  8
3
 10
95.22949218750000
 20
723.6524963378906
  0
POINT
  8
3
 10
108.9880371093750
 20
726.5795898437500
  0
POINT
  8
3
 10
116.5939331054688
 20
728.5455322265625
  0
POINT
  8
3
 10
129.7918701171875
 20
732.6551818847656
  0
POINT
  8
3
 10
134.1256713867188
 20
734.2234802246094
  0
POINT
  8
3
 10
139.1342163085938
 20
736.1874389648438
  0
POINT
  8
3
 10
150.2453613281250
 20
741.1776733398438
  0
POINT
  8
3
 10
155.2926635742188
 20
743.7510681152344
  0
POINT
  8
3
 10
164.8049926757813
 20
749.1659545898438
  0
POINT
  8
3
 10
168.3111572265625
 20
751.3627624511719
  0
POINT
  8
3
 10
177.2744750976563
 20
757.5268554687500
  0
POINT
  8
3
 10
181.6085815429688
 20
760.8193969726563
  0
POINT
  8
3
 10
187.6171875000000
 20
765.7806396484375
  0
POINT
  8
3
 10
193.3688354492188
 20
771.0415649414063
  0
POINT
  8
3
 10
196.8234252929688
 20
774.4894409179688
  0
POINT
  8
3
 10
201.1444091796875
 20
779.1702270507813
  0
POINT
  8
3
 10
205.5361938476563
 20
784.4500732421875
  0
POINT
  8
3
 10
207.6150512695313
 20
787.1804809570313
  0
POINT
  8
3
 10
211.5176391601563
 20
792.8280639648438
  0
POINT
  8
3
 10
212.4749755859375
 20
794.3417358398438
  0
POINT
  8
3
 10
216.1599731445313
 20
800.8168029785156
  0
POINT
  8
3
 10
217.4514770507813
 20
803.4118652343750
  0
POINT
  8
3
 10
218.0484008789063
 20
804.6888732910156
  0
POINT
  8
3
 10
220.7037353515625
 20
811.2007141113281
  0
POINT
  8
3
 10
221.5942382812500
 20
813.8208007812500
  0
POINT
  8
3
 10
222.1737670898438
 20
815.7084655761719
  0
POINT
  8
3
 10
223.1930541992188
 20
819.5228576660156
  0
POINT
  8
3
 10
223.8812255859375
 20
822.6002502441406
  0
POINT
  8
3
 10
225.0000000000000
 20
829.1081237792969
  0
POINT
  8
3
 10
225.3634643554688
 20
831.9343566894531
  0
POINT
  8
3
 10
226.2347412109375
 20
843.2359313964844
  0
POINT
  8
3
 10
226.4541625976563
 20
851.7214965820313
  0
POINT
  8
2
 10
226.5051269531250
 20
856.8183898925781
  0
POINT
  8
3
 10
226.2347412109375
 20
870.4008483886719
  0
POINT
  8
3
 10
225.6378173828125
 20
879.1337585449219
  0
POINT
  8
3
 10
225.0000000000000
 20
884.5286560058594
  0
POINT
  8
3
 10
224.2669677734375
 20
889.0567016601563
  0
POINT
  8
3
 10
223.0514526367188
 20
894.6896362304688
  0
POINT
  8
3
 10
222.1737670898438
 20
897.9283142089844
  0
POINT
  8
3
 10
221.4620971679688
 20
900.2235412597656
  0
POINT
  8
3
 10
219.5025634765625
 20
905.5773925781250
  0
POINT
  8
3
 10
218.3877563476563
 20
908.1967163085938
  0
POINT
  8
3
 10
218.0484008789063
 20
908.9479064941406
  0
POINT
  8
3
 10
214.2944335937500
 20
916.2432861328125
  0
POINT
  8
3
 10
212.7182006835938
 20
918.9010620117188
  0
POINT
  8
3
 10
212.4749755859375
 20
919.2948913574219
  0
POINT
  8
3
 10
207.2467041015625
 20
926.9520568847656
  0
POINT
  8
3
 10
205.2200317382813
 20
929.5870971679688
  0
POINT
  8
3
 10
200.9472656250000
 20
934.6902465820313
  0
POINT
  8
3
 10
196.8234252929688
 20
939.1471862792969
  0
POINT
  8
3
 10
190.9487915039063
 20
944.8767089843750
  0
POINT
  8
3
 10
188.1216430664063
 20
947.4162292480469
  0
POINT
  8
3
 10
179.2791748046875
 20
954.6141052246094
  0
POINT
  8
3
 10
177.2744750976563
 20
956.1097717285156
  0
POINT
  8
3
 10
165.9680175781250
 20
963.7547302246094
  0
POINT
  8
3
 10
162.4478149414063
 20
965.8848571777344
  0
POINT
  8
3
 10
155.2926635742188
 20
969.8857116699219
  0
POINT
  8
3
 10
147.8009033203125
 20
973.6343383789063
  0
POINT
  8
3
 10
139.1342163085938
 20
977.4491882324219
  0
POINT
  8
3
 10
132.2412109375000
 20
980.1107788085938
  0
POINT
  8
3
 10
119.8315429687500
 20
984.1722106933594
  0
POINT
  8
3
 10
111.4193725585938
 20
986.4590454101563
  0
POINT
  8
3
 10
108.9880371093750
 20
987.0570373535156
  0
POINT
  8
3
 10
86.76788330078125
 20
991.4247131347656
  0
POINT
  8
3
 10
77.45941162109375
 20
992.7819824218750
  0
POINT
  8
3
 10
41.82617187500000
 20
996.3154602050781
  0
POINT
  8
2
 10
1.210021972656250
 20
998.5289001464844
  0
POINT
  8
2
 10
1.210021972656250
 20
1633.801116943359
  0
POINT
  8
2
 10
1.427001953125000
 20
1648.800048828125
  0
POINT
  8
3
 10
63.23303222656250
 20
1648.349914550781
  0
POINT
  8
3
 10
93.55072021484375
 20
1647.835388183594
  0
POINT
  8
3
 10
121.4602661132813
 20
1646.787719726563
  0
POINT
  8
3
 10
139.1757202148438
 20
1645.658721923828
  0
POINT
  8
3
 10
158.7152099609375
 20
1643.883514404297
  0
POINT
  8
3
 10
177.4969482421875
 20
1641.661834716797
  0
POINT
  8
3
 10
201.8417358398438
 20
1638.078002929688
  0
POINT
  8
3
 10
215.4147338867188
 20
1635.752868652344
  0
POINT
  8
3
 10
237.2680664062500
 20
1631.535034179688
  0
POINT
  8
3
 10
252.9821777343750
 20
1628.132934570313
  0
POINT
  8
3
 10
277.7359008789063
 20
1622.123718261719
  0
POINT
  8
3
 10
290.1647949218750
 20
1618.796234130859
  0
POINT
  8
3
 10
312.1478271484375
 20
1612.385711669922
  0
POINT
  8
3
 10
326.8768310546875
 20
1607.709197998047
  0
POINT
  8
3
 10
350.8026123046875
 20
1599.448089599609
  0
POINT
  8
3
 10
363.0255126953125
 20
1594.904174804688
  0
POINT
  8
3
 10
384.1998291015625
 20
1586.501770019531
  0
POINT
  8
3
 10
398.5314941406250
 20
1580.422973632813
  0
POINT
  8
3
 10
421.6589355468750
 20
1569.923400878906
  0
POINT
  8
3
 10
433.3209228515625
 20
1564.295654296875
  0
POINT
  8
3
 10
453.6828613281250
 20
1553.912963867188
  0
POINT
  8
3
 10
467.3159790039063
 20
1546.553497314453
  0
POINT
  8
3
 10
489.3777465820313
 20
1533.921356201172
  0
POINT
  8
3
 10
500.4421997070313
 20
1527.236633300781
  0
POINT
  8
3
 10
519.7628784179688
 20
1514.978332519531
  0
POINT
  8
3
 10
532.6257324218750
 20
1506.387939453125
  0
POINT
  8
3
 10
553.4387207031250
 20
1491.722412109375
  0
POINT
  8
3
 10
563.7969970703125
 20
1484.053802490234
  0
POINT
  8
3
 10
581.9149780273438
 20
1470.015869140625
  0
POINT
  8
3
 10
597.7496337890625
 20
1457.060394287109
  0
POINT
  8
3
 10
617.0834350585938
 20
1440.312042236328
  0
POINT
  8
3
 10
622.8283691406250
 20
1435.126647949219
  0
POINT
  8
3
 10
639.5767211914063
 20
1419.429321289063
  0
POINT
  8
3
 10
657.7124023437500
 20
1401.391601562500
  0
POINT
  8
3
 10
675.2755737304688
 20
1382.795257568359
  0
POINT
  8
3
 10
677.0178222656250
 20
1380.885467529297
  0
POINT
  8
3
 10
692.2439575195313
 20
1363.662719726563
  0
POINT
  8
3
 10
708.6087036132813
 20
1344.006042480469
  0
POINT
  8
3
 10
711.8084716796875
 20
1340.012512207031
  0
POINT
  8
3
 10
725.8880615234375
 20
1321.807708740234
  0
POINT
  8
3
 10
739.4644165039063
 20
1303.193969726563
  0
POINT
  8
3
 10
748.1945800781250
 20
1290.615081787109
  0
POINT
  8
3
 10
762.2518920898438
 20
1269.236297607422
  0
POINT
  8
3
 10
769.0112304687500
 20
1258.410339355469
  0
POINT
  8
3
 10
780.7666015625000
 20
1238.628997802734
  0
POINT
  8
3
 10
788.2894897460938
 20
1225.266571044922
  0
POINT
  8
3
 10
800.3195190429688
 20
1202.596893310547
  0
POINT
  8
3
 10
806.0031127929688
 20
1191.259613037109
  0
POINT
  8
3
 10
815.9747314453125
 20
1170.240936279297
  0
POINT
  8
3
 10
822.1231079101563
 20
1156.451721191406
  0
POINT
  8
3
 10
831.8951416015625
 20
1132.944793701172
  0
POINT
  8
3
 10
836.5545654296875
 20
1120.910339355469
  0
POINT
  8
3
 10
844.1647338867188
 20
1099.855499267578
  0
POINT
  8
3
 10
849.2294311523438
 20
1084.763488769531
  0
POINT
  8
3
 10
856.9946289062500
 20
1059.718933105469
  0
POINT
  8
3
 10
860.3466796875000
 20
1048.124389648438
  0
POINT
  8
3
 10
867.0626831054688
 20
1023.058929443359
  0
POINT
  8
3
 10
869.9993896484375
 20
1010.877227783203
  0
POINT
  8
3
 10
874.2413330078125
 20
990.8741760253906
  0
POINT
  8
3
 10
877.3522949218750
 20
972.7606201171875
  0
POINT
  8
3
 10
879.6673583984375
 20
954.9253845214844
  0
POINT
  8
3
 10
881.4306640625000
 20
935.7962036132813
  0
POINT
  8
3
 10
882.6840209960938
 20
914.8374938964844
  0
POINT
  8
3
 10
883.5076904296875
 20
889.9633789062500
  0
POINT
  8
2
 10
884.0054321289063
 20
856.8183898925781
  0
POINT
  8
3
 10
883.4310913085938
 20
820.4409790039063
  0
POINT
  8
3
 10
882.6840209960938
 20
798.7992858886719
  0
POINT
  8
3
 10
881.3131713867188
 20
776.3085937500000
  0
POINT
  8
3
 10
879.4979858398438
 20
757.1974182128906
  0
POINT
  8
3
 10
877.3522949218750
 20
740.8761596679688
  0
POINT
  8
3
 10
874.2990112304688
 20
723.0633544921875
  0
POINT
  8
3
 10
869.9993896484375
 20
702.7595520019531
  0
POINT
  8
3
 10
864.9273681640625
 20
682.2682189941406
  0
POINT
  8
3
 10
860.3466796875000
 20
665.5123901367188
  0
POINT
  8
3
 10
853.4075927734375
 20
642.0458984375000
  0
POINT
  8
3
 10
849.2294311523438
 20
628.8731384277344
  0
POINT
  8
3
 10
841.3562011718750
 20
605.7951354980469
  0
POINT
  8
3
 10
836.5545654296875
 20
592.7262878417969
  0
POINT
  8
3
 10
828.5952758789063
 20
572.5112915039063
  0
POINT
  8
3
 10
822.1231079101563
 20
557.1850585937500
  0
POINT
  8
3
 10
812.3886108398438
 20
535.6580352783203
  0
POINT
  8
3
 10
806.0031127929688
 20
522.3770904541016
  0
POINT
  8
3
 10
796.4389038085938
 20
503.5396575927734
  0
POINT
  8
3
 10
788.2894897460938
 20
488.3701324462891
  0
POINT
  8
3
 10
776.4642333984375
 20
467.6199340820313
  0
POINT
  8
3
 10
769.0112304687500
 20
455.2264404296875
  0
POINT
  8
3
 10
757.6174926757813
 20
437.1892547607422
  0
POINT
  8
3
 10
748.1945800781250
 20
423.0216217041016
  0
POINT
  8
3
 10
734.4863891601563
 20
403.4890747070313
  0
POINT
  8
3
 10
725.8880615234375
 20
391.8290710449219
  0
POINT
  8
3
 10
712.8594970703125
 20
374.9472045898438
  0
POINT
  8
3
 10
702.1453857421875
 20
361.7173004150391
  0
POINT
  8
3
 10
686.6354370117188
 20
343.5159301757813
  0
POINT
  8
3
 10
677.0178222656250
 20
332.7512359619141
  0
POINT
  8
3
 10
662.4334716796875
 20
317.1304321289063
  0
POINT
  8
3
 10
650.5590820312500
 20
304.9952697753906
  0
POINT
  8
3
 10
633.3895874023438
 20
288.3052825927734
  0
POINT
  8
3
 10
622.8283691406250
 20
278.5100555419922
  0
POINT
  8
3
 10
606.8191528320313
 20
264.3013763427734
  0
POINT
  8
3
 10
593.8864135742188
 20
253.3543395996094
  0
POINT
  8
3
 10
575.2005004882813
 20
238.3234405517578
  0
POINT
  8
3
 10
563.7969970703125
 20
229.5829010009766
  0
POINT
  8
3
 10
546.5002441406250
 20
216.9171905517578
  0
POINT
  8
3
 10
532.6257324218750
 20
207.2487640380859
  0
POINT
  8
3
 10
512.5854492187500
 20
194.0158081054688
  0
POINT
  8
3
 10
500.4421997070313
 20
186.4001464843750
  0
POINT
  8
3
 10
482.0022583007813
 20
175.3907775878906
  0
POINT
  8
3
 10
467.3159790039063
 20
167.0832824707031
  0
POINT
  8
3
 10
446.0952758789063
 20
155.7706451416016
  0
POINT
  8
3
 10
433.3209228515625
 20
149.3410491943359
  0
POINT
  8
3
 10
413.9108276367188
 20
140.0990295410156
  0
POINT
  8
3
 10
398.5314941406250
 20
133.2138061523438
  0
POINT
  8
3
 10
376.3043212890625
 20
123.9222717285156
  0
POINT
  8
3
 10
363.0255126953125
 20
118.7326049804688
  0
POINT
  8
3
 10
342.7554321289063
 20
111.3173675537109
  0
POINT
  8
3
 10
326.8768310546875
 20
105.9275817871094
  0
POINT
  8
3
 10
303.8760375976563
 20
98.75953674316406
  0
POINT
  8
3
 10
290.1647949218750
 20
94.84054565429688
  0
POINT
  8
3
 10
269.4393920898438
 20
89.40856933593750
  0
POINT
  8
3
 10
252.9821777343750
 20
85.50376892089844
  0
POINT
  8
3
 10
229.2407226562500
 20
80.48393249511719
  0
POINT
  8
3
 10
215.4147338867188
 20
77.88383483886719
  0
POINT
  8
3
 10
193.4921264648438
 20
74.24293518066406
  0
POINT
  8
3
 10
177.4969482421875
 20
71.97494506835938
  0
POINT
  8
3
 10
153.7094116210938
 20
69.24499511718750
  0
POINT
  8
3
 10
134.3844604492188
 20
67.62962341308594
  0
POINT
  8
3
 10
109.9536132812500
 20
66.32476806640625
  0
POINT
  8
3
 10
80.58624267578125
 20
65.52825927734375
  0
POINT
  8
3
 10
63.23303222656250
 20
65.28678894042969
  0
ENDBLK
  0
BLOCK
  8
1
  2
5
 70
64
 10
0.0
 20
0.0
  0
TEXT
  8
1
 10
1219.321238694359
 20
667.4654625866714
 40
32.91621208190918
 50
270.0001055347495
 51
0.0000000000000000
 71
0
  1
Piece Name: V - VC - Tung TS x 2
  0
TEXT
  8
1
 10
1183.113405404321
 20
667.4653958944185
 40
32.91621208190918
 50
270.0001055347495
 51
0.0000000000000000
 71
0
  1
Size: Base
  0
TEXT
  8
1
 10
1146.905572114282
 20
667.4653292021655
 40
32.91621208190918
 50
270.0001055347495
 51
0.0000000000000000
 71
0
  1
Rotation: 90
  0
TEXT
  8
1
 10
1110.697738824243
 20
667.4652625099127
 40
32.91621208190918
 50
270.0001055347495
 51
0.0000000000000000
 71
0
  1
Flip: NO
  0
TEXT
  8
8
 10
1528.008117675781
 20
512.6675428152480
 40
30.00000000000000
 50
269.9999974955218
 51
0.0000000000000000
 71
0
  1
Suon
  0
TEXT
  8
8
 10
1228.110046386719
 20
446.1730987629223
 40
69.99999999999999
 50
269.9999974955218
 51
0.0000000000000000
 71
0
  1
Dap Ly 
  0
LINE
  8
7
 10
1165.010070800781
 20
554.3896484375000
 11
1165.010070800781
 21
148.5501098632813
  0
POLYLINE
  8
1
 66
1
 70
1
  0
VERTEX
  8
1
 10
1593.805847167969
 20
805.4141235351563
  0
VERTEX
  8
1
 10
1593.805847167969
 20
155.0939941406250
  0
VERTEX
  8
1
 10
1551.315307617188
 20
151.3696289062500
  0
VERTEX
  8
1
 10
1531.052246093750
 20
148.6871337890625
  0
VERTEX
  8
1
 10
1518.572998046875
 20
146.4517211914063
  0
VERTEX
  8
1
 10
1503.653869628906
 20
142.9870605468750
  0
VERTEX
  8
1
 10
1494.063110351563
 20
140.2526855468750
  0
VERTEX
  8
1
 10
1488.037414550781
 20
138.3160400390625
  0
VERTEX
  8
1
 10
1471.628417968750
 20
132.0938110351563
  0
VERTEX
  8
1
 10
1467.384948730469
 20
130.2340698242188
  0
VERTEX
  8
1
 10
1454.902343750000
 20
124.0710449218750
  0
VERTEX
  8
1
 10
1451.212463378906
 20
122.0303344726563
  0
VERTEX
  8
1
 10
1440.441589355469
 20
115.4092407226563
  0
VERTEX
  8
1
 10
1436.959533691406
 20
113.0307006835938
  0
VERTEX
  8
1
 10
1432.423095703125
 20
109.7323608398438
  0
VERTEX
  8
1
 10
1424.269104003906
 20
103.1542968750000
  0
VERTEX
  8
1
 10
1420.749816894531
 20
100.0149536132813
  0
VERTEX
  8
1
 10
1413.385009765625
 20
92.73345947265625
  0
VERTEX
  8
1
 10
1410.872497558594
 20
89.99481201171875
  0
VERTEX
  8
1
 10
1410.001525878906
 20
89.01123046875000
  0
VERTEX
  8
1
 10
1401.803894042969
 20
78.71826171875000
  0
VERTEX
  8
1
 10
1399.750061035156
 20
75.77972412109375
  0
VERTEX
  8
1
 10
1399.209899902344
 20
74.97711181640625
  0
VERTEX
  8
1
 10
1394.308471679688
 20
67.00164794921875
  0
VERTEX
  8
1
 10
1392.697448730469
 20
64.04113769531250
  0
VERTEX
  8
1
 10
1390.589904785156
 20
59.82269287109375
  0
VERTEX
  8
1
 10
1388.550415039063
 20
55.24810791015625
  0
VERTEX
  8
1
 10
1387.446594238281
 20
52.48748779296875
  0
VERTEX
  8
1
 10
1385.506591796875
 20
46.87591552734375
  0
VERTEX
  8
1
 10
1384.681396484375
 20
44.02435302734375
  0
VERTEX
  8
1
 10
1383.958740234375
 20
41.14196777343750
  0
VERTEX
  8
1
 10
1383.321838378906
 20
38.15979003906250
  0
VERTEX
  8
1
 10
1382.348937988281
 20
32.14599609375000
  0
VERTEX
  8
1
 10
1382.002563476563
 20
29.12048339843750
  0
VERTEX
  8
1
 10
1381.853637695313
 20
27.50030517578125
  0
VERTEX
  8
1
 10
1381.401367187500
 20
17.42034912109375
  0
VERTEX
  8
1
 10
1381.440429687500
 20
8.735046386718750
  0
VERTEX
  8
1
 10
1381.508483886719
 20
4.978332519531250
  0
VERTEX
  8
1
 10
1356.309509277344
 20
2.518005371093750
  0
VERTEX
  8
1
 10
1353.027343750000
 20
2.272338867187500
  0
VERTEX
  8
1
 10
1335.027465820313
 20
1.270446777343750
  0
VERTEX
  8
1
 10
1321.634521484375
 20
1.270751953125000
  0
VERTEX
  8
1
 10
730.9899902343750
 20
1.270751953125000
  0
VERTEX
  8
1
 10
731.3259887695313
 20
31.57836914062500
  0
VERTEX
  8
1
 10
731.9665527343750
 20
54.14978027343750
  0
VERTEX
  8
1
 10
733.0841064453125
 20
74.99755859375000
  0
VERTEX
  8
1
 10
734.3066406250000
 20
90.85052490234375
  0
VERTEX
  8
1
 10
736.8356323242188
 20
115.4397583007813
  0
VERTEX
  8
1
 10
738.3294677734375
 20
127.4630737304688
  0
VERTEX
  8
1
 10
741.9296264648438
 20
152.4130249023438
  0
VERTEX
  8
1
 10
746.3070678710938
 20
177.6824951171875
  0
VERTEX
  8
1
 10
750.7357788085938
 20
199.5248413085938
  0
VERTEX
  8
1
 10
755.3384399414063
 20
219.4558715820313
  0
VERTEX
  8
1
 10
757.3553466796875
 20
227.4969482421875
  0
VERTEX
  8
1
 10
762.9312133789063
 20
247.9766845703125
  0
VERTEX
  8
1
 10
768.5275268554688
 20
266.4343261718750
  0
VERTEX
  8
1
 10
771.8453979492188
 20
276.5722656250000
  0
VERTEX
  8
1
 10
779.2306518554688
 20
297.3764038085938
  0
VERTEX
  8
1
 10
785.8847045898438
 20
314.3963623046875
  0
VERTEX
  8
1
 10
790.1522827148438
 20
324.5938110351563
  0
VERTEX
  8
1
 10
798.4951782226563
 20
343.1692504882813
  0
VERTEX
  8
1
 10
808.2510375976563
 20
363.0401611328125
  0
VERTEX
  8
1
 10
813.0706787109375
 20
372.2528076171875
  0
VERTEX
  8
1
 10
823.3493041992188
 20
390.7870483398438
  0
VERTEX
  8
1
 10
835.1040649414063
 20
410.4165649414063
  0
VERTEX
  8
1
 10
842.4755859375000
 20
422.0068359375000
  0
VERTEX
  8
1
 10
855.6961059570313
 20
441.6122436523438
  0
VERTEX
  8
1
 10
869.5632934570313
 20
460.7766723632813
  0
VERTEX
  8
1
 10
870.6497192382813
 20
462.2241210937500
  0
VERTEX
  8
1
 10
884.4259643554688
 20
479.9679565429688
  0
VERTEX
  8
1
 10
899.9984741210938
 20
498.7921142578125
  0
VERTEX
  8
1
 10
904.6969604492188
 20
504.2404174804688
  0
VERTEX
  8
1
 10
919.8568725585938
 20
521.1599731445313
  0
VERTEX
  8
1
 10
937.2079467773438
 20
539.3997192382813
  0
VERTEX
  8
1
 10
941.8539428710938
 20
544.0972900390625
  0
VERTEX
  8
1
 10
959.1442871093750
 20
560.9451293945313
  0
VERTEX
  8
1
 10
978.1826782226563
 20
578.4292602539063
  0
VERTEX
  8
1
 10
981.8286132812500
 20
581.6592407226563
  0
VERTEX
  8
1
 10
1002.148742675781
 20
599.0133666992188
  0
VERTEX
  8
1
 10
1022.752685546875
 20
615.5633544921875
  0
VERTEX
  8
1
 10
1024.331970214844
 20
616.7910766601563
  0
VERTEX
  8
1
 10
1044.124145507813
 20
631.7105102539063
  0
VERTEX
  8
1
 10
1066.038208007813
 20
647.2732543945313
  0
VERTEX
  8
1
 10
1069.076538085938
 20
649.3557739257813
  0
VERTEX
  8
1
 10
1088.597106933594
 20
662.3168945312500
  0
VERTEX
  8
1
 10
1111.639709472656
 20
676.7254638671875
  0
VERTEX
  8
1
 10
1115.777587890625
 20
679.2147827148438
  0
VERTEX
  8
1
 10
1135.188903808594
 20
690.5093383789063
  0
VERTEX
  8
1
 10
1159.158020019531
 20
703.6123657226563
  0
VERTEX
  8
1
 10
1164.151306152344
 20
706.2286376953125
  0
VERTEX
  8
1
 10
1188.386535644531
 20
718.3874511718750
  0
VERTEX
  8
1
 10
1213.120727539063
 20
729.9005126953125
  0
VERTEX
  8
1
 10
1213.915100097656
 20
730.2557373046875
  0
VERTEX
  8
1
 10
1238.027038574219
 20
740.6094360351563
  0
VERTEX
  8
1
 10
1263.204956054688
 20
750.5563354492188
  0
VERTEX
  8
1
 10
1264.787597656250
 20
751.1526489257813
  0
VERTEX
  8
1
 10
1288.381652832031
 20
759.6389770507813
  0
VERTEX
  8
1
 10
1313.752441406250
 20
767.9309082031250
  0
VERTEX
  8
1
 10
1316.488342285156
 20
768.7738037109375
  0
VERTEX
  8
1
 10
1338.957214355469
 20
775.3222656250000
  0
VERTEX
  8
1
 10
1364.279174804688
 20
781.9015502929688
  0
VERTEX
  8
1
 10
1368.737182617188
 20
782.9721069335938
  0
VERTEX
  8
1
 10
1389.267272949219
 20
787.5619506835938
  0
VERTEX
  8
1
 10
1414.292602539063
 20
792.3992919921875
  0
VERTEX
  8
1
 10
1421.254272460938
 20
793.5964965820313
  0
VERTEX
  8
1
 10
1443.908081054688
 20
797.0397949218750
  0
VERTEX
  8
1
 10
1463.540344238281
 20
799.4522094726563
  0
VERTEX
  8
1
 10
1473.725585937500
 20
800.4898071289063
  0
VERTEX
  8
1
 10
1498.264160156250
 20
802.4145507812500
  0
VERTEX
  8
1
 10
1528.256225585938
 20
803.9016723632813
  0
VERTEX
  8
1
 10
1528.953857421875
 20
803.9276123046875
  0
VERTEX
  8
1
 10
1571.278076171875
 20
805.0378417968750
  0
SEQEND
  0
POINT
  8
2
 10
1593.805847167969
 20
805.4141235351563
  0
POINT
  8
2
 10
1593.805847167969
 20
155.0939941406250
  0
POINT
  8
3
 10
1551.315307617188
 20
151.3696289062500
  0
POINT
  8
3
 10
1531.052246093750
 20
148.6871337890625
  0
POINT
  8
3
 10
1518.572998046875
 20
146.4517211914063
  0
POINT
  8
3
 10
1503.653869628906
 20
142.9870605468750
  0
POINT
  8
3
 10
1494.063110351563
 20
140.2526855468750
  0
POINT
  8
3
 10
1488.037414550781
 20
138.3160400390625
  0
POINT
  8
3
 10
1471.628417968750
 20
132.0938110351563
  0
POINT
  8
3
 10
1467.384948730469
 20
130.2340698242188
  0
POINT
  8
3
 10
1454.902343750000
 20
124.0710449218750
  0
POINT
  8
3
 10
1451.212463378906
 20
122.0303344726563
  0
POINT
  8
3
 10
1440.441589355469
 20
115.4092407226563
  0
POINT
  8
3
 10
1436.959533691406
 20
113.0307006835938
  0
POINT
  8
3
 10
1432.423095703125
 20
109.7323608398438
  0
POINT
  8
3
 10
1424.269104003906
 20
103.1542968750000
  0
POINT
  8
3
 10
1420.749816894531
 20
100.0149536132813
  0
POINT
  8
3
 10
1413.385009765625
 20
92.73345947265625
  0
POINT
  8
3
 10
1410.872497558594
 20
89.99481201171875
  0
POINT
  8
3
 10
1410.001525878906
 20
89.01123046875000
  0
POINT
  8
3
 10
1401.803894042969
 20
78.71826171875000
  0
POINT
  8
3
 10
1399.750061035156
 20
75.77972412109375
  0
POINT
  8
3
 10
1399.209899902344
 20
74.97711181640625
  0
POINT
  8
3
 10
1394.308471679688
 20
67.00164794921875
  0
POINT
  8
3
 10
1392.697448730469
 20
64.04113769531250
  0
POINT
  8
3
 10
1390.589904785156
 20
59.82269287109375
  0
POINT
  8
3
 10
1388.550415039063
 20
55.24810791015625
  0
POINT
  8
3
 10
1387.446594238281
 20
52.48748779296875
  0
POINT
  8
3
 10
1385.506591796875
 20
46.87591552734375
  0
POINT
  8
3
 10
1384.681396484375
 20
44.02435302734375
  0
POINT
  8
3
 10
1383.958740234375
 20
41.14196777343750
  0
POINT
  8
3
 10
1383.321838378906
 20
38.15979003906250
  0
POINT
  8
3
 10
1382.348937988281
 20
32.14599609375000
  0
POINT
  8
3
 10
1382.002563476563
 20
29.12048339843750
  0
POINT
  8
3
 10
1381.853637695313
 20
27.50030517578125
  0
POINT
  8
3
 10
1381.401367187500
 20
17.42034912109375
  0
POINT
  8
3
 10
1381.440429687500
 20
8.735046386718750
  0
POINT
  8
2
 10
1381.508483886719
 20
4.978332519531250
  0
POINT
  8
3
 10
1356.309509277344
 20
2.518005371093750
  0
POINT
  8
3
 10
1353.027343750000
 20
2.272338867187500
  0
POINT
  8
2
 10
1335.027465820313
 20
1.270446777343750
  0
POINT
  8
2
 10
1321.634521484375
 20
1.270751953125000
  0
POINT
  8
2
 10
730.9899902343750
 20
1.270751953125000
  0
POINT
  8
3
 10
731.3259887695313
 20
31.57836914062500
  0
POINT
  8
3
 10
731.9665527343750
 20
54.14978027343750
  0
POINT
  8
3
 10
733.0841064453125
 20
74.99755859375000
  0
POINT
  8
3
 10
734.3066406250000
 20
90.85052490234375
  0
POINT
  8
3
 10
736.8356323242188
 20
115.4397583007813
  0
POINT
  8
3
 10
738.3294677734375
 20
127.4630737304688
  0
POINT
  8
3
 10
741.9296264648438
 20
152.4130249023438
  0
POINT
  8
3
 10
746.3070678710938
 20
177.6824951171875
  0
POINT
  8
3
 10
750.7357788085938
 20
199.5248413085938
  0
POINT
  8
3
 10
755.3384399414063
 20
219.4558715820313
  0
POINT
  8
3
 10
757.3553466796875
 20
227.4969482421875
  0
POINT
  8
3
 10
762.9312133789063
 20
247.9766845703125
  0
POINT
  8
3
 10
768.5275268554688
 20
266.4343261718750
  0
POINT
  8
3
 10
771.8453979492188
 20
276.5722656250000
  0
POINT
  8
3
 10
779.2306518554688
 20
297.3764038085938
  0
POINT
  8
3
 10
785.8847045898438
 20
314.3963623046875
  0
POINT
  8
3
 10
790.1522827148438
 20
324.5938110351563
  0
POINT
  8
3
 10
798.4951782226563
 20
343.1692504882813
  0
POINT
  8
3
 10
808.2510375976563
 20
363.0401611328125
  0
POINT
  8
3
 10
813.0706787109375
 20
372.2528076171875
  0
POINT
  8
3
 10
823.3493041992188
 20
390.7870483398438
  0
POINT
  8
3
 10
835.1040649414063
 20
410.4165649414063
  0
POINT
  8
3
 10
842.4755859375000
 20
422.0068359375000
  0
POINT
  8
3
 10
855.6961059570313
 20
441.6122436523438
  0
POINT
  8
3
 10
869.5632934570313
 20
460.7766723632813
  0
POINT
  8
3
 10
870.6497192382813
 20
462.2241210937500
  0
POINT
  8
3
 10
884.4259643554688
 20
479.9679565429688
  0
POINT
  8
3
 10
899.9984741210938
 20
498.7921142578125
  0
POINT
  8
3
 10
904.6969604492188
 20
504.2404174804688
  0
POINT
  8
3
 10
919.8568725585938
 20
521.1599731445313
  0
POINT
  8
3
 10
937.2079467773438
 20
539.3997192382813
  0
POINT
  8
3
 10
941.8539428710938
 20
544.0972900390625
  0
POINT
  8
3
 10
959.1442871093750
 20
560.9451293945313
  0
POINT
  8
3
 10
978.1826782226563
 20
578.4292602539063
  0
POINT
  8
3
 10
981.8286132812500
 20
581.6592407226563
  0
POINT
  8
3
 10
1002.148742675781
 20
599.0133666992188
  0
POINT
  8
3
 10
1022.752685546875
 20
615.5633544921875
  0
POINT
  8
3
 10
1024.331970214844
 20
616.7910766601563
  0
POINT
  8
3
 10
1044.124145507813
 20
631.7105102539063
  0
POINT
  8
3
 10
1066.038208007813
 20
647.2732543945313
  0
POINT
  8
3
 10
1069.076538085938
 20
649.3557739257813
  0
POINT
  8
3
 10
1088.597106933594
 20
662.3168945312500
  0
POINT
  8
3
 10
1111.639709472656
 20
676.7254638671875
  0
POINT
  8
3
 10
1115.777587890625
 20
679.2147827148438
  0
POINT
  8
3
 10
1135.188903808594
 20
690.5093383789063
  0
POINT
  8
3
 10
1159.158020019531
 20
703.6123657226563
  0
POINT
  8
3
 10
1164.151306152344
 20
706.2286376953125
  0
POINT
  8
3
 10
1188.386535644531
 20
718.3874511718750
  0
POINT
  8
3
 10
1213.120727539063
 20
729.9005126953125
  0
POINT
  8
3
 10
1213.915100097656
 20
730.2557373046875
  0
POINT
  8
3
 10
1238.027038574219
 20
740.6094360351563
  0
POINT
  8
3
 10
1263.204956054688
 20
750.5563354492188
  0
POINT
  8
3
 10
1264.787597656250
 20
751.1526489257813
  0
POINT
  8
3
 10
1288.381652832031
 20
759.6389770507813
  0
POINT
  8
3
 10
1313.752441406250
 20
767.9309082031250
  0
POINT
  8
3
 10
1316.488342285156
 20
768.7738037109375
  0
POINT
  8
3
 10
1338.957214355469
 20
775.3222656250000
  0
POINT
  8
3
 10
1364.279174804688
 20
781.9015502929688
  0
POINT
  8
3
 10
1368.737182617188
 20
782.9721069335938
  0
POINT
  8
3
 10
1389.267272949219
 20
787.5619506835938
  0
POINT
  8
3
 10
1414.292602539063
 20
792.3992919921875
  0
POINT
  8
3
 10
1421.254272460938
 20
793.5964965820313
  0
POINT
  8
3
 10
1443.908081054688
 20
797.0397949218750
  0
POINT
  8
3
 10
1463.540344238281
 20
799.4522094726563
  0
POINT
  8
3
 10
1473.725585937500
 20
800.4898071289063
  0
POINT
  8
3
 10
1498.264160156250
 20
802.4145507812500
  0
POINT
  8
3
 10
1528.256225585938
 20
803.9016723632813
  0
POINT
  8
3
 10
1528.953857421875
 20
803.9276123046875
  0
POINT
  8
3
 10
1571.278076171875
 20
805.0378417968750
  0
ENDBLK
  0
BLOCK
  8
1
  2
6
 70
64
 10
0.0
 20
0.0
  0
TEXT
  8
1
 10
1290.573458783876
 20
854.8887645950788
 40
33.39999914169311
 50
90.00000250447816
 51
0.0000000000000000
 71
0
  1
Piece Name: V - VC - Tung Dap TT  x 1
  0
TEXT
  8
1
 10
1327.313457839738
 20
854.8887662010352
 40
33.39999914169311
 50
90.00000250447816
 51
0.0000000000000000
 71
0
  1
Size: Base
  0
TEXT
  8
1
 10
1364.053456895601
 20
854.8887678069916
 40
33.39999914169311
 50
90.00000250447816
 51
0.0000000000000000
 71
0
  1
Rotation: 90
  0
TEXT
  8
1
 10
1400.793455951463
 20
854.8887694129480
 40
33.39999914169311
 50
90.00000250447816
 51
0.0000000000000000
 71
0
  1
Flip: NO
  0
POINT
  8
4
 10
1136.287384033203
 20
1531.344337463379
 30
6.999999910231313
 50
-6.093549585324291
 230
5.000000000000000
  0
TEXT
  8
8
 10
1213.160552978516
 20
1069.218056877546
 40
69.99999999999999
 50
90.00000250447816
 51
0.0000000000000000
 71
0
  1
Dap ly
  0
TEXT
  8
8
 10
987.7436828613281
 20
988.2436297337872
 40
49.99999999999999
 50
90.00000250447816
 51
0.0000000000000000
 71
0
  1
Suon
  0
TEXT
  8
8
 10
1543.652496337891
 20
1612.403717915244
 40
20.00000000000000
 50
90.00000250447816
 51
0.0000000000000000
 71
0
  1
Ta 
  0
LINE
  8
7
 10
1345.720977783203
 20
980.1841437816620
 11
1345.720977783203
 21
1470.396080017090
  0
POLYLINE
  8
1
 66
1
 70
1
  0
VERTEX
  8
1
 10
1808.718414306641
 20
1648.799972534180
  0
VERTEX
  8
1
 10
1808.786163330078
 20
1607.343139648438
  0
VERTEX
  8
1
 10
1808.323516845703
 20
1565.885505676270
  0
VERTEX
  8
1
 10
1808.230743408203
 20
1561.870422363281
  0
VERTEX
  8
1
 10
1807.172698974609
 20
1532.128715515137
  0
VERTEX
  8
1
 10
1805.554351806641
 20
1506.100120544434
  0
VERTEX
  8
1
 10
1804.082489013672
 20
1489.415473937988
  0
VERTEX
  8
1
 10
1801.566009521484
 20
1467.595176696777
  0
VERTEX
  8
1
 10
1798.348846435547
 20
1445.569610595703
  0
VERTEX
  8
1
 10
1794.627227783203
 20
1424.381599426270
  0
VERTEX
  8
1
 10
1790.022125244141
 20
1401.954498291016
  0
VERTEX
  8
1
 10
1784.963836669922
 20
1380.449562072754
  0
VERTEX
  8
1
 10
1779.188079833984
 20
1358.626518249512
  0
VERTEX
  8
1
 10
1772.606353759766
 20
1336.293907165527
  0
VERTEX
  8
1
 10
1765.941619873047
 20
1315.728836059570
  0
VERTEX
  8
1
 10
1757.553863525391
 20
1292.078895568848
  0
VERTEX
  8
1
 10
1750.376739501953
 20
1273.404293060303
  0
VERTEX
  8
1
 10
1741.927032470703
 20
1252.906723022461
  0
VERTEX
  8
1
 10
1732.586517333984
 20
1231.795635223389
  0
VERTEX
  8
1
 10
1721.908721923828
 20
1209.312038421631
  0
VERTEX
  8
1
 10
1712.663421630859
 20
1191.045780181885
  0
VERTEX
  8
1
 10
1702.014923095703
 20
1171.190719604492
  0
VERTEX
  8
1
 10
1690.698089599609
 20
1151.297836303711
  0
VERTEX
  8
1
 10
1677.408905029297
 20
1129.320907592773
  0
VERTEX
  8
1
 10
1666.781158447266
 20
1112.695217132568
  0
VERTEX
  8
1
 10
1653.685150146484
 20
1093.241491317749
  0
VERTEX
  8
1
 10
1641.001434326172
 20
1075.381803512573
  0
VERTEX
  8
1
 10
1625.076751708984
 20
1054.188404083252
  0
VERTEX
  8
1
 10
1613.448333740234
 20
1039.501972198486
  0
VERTEX
  8
1
 10
1598.123016357422
 20
1021.077427864075
  0
VERTEX
  8
1
 10
1584.209747314453
 20
1005.200710296631
  0
VERTEX
  8
1
 10
1566.310577392578
 20
985.8743524551392
  0
VERTEX
  8
1
 10
1553.372650146484
 20
972.6237642765045
  0
VERTEX
  8
1
 10
1536.850738525391
 20
956.5237748622894
  0
VERTEX
  8
1
 10
1521.024322509766
 20
941.9177603721619
  0
VERTEX
  8
1
 10
1502.581634521484
 20
925.8483266830444
  0
VERTEX
  8
1
 10
1487.251129150391
 20
913.2303905487061
  0
VERTEX
  8
1
 10
1467.429962158203
 20
897.8634595870972
  0
VERTEX
  8
1
 10
1452.119903564453
 20
886.6962051391602
  0
VERTEX
  8
1
 10
1435.341949462891
 20
875.1282501220703
  0
VERTEX
  8
1
 10
1414.815826416016
 20
861.8473625183105
  0
VERTEX
  8
1
 10
1410.052947998047
 20
858.8925647735596
  0
VERTEX
  8
1
 10
1388.983306884766
 20
846.3597393035889
  0
VERTEX
  8
1
 10
1366.738128662109
 20
834.0439891815186
  0
VERTEX
  8
1
 10
1362.119293212891
 20
831.6006183624268
  0
VERTEX
  8
1
 10
1339.646453857422
 20
820.2538394927979
  0
VERTEX
  8
1
 10
1316.721954345703
 20
809.5795536041260
  0
VERTEX
  8
1
 10
1312.279205322266
 20
807.6135158538818
  0
VERTEX
  8
1
 10
1289.092864990234
 20
797.8823661804199
  0
VERTEX
  8
1
 10
1265.784149169922
 20
788.9795112609863
  0
VERTEX
  8
1
 10
1260.821685791016
 20
787.1961021423340
  0
VERTEX
  8
1
 10
1237.794342041016
 20
779.4288063049316
  0
VERTEX
  8
1
 10
1214.341278076172
 20
772.3687362670898
  0
VERTEX
  8
1
 10
1208.081207275391
 20
770.6282615661621
  0
VERTEX
  8
1
 10
1186.008758544922
 20
764.9634742736816
  0
VERTEX
  8
1
 10
1162.601165771484
 20
759.7104454040527
  0
VERTEX
  8
1
 10
1136.727142333984
 20
754.7314262390137
  0
VERTEX
  8
1
 10
1116.723175048828
 20
751.4280509948730
  0
VERTEX
  8
1
 10
1088.512115478516
 20
747.5064277648926
  0
VERTEX
  8
1
 10
1070.595550537109
 20
745.4276847839355
  0
VERTEX
  8
1
 10
1042.047271728516
 20
742.7136611938477
  0
VERTEX
  8
1
 10
1024.410858154297
 20
741.3707923889160
  0
VERTEX
  8
1
 10
999.5857238769531
 20
739.9088096618652
  0
VERTEX
  8
1
 10
993.3964538574219
 20
739.6389770507813
  0
VERTEX
  8
1
 10
963.9750671386719
 20
738.8631057739258
  0
VERTEX
  8
1
 10
948.3341979980469
 20
738.6637687683105
  0
VERTEX
  8
1
 10
886.4152526855469
 20
738.2148742675781
  0
VERTEX
  8
1
 10
886.4152526855469
 20
1388.812217712402
  0
VERTEX
  8
1
 10
935.0538635253906
 20
1390.797805786133
  0
VERTEX
  8
1
 10
973.2942199707031
 20
1394.043312072754
  0
VERTEX
  8
1
 10
984.4349670410156
 20
1395.556983947754
  0
VERTEX
  8
1
 10
1007.973480224609
 20
1399.970932006836
  0
VERTEX
  8
1
 10
1010.367584228516
 20
1400.528030395508
  0
VERTEX
  8
1
 10
1032.965545654297
 20
1406.968040466309
  0
VERTEX
  8
1
 10
1037.679901123047
 20
1408.611526489258
  0
VERTEX
  8
1
 10
1046.181793212891
 20
1411.875038146973
  0
VERTEX
  8
1
 10
1055.031890869141
 20
1415.723304748535
  0
VERTEX
  8
1
 10
1064.636077880859
 20
1420.495567321777
  0
VERTEX
  8
1
 10
1070.261077880859
 20
1423.620681762695
  0
VERTEX
  8
1
 10
1077.115020751953
 20
1427.812576293945
  0
VERTEX
  8
1
 10
1082.015838623047
 20
1431.107330322266
  0
VERTEX
  8
1
 10
1089.517059326172
 20
1436.723556518555
  0
VERTEX
  8
1
 10
1092.309722900391
 20
1439.023628234863
  0
VERTEX
  8
1
 10
1097.483978271484
 20
1443.649063110352
  0
VERTEX
  8
1
 10
1100.049896240234
 20
1446.146163940430
  0
VERTEX
  8
1
 10
1104.545745849609
 20
1450.915451049805
  0
VERTEX
  8
1
 10
1106.685943603516
 20
1453.393936157227
  0
VERTEX
  8
1
 10
1110.461578369141
 20
1458.173065185547
  0
VERTEX
  8
1
 10
1112.647552490234
 20
1461.227416992188
  0
VERTEX
  8
1
 10
1116.216583251953
 20
1466.761245727539
  0
VERTEX
  8
1
 10
1117.877044677734
 20
1469.604072570801
  0
VERTEX
  8
1
 10
1120.439910888672
 20
1474.388542175293
  0
VERTEX
  8
1
 10
1122.527923583984
 20
1478.707580566406
  0
VERTEX
  8
1
 10
1125.385589599609
 20
1485.386657714844
  0
VERTEX
  8
1
 10
1127.953033447266
 20
1492.377281188965
  0
VERTEX
  8
1
 10
1130.180816650391
 20
1499.502334594727
  0
VERTEX
  8
1
 10
1132.211151123047
 20
1507.264671325684
  0
VERTEX
  8
1
 10
1133.173065185547
 20
1511.561889648438
  0
VERTEX
  8
1
 10
1135.325775146484
 20
1523.692855834961
  0
VERTEX
  8
1
 10
1136.287384033203
 20
1531.344337463379
  0
VERTEX
  8
1
 10
1137.694854736328
 20
1550.427360534668
  0
VERTEX
  8
1
 10
1140.212249755859
 20
1628.140335083008
  0
VERTEX
  8
1
 10
1140.576019287109
 20
1648.799972534180
  0
SEQEND
  0
POINT
  8
2
 10
1808.718414306641
 20
1648.799972534180
  0
POINT
  8
3
 10
1808.786163330078
 20
1607.343139648438
  0
POINT
  8
3
 10
1808.323516845703
 20
1565.885505676270
  0
POINT
  8
3
 10
1808.230743408203
 20
1561.870422363281
  0
POINT
  8
3
 10
1807.172698974609
 20
1532.128715515137
  0
POINT
  8
3
 10
1805.554351806641
 20
1506.100120544434
  0
POINT
  8
3
 10
1804.082489013672
 20
1489.415473937988
  0
POINT
  8
3
 10
1801.566009521484
 20
1467.595176696777
  0
POINT
  8
3
 10
1798.348846435547
 20
1445.569610595703
  0
POINT
  8
3
 10
1794.627227783203
 20
1424.381599426270
  0
POINT
  8
3
 10
1790.022125244141
 20
1401.954498291016
  0
POINT
  8
3
 10
1784.963836669922
 20
1380.449562072754
  0
POINT
  8
3
 10
1779.188079833984
 20
1358.626518249512
  0
POINT
  8
3
 10
1772.606353759766
 20
1336.293907165527
  0
POINT
  8
3
 10
1765.941619873047
 20
1315.728836059570
  0
POINT
  8
3
 10
1757.553863525391
 20
1292.078895568848
  0
POINT
  8
3
 10
1750.376739501953
 20
1273.404293060303
  0
POINT
  8
3
 10
1741.927032470703
 20
1252.906723022461
  0
POINT
  8
3
 10
1732.586517333984
 20
1231.795635223389
  0
POINT
  8
3
 10
1721.908721923828
 20
1209.312038421631
  0
POINT
  8
3
 10
1712.663421630859
 20
1191.045780181885
  0
POINT
  8
3
 10
1702.014923095703
 20
1171.190719604492
  0
POINT
  8
3
 10
1690.698089599609
 20
1151.297836303711
  0
POINT
  8
3
 10
1677.408905029297
 20
1129.320907592773
  0
POINT
  8
3
 10
1666.781158447266
 20
1112.695217132568
  0
POINT
  8
3
 10
1653.685150146484
 20
1093.241491317749
  0
POINT
  8
3
 10
1641.001434326172
 20
1075.381803512573
  0
POINT
  8
3
 10
1625.076751708984
 20
1054.188404083252
  0
POINT
  8
3
 10
1613.448333740234
 20
1039.501972198486
  0
POINT
  8
3
 10
1598.123016357422
 20
1021.077427864075
  0
POINT
  8
3
 10
1584.209747314453
 20
1005.200710296631
  0
POINT
  8
3
 10
1566.310577392578
 20
985.8743524551392
  0
POINT
  8
3
 10
1553.372650146484
 20
972.6237642765045
  0
POINT
  8
3
 10
1536.850738525391
 20
956.5237748622894
  0
POINT
  8
3
 10
1521.024322509766
 20
941.9177603721619
  0
POINT
  8
3
 10
1502.581634521484
 20
925.8483266830444
  0
POINT
  8
3
 10
1487.251129150391
 20
913.2303905487061
  0
POINT
  8
3
 10
1467.429962158203
 20
897.8634595870972
  0
POINT
  8
3
 10
1452.119903564453
 20
886.6962051391602
  0
POINT
  8
3
 10
1435.341949462891
 20
875.1282501220703
  0
POINT
  8
3
 10
1414.815826416016
 20
861.8473625183105
  0
POINT
  8
3
 10
1410.052947998047
 20
858.8925647735596
  0
POINT
  8
3
 10
1388.983306884766
 20
846.3597393035889
  0
POINT
  8
3
 10
1366.738128662109
 20
834.0439891815186
  0
POINT
  8
3
 10
1362.119293212891
 20
831.6006183624268
  0
POINT
  8
3
 10
1339.646453857422
 20
820.2538394927979
  0
POINT
  8
3
 10
1316.721954345703
 20
809.5795536041260
  0
POINT
  8
3
 10
1312.279205322266
 20
807.6135158538818
  0
POINT
  8
3
 10
1289.092864990234
 20
797.8823661804199
  0
POINT
  8
3
 10
1265.784149169922
 20
788.9795112609863
  0
POINT
  8
3
 10
1260.821685791016
 20
787.1961021423340
  0
POINT
  8
3
 10
1237.794342041016
 20
779.4288063049316
  0
POINT
  8
3
 10
1214.341278076172
 20
772.3687362670898
  0
POINT
  8
3
 10
1208.081207275391
 20
770.6282615661621
  0
POINT
  8
3
 10
1186.008758544922
 20
764.9634742736816
  0
POINT
  8
3
 10
1162.601165771484
 20
759.7104454040527
  0
POINT
  8
3
 10
1136.727142333984
 20
754.7314262390137
  0
POINT
  8
3
 10
1116.723175048828
 20
751.4280509948730
  0
POINT
  8
3
 10
1088.512115478516
 20
747.5064277648926
  0
POINT
  8
3
 10
1070.595550537109
 20
745.4276847839355
  0
POINT
  8
3
 10
1042.047271728516
 20
742.7136611938477
  0
POINT
  8
3
 10
1024.410858154297
 20
741.3707923889160
  0
POINT
  8
3
 10
999.5857238769531
 20
739.9088096618652
  0
POINT
  8
3
 10
993.3964538574219
 20
739.6389770507813
  0
POINT
  8
3
 10
963.9750671386719
 20
738.8631057739258
  0
POINT
  8
3
 10
948.3341979980469
 20
738.6637687683105
  0
POINT
  8
2
 10
886.4152526855469
 20
738.2148742675781
  0
POINT
  8
2
 10
886.4152526855469
 20
1388.812217712402
  0
POINT
  8
3
 10
935.0538635253906
 20
1390.797805786133
  0
POINT
  8
3
 10
973.2942199707031
 20
1394.043312072754
  0
POINT
  8
3
 10
984.4349670410156
 20
1395.556983947754
  0
POINT
  8
3
 10
1007.973480224609
 20
1399.970932006836
  0
POINT
  8
3
 10
1010.367584228516
 20
1400.528030395508
  0
POINT
  8
3
 10
1032.965545654297
 20
1406.968040466309
  0
POINT
  8
3
 10
1037.679901123047
 20
1408.611526489258
  0
POINT
  8
3
 10
1046.181793212891
 20
1411.875038146973
  0
POINT
  8
3
 10
1055.031890869141
 20
1415.723304748535
  0
POINT
  8
3
 10
1064.636077880859
 20
1420.495567321777
  0
POINT
  8
3
 10
1070.261077880859
 20
1423.620681762695
  0
POINT
  8
3
 10
1077.115020751953
 20
1427.812576293945
  0
POINT
  8
3
 10
1082.015838623047
 20
1431.107330322266
  0
POINT
  8
3
 10
1089.517059326172
 20
1436.723556518555
  0
POINT
  8
3
 10
1092.309722900391
 20
1439.023628234863
  0
POINT
  8
3
 10
1097.483978271484
 20
1443.649063110352
  0
POINT
  8
3
 10
1100.049896240234
 20
1446.146163940430
  0
POINT
  8
3
 10
1104.545745849609
 20
1450.915451049805
  0
POINT
  8
3
 10
1106.685943603516
 20
1453.393936157227
  0
POINT
  8
3
 10
1110.461578369141
 20
1458.173065185547
  0
POINT
  8
3
 10
1112.647552490234
 20
1461.227416992188
  0
POINT
  8
3
 10
1116.216583251953
 20
1466.761245727539
  0
POINT
  8
3
 10
1117.877044677734
 20
1469.604072570801
  0
POINT
  8
3
 10
1120.439910888672
 20
1474.388542175293
  0
POINT
  8
3
 10
1122.527923583984
 20
1478.707580566406
  0
POINT
  8
3
 10
1125.385589599609
 20
1485.386657714844
  0
POINT
  8
3
 10
1127.953033447266
 20
1492.377281188965
  0
POINT
  8
3
 10
1130.180816650391
 20
1499.502334594727
  0
POINT
  8
3
 10
1132.211151123047
 20
1507.264671325684
  0
POINT
  8
3
 10
1133.173065185547
 20
1511.561889648438
  0
POINT
  8
3
 10
1135.325775146484
 20
1523.692855834961
  0
POINT
  8
3
 10
1136.287384033203
 20
1531.344337463379
  0
POINT
  8
3
 10
1137.694854736328
 20
1550.427360534668
  0
POINT
  8
3
 10
1140.212249755859
 20
1628.140335083008
  0
POINT
  8
2
 10
1140.576019287109
 20
1648.799972534180
  0
ENDBLK
  0
BLOCK
  8
1
  2
7
 70
64
 10
0.0
 20
0.0
  0
TEXT
  8
1
 10
1586.982353448868
 20
723.3631075620651
 40
33.21315526962280
 50
0.0000000000000000
 51
0.0000000000000000
 71
0
  1
Piece Name: V - VL - TT x 1
  0
TEXT
  8
1
 10
1586.982353448868
 20
686.8286367654800
 40
33.21315526962280
 50
0.0000000000000000
 51
0.0000000000000000
 71
0
  1
Size: Base
  0
TEXT
  8
1
 10
1586.982353448868
 20
650.2941659688951
 40
33.21315526962280
 50
0.0000000000000000
 51
0.0000000000000000
 71
0
  1
Rotation: 90
  0
TEXT
  8
1
 10
1586.982353448868
 20
613.7596951723099
 40
33.21315526962280
 50
0.0000000000000000
 51
0.0000000000000000
 71
0
  1
Flip: NO
  0
POINT
  8
4
 10
2115.744400024414
 20
668.5479736328125
 30
7.000122070312500
 50
180.0000000000000
 230
5.000000000000000
  0
LINE
  8
7
 10
2005.847549438477
 20
668.5614013671875
 11
1706.170043945313
 21
668.5614013671875
  0
POLYLINE
  8
1
 66
1
 70
1
  0
VERTEX
  8
1
 10
2151.461029052734
 20
897.5778198242188
  0
VERTEX
  8
1
 10
2136.323852539063
 20
840.6591796875000
  0
VERTEX
  8
1
 10
2127.395858764648
 20
800.8248901367188
  0
VERTEX
  8
1
 10
2124.370193481445
 20
783.8473510742188
  0
VERTEX
  8
1
 10
2119.847488403320
 20
748.1988525390625
  0
VERTEX
  8
1
 10
2118.949890136719
 20
738.0197143554688
  0
VERTEX
  8
1
 10
2116.544952392578
 20
694.8794555664063
  0
VERTEX
  8
1
 10
2115.744400024414
 20
668.5479736328125
  0
VERTEX
  8
1
 10
2116.543579101563
 20
642.2171020507813
  0
VERTEX
  8
1
 10
2118.946075439453
 20
599.0765380859375
  0
VERTEX
  8
1
 10
2122.068328857422
 20
569.0740966796875
  0
VERTEX
  8
1
 10
2124.364013671875
 20
553.2485961914063
  0
VERTEX
  8
1
 10
2131.492919921875
 20
516.7504882812500
  0
VERTEX
  8
1
 10
2136.314544677734
 20
496.4358520507813
  0
VERTEX
  8
1
 10
2151.448974609375
 20
439.5166015625000
  0
VERTEX
  8
1
 10
2141.829528808594
 20
436.7788696289063
  0
VERTEX
  8
1
 10
2117.224044799805
 20
430.7504272460938
  0
VERTEX
  8
1
 10
2092.545394897461
 20
424.9179077148438
  0
VERTEX
  8
1
 10
1660.369262695313
 20
343.9025878906250
  0
VERTEX
  8
1
 10
1651.044006347656
 20
340.1593017578125
  0
VERTEX
  8
1
 10
1634.795684814453
 20
394.2700195312500
  0
VERTEX
  8
1
 10
1626.998443603516
 20
421.8670654296875
  0
VERTEX
  8
1
 10
1624.106140136719
 20
432.6309204101563
  0
VERTEX
  8
1
 10
1617.787322998047
 20
457.7038574218750
  0
VERTEX
  8
1
 10
1614.000091552734
 20
474.3026733398438
  0
VERTEX
  8
1
 10
1610.001983642578
 20
493.9901733398438
  0
VERTEX
  8
1
 10
1606.726226806641
 20
512.9364013671875
  0
VERTEX
  8
1
 10
1606.165008544922
 20
516.5853881835938
  0
VERTEX
  8
1
 10
1603.599090576172
 20
535.6365966796875
  0
VERTEX
  8
1
 10
1601.235961914063
 20
558.1585693359375
  0
VERTEX
  8
1
 10
1599.103851318359
 20
585.2737426757813
  0
VERTEX
  8
1
 10
1598.828582763672
 20
589.4128417968750
  0
VERTEX
  8
1
 10
1597.350921630859
 20
616.0232543945313
  0
VERTEX
  8
1
 10
1596.914062500000
 20
627.5387573242188
  0
VERTEX
  8
1
 10
1596.352996826172
 20
659.1809082031250
  0
VERTEX
  8
1
 10
1596.278991699219
 20
668.5620117187500
  0
VERTEX
  8
1
 10
1596.832885742188
 20
706.7984008789063
  0
VERTEX
  8
1
 10
1596.916351318359
 20
709.5855712890625
  0
VERTEX
  8
1
 10
1598.272705078125
 20
738.7368774414063
  0
VERTEX
  8
1
 10
1598.832702636719
 20
747.7111816406250
  0
VERTEX
  8
1
 10
1600.985260009766
 20
776.1132812500000
  0
VERTEX
  8
1
 10
1602.937316894531
 20
795.7141113281250
  0
VERTEX
  8
1
 10
1605.402679443359
 20
815.2618408203125
  0
VERTEX
  8
1
 10
1606.172943115234
 20
820.5386352539063
  0
VERTEX
  8
1
 10
1609.304962158203
 20
839.3237304687500
  0
VERTEX
  8
1
 10
1614.010314941406
 20
862.8210449218750
  0
VERTEX
  8
1
 10
1619.366912841797
 20
885.8923339843750
  0
VERTEX
  8
1
 10
1624.118804931641
 20
904.4921875000000
  0
VERTEX
  8
1
 10
1633.602447509766
 20
938.6840820312500
  0
VERTEX
  8
1
 10
1647.105712890625
 20
983.9813232421875
  0
VERTEX
  8
1
 10
1651.062164306641
 20
996.9622802734375
  0
VERTEX
  8
1
 10
1660.386810302734
 20
993.2183837890625
  0
VERTEX
  8
1
 10
2092.558517456055
 20
912.1795654296875
  0
VERTEX
  8
1
 10
2117.236785888672
 20
906.3458251953125
  0
VERTEX
  8
1
 10
2141.841583251953
 20
900.3161621093750
  0
SEQEND
  0
POINT
  8
2
 10
2151.461029052734
 20
897.5778198242188
  0
POINT
  8
3
 10
2136.323852539063
 20
840.6591796875000
  0
POINT
  8
3
 10
2127.395858764648
 20
800.8248901367188
  0
POINT
  8
3
 10
2124.370193481445
 20
783.8473510742188
  0
POINT
  8
3
 10
2119.847488403320
 20
748.1988525390625
  0
POINT
  8
3
 10
2118.949890136719
 20
738.0197143554688
  0
POINT
  8
3
 10
2116.544952392578
 20
694.8794555664063
  0
POINT
  8
2
 10
2115.744400024414
 20
668.5479736328125
  0
POINT
  8
3
 10
2116.543579101563
 20
642.2171020507813
  0
POINT
  8
3
 10
2118.946075439453
 20
599.0765380859375
  0
POINT
  8
3
 10
2122.068328857422
 20
569.0740966796875
  0
POINT
  8
3
 10
2124.364013671875
 20
553.2485961914063
  0
POINT
  8
3
 10
2131.492919921875
 20
516.7504882812500
  0
POINT
  8
3
 10
2136.314544677734
 20
496.4358520507813
  0
POINT
  8
2
 10
2151.448974609375
 20
439.5166015625000
  0
POINT
  8
2
 10
2141.829528808594
 20
436.7788696289063
  0
POINT
  8
3
 10
2117.224044799805
 20
430.7504272460938
  0
POINT
  8
2
 10
2092.545394897461
 20
424.9179077148438
  0
POINT
  8
2
 10
1660.369262695313
 20
343.9025878906250
  0
POINT
  8
2
 10
1651.044006347656
 20
340.1593017578125
  0
POINT
  8
3
 10
1634.795684814453
 20
394.2700195312500
  0
POINT
  8
3
 10
1626.998443603516
 20
421.8670654296875
  0
POINT
  8
3
 10
1624.106140136719
 20
432.6309204101563
  0
POINT
  8
3
 10
1617.787322998047
 20
457.7038574218750
  0
POINT
  8
3
 10
1614.000091552734
 20
474.3026733398438
  0
POINT
  8
3
 10
1610.001983642578
 20
493.9901733398438
  0
POINT
  8
3
 10
1606.726226806641
 20
512.9364013671875
  0
POINT
  8
3
 10
1606.165008544922
 20
516.5853881835938
  0
POINT
  8
3
 10
1603.599090576172
 20
535.6365966796875
  0
POINT
  8
3
 10
1601.235961914063
 20
558.1585693359375
  0
POINT
  8
3
 10
1599.103851318359
 20
585.2737426757813
  0
POINT
  8
3
 10
1598.828582763672
 20
589.4128417968750
  0
POINT
  8
3
 10
1597.350921630859
 20
616.0232543945313
  0
POINT
  8
3
 10
1596.914062500000
 20
627.5387573242188
  0
POINT
  8
3
 10
1596.352996826172
 20
659.1809082031250
  0
POINT
  8
2
 10
1596.278991699219
 20
668.5620117187500
  0
POINT
  8
3
 10
1596.832885742188
 20
706.7984008789063
  0
POINT
  8
3
 10
1596.916351318359
 20
709.5855712890625
  0
POINT
  8
3
 10
1598.272705078125
 20
738.7368774414063
  0
POINT
  8
3
 10
1598.832702636719
 20
747.7111816406250
  0
POINT
  8
3
 10
1600.985260009766
 20
776.1132812500000
  0
POINT
  8
3
 10
1602.937316894531
 20
795.7141113281250
  0
POINT
  8
3
 10
1605.402679443359
 20
815.2618408203125
  0
POINT
  8
3
 10
1606.172943115234
 20
820.5386352539063
  0
POINT
  8
3
 10
1609.304962158203
 20
839.3237304687500
  0
POINT
  8
3
 10
1614.010314941406
 20
862.8210449218750
  0
POINT
  8
3
 10
1619.366912841797
 20
885.8923339843750
  0
POINT
  8
3
 10
1624.118804931641
 20
904.4921875000000
  0
POINT
  8
3
 10
1633.602447509766
 20
938.6840820312500
  0
POINT
  8
3
 10
1647.105712890625
 20
983.9813232421875
  0
POINT
  8
2
 10
1651.062164306641
 20
996.9622802734375
  0
POINT
  8
2
 10
1660.386810302734
 20
993.2183837890625
  0
POINT
  8
2
 10
2092.558517456055
 20
912.1795654296875
  0
POINT
  8
3
 10
2117.236785888672
 20
906.3458251953125
  0
POINT
  8
2
 10
2141.841583251953
 20
900.3161621093750
  0
ENDBLK
  0
BLOCK
  8
1
  2
8
 70
64
 10
0.0
 20
0.0
  0
TEXT
  8
1
 10
1595.334343910217
 20
225.4587054252625
 40
32.89999961853027
 50
0.0000000000000000
 51
0.0000000000000000
 71
0
  1
Piece Name: V - VL - TS x 2
  0
TEXT
  8
1
 10
1595.334343910217
 20
189.2687058448792
 40
32.89999961853027
 50
0.0000000000000000
 51
0.0000000000000000
 71
0
  1
Size: Base
  0
TEXT
  8
1
 10
1595.334343910217
 20
153.0787062644958
 40
32.89999961853027
 50
0.0000000000000000
 51
0.0000000000000000
 71
0
  1
Rotation: 90
  0
TEXT
  8
1
 10
1595.334343910217
 20
116.8887066841125
 40
32.89999961853027
 50
0.0000000000000000
 51
0.0000000000000000
 71
0
  1
Flip: NO
  0
LINE
  8
7
 10
2011.773071289063
 20
171.1621093750000
 11
1712.839660644531
 21
171.1621093750000
  0
POLYLINE
  8
1
 66
1
 70
1
  0
VERTEX
  8
1
 10
1634.632263183594
 20
340.8361816406250
  0
VERTEX
  8
1
 10
2077.976379394531
 20
255.9942626953125
  0
VERTEX
  8
1
 10
2102.607727050781
 20
249.9902343750000
  0
VERTEX
  8
1
 10
2136.378479003906
 20
241.6928100585938
  0
VERTEX
  8
1
 10
2123.652343750000
 20
181.3400268554688
  0
VERTEX
  8
1
 10
2115.620422363281
 20
137.7661132812500
  0
VERTEX
  8
1
 10
2113.906707763672
 20
125.8078002929688
  0
VERTEX
  8
1
 10
2109.925384521484
 20
83.38958740234375
  0
VERTEX
  8
1
 10
2109.779663085938
 20
81.15264892578125
  0
VERTEX
  8
1
 10
2106.458587646484
 20
4.868774414062500
  0
VERTEX
  8
1
 10
2081.410980224609
 20
2.472534179687500
  0
VERTEX
  8
1
 10
2078.259429931641
 20
2.242431640625000
  0
VERTEX
  8
1
 10
2060.258026123047
 20
1.274414062500000
  0
VERTEX
  8
1
 10
1606.292877197266
 20
2.120361328125000
  0
VERTEX
  8
1
 10
1596.295928955078
 20
2.406921386718750
  0
VERTEX
  8
1
 10
1597.144775390625
 20
57.92236328125000
  0
VERTEX
  8
1
 10
1598.184661865234
 20
95.37567138671875
  0
VERTEX
  8
1
 10
1599.469604492188
 20
123.5446166992188
  0
VERTEX
  8
1
 10
1600.068969726563
 20
133.5937500000000
  0
VERTEX
  8
1
 10
1602.070770263672
 20
159.9734497070313
  0
VERTEX
  8
1
 10
1604.462280273438
 20
183.4759521484375
  0
VERTEX
  8
1
 10
1607.518005371094
 20
206.9113159179688
  0
VERTEX
  8
1
 10
1607.837371826172
 20
209.0750122070313
  0
VERTEX
  8
1
 10
1611.716308593750
 20
232.5976562500000
  0
VERTEX
  8
1
 10
1616.480712890625
 20
257.2973632812500
  0
VERTEX
  8
1
 10
1619.280090332031
 20
270.5929565429688
  0
VERTEX
  8
1
 10
1627.873382568359
 20
308.4838867187500
  0
VERTEX
  8
1
 10
1633.193206787109
 20
330.9301757812500
  0
SEQEND
  0
POINT
  8
2
 10
1634.632263183594
 20
340.8361816406250
  0
POINT
  8
2
 10
2077.976379394531
 20
255.9942626953125
  0
POINT
  8
3
 10
2102.607727050781
 20
249.9902343750000
  0
POINT
  8
2
 10
2136.378479003906
 20
241.6928100585938
  0
POINT
  8
3
 10
2123.652343750000
 20
181.3400268554688
  0
POINT
  8
3
 10
2115.620422363281
 20
137.7661132812500
  0
POINT
  8
3
 10
2113.906707763672
 20
125.8078002929688
  0
POINT
  8
3
 10
2109.925384521484
 20
83.38958740234375
  0
POINT
  8
3
 10
2109.779663085938
 20
81.15264892578125
  0
POINT
  8
2
 10
2106.458587646484
 20
4.868774414062500
  0
POINT
  8
3
 10
2081.410980224609
 20
2.472534179687500
  0
POINT
  8
3
 10
2078.259429931641
 20
2.242431640625000
  0
POINT
  8
2
 10
2060.258026123047
 20
1.274414062500000
  0
POINT
  8
2
 10
1606.292877197266
 20
2.120361328125000
  0
POINT
  8
2
 10
1596.295928955078
 20
2.406921386718750
  0
POINT
  8
3
 10
1597.144775390625
 20
57.92236328125000
  0
POINT
  8
3
 10
1598.184661865234
 20
95.37567138671875
  0
POINT
  8
3
 10
1599.469604492188
 20
123.5446166992188
  0
POINT
  8
3
 10
1600.068969726563
 20
133.5937500000000
  0
POINT
  8
3
 10
1602.070770263672
 20
159.9734497070313
  0
POINT
  8
3
 10
1604.462280273438
 20
183.4759521484375
  0
POINT
  8
3
 10
1607.518005371094
 20
206.9113159179688
  0
POINT
  8
3
 10
1607.837371826172
 20
209.0750122070313
  0
POINT
  8
3
 10
1611.716308593750
 20
232.5976562500000
  0
POINT
  8
3
 10
1616.480712890625
 20
257.2973632812500
  0
POINT
  8
3
 10
1619.280090332031
 20
270.5929565429688
  0
POINT
  8
3
 10
1627.873382568359
 20
308.4838867187500
  0
POINT
  8
2
 10
1633.193206787109
 20
330.9301757812500
  0
ENDBLK
  0
BLOCK
  8
1
  2
9
 70
64
 10
0.0
 20
0.0
  0
TEXT
  8
1
 10
2262.671306070787
 20
518.3092029434447
 40
8.999999761581421
 50
270.0000553247587
 51
0.0000000000000000
 71
0
  1
Piece Name: V - 2VC + 1Keo - Lung Tubg Dap x 2
  0
TEXT
  8
1
 10
2252.771306333052
 20
518.3091933840128
 40
8.999999761581421
 50
270.0000553247587
 51
0.0000000000000000
 71
0
  1
Size: Base
  0
TEXT
  8
1
 10
2242.871306595317
 20
518.3091838245811
 40
8.999999761581421
 50
270.0000553247587
 51
0.0000000000000000
 71
0
  1
Rotation: 90
  0
TEXT
  8
1
 10
2232.971306857582
 20
518.3091742651493
 40
8.999999761581421
 50
270.0000553247587
 51
0.0000000000000000
 71
0
  1
Flip: NO
  0
POINT
  8
4
 10
2146.252365112305
 20
338.0496215820313
 30
6.999910948298140
 50
-4.628700703322738
 230
5.000000000000000
  0
POINT
  8
4
 10
2154.451141357422
 20
406.4505004882813
 30
6.999901089451094
 50
-9.472793978508520
 230
5.000000000000000
  0
LINE
  8
7
 10
2197.161407470703
 20
394.0734863281250
 11
2300.813140869141
 21
394.0734863281250
  0
POLYLINE
  8
1
 66
1
 70
1
  0
VERTEX
  8
1
 10
2141.199569702148
 20
223.7002563476563
  0
VERTEX
  8
1
 10
2142.617492675781
 20
273.6822509765625
  0
VERTEX
  8
1
 10
2143.911514282227
 20
303.6453247070313
  0
VERTEX
  8
1
 10
2145.497207641602
 20
329.2556762695313
  0
VERTEX
  8
1
 10
2147.820739746094
 20
356.2908935546875
  0
VERTEX
  8
1
 10
2149.072723388672
 20
367.9702758789063
  0
VERTEX
  8
1
 10
2151.647033691406
 20
388.1951904296875
  0
VERTEX
  8
1
 10
2154.451141357422
 20
406.4505004882813
  0
VERTEX
  8
1
 10
2158.032150268555
 20
426.1120605468750
  0
VERTEX
  8
1
 10
2159.778137207031
 20
434.6173095703125
  0
VERTEX
  8
1
 10
2163.919067382813
 20
452.7557373046875
  0
VERTEX
  8
1
 10
2168.579711914063
 20
470.8386230468750
  0
VERTEX
  8
1
 10
2175.367355346680
 20
494.4219970703125
  0
VERTEX
  8
1
 10
2179.116668701172
 20
506.5338134765625
  0
VERTEX
  8
1
 10
2188.243484497070
 20
534.3804931640625
  0
VERTEX
  8
1
 10
2199.308853149414
 20
566.6064453125000
  0
VERTEX
  8
1
 10
2262.284698486328
 20
549.4448852539063
  0
VERTEX
  8
1
 10
2290.663146972656
 20
541.3635253906250
  0
VERTEX
  8
1
 10
2335.332641601563
 20
527.9663085937500
  0
VERTEX
  8
1
 10
2382.077636718750
 20
513.4216308593750
  0
VERTEX
  8
1
 10
2359.821701049805
 20
447.1829223632813
  0
VERTEX
  8
1
 10
2348.957901000977
 20
408.5778808593750
  0
VERTEX
  8
1
 10
2344.838104248047
 20
390.4208374023438
  0
VERTEX
  8
1
 10
2340.218658447266
 20
364.0844726562500
  0
VERTEX
  8
1
 10
2338.588790893555
 20
352.1011352539063
  0
VERTEX
  8
1
 10
2334.862289428711
 20
313.0874633789063
  0
VERTEX
  8
1
 10
2332.039642333984
 20
252.4679565429688
  0
VERTEX
  8
1
 10
2331.281738281250
 20
223.7005615234375
  0
SEQEND
  0
POINT
  8
2
 10
2141.199569702148
 20
223.7002563476563
  0
POINT
  8
3
 10
2142.617492675781
 20
273.6822509765625
  0
POINT
  8
3
 10
2143.911514282227
 20
303.6453247070313
  0
POINT
  8
3
 10
2145.497207641602
 20
329.2556762695313
  0
POINT
  8
3
 10
2147.820739746094
 20
356.2908935546875
  0
POINT
  8
3
 10
2149.072723388672
 20
367.9702758789063
  0
POINT
  8
3
 10
2151.647033691406
 20
388.1951904296875
  0
POINT
  8
3
 10
2154.451141357422
 20
406.4505004882813
  0
POINT
  8
3
 10
2158.032150268555
 20
426.1120605468750
  0
POINT
  8
3
 10
2159.778137207031
 20
434.6173095703125
  0
POINT
  8
3
 10
2163.919067382813
 20
452.7557373046875
  0
POINT
  8
3
 10
2168.579711914063
 20
470.8386230468750
  0
POINT
  8
3
 10
2175.367355346680
 20
494.4219970703125
  0
POINT
  8
3
 10
2179.116668701172
 20
506.5338134765625
  0
POINT
  8
3
 10
2188.243484497070
 20
534.3804931640625
  0
POINT
  8
2
 10
2199.308853149414
 20
566.6064453125000
  0
POINT
  8
3
 10
2262.284698486328
 20
549.4448852539063
  0
POINT
  8
3
 10
2290.663146972656
 20
541.3635253906250
  0
POINT
  8
3
 10
2335.332641601563
 20
527.9663085937500
  0
POINT
  8
2
 10
2382.077636718750
 20
513.4216308593750
  0
POINT
  8
3
 10
2359.821701049805
 20
447.1829223632813
  0
POINT
  8
3
 10
2348.957901000977
 20
408.5778808593750
  0
POINT
  8
3
 10
2344.838104248047
 20
390.4208374023438
  0
POINT
  8
3
 10
2340.218658447266
 20
364.0844726562500
  0
POINT
  8
3
 10
2338.588790893555
 20
352.1011352539063
  0
POINT
  8
3
 10
2334.862289428711
 20
313.0874633789063
  0
POINT
  8
3
 10
2332.039642333984
 20
252.4679565429688
  0
POINT
  8
2
 10
2331.281738281250
 20
223.7005615234375
  0
ENDBLK
  0
BLOCK
  8
1
  2
10
 70
64
 10
0.0
 20
0.0
  0
TEXT
  8
1
 10
2692.793673759003
 20
75.61820262280864
 40
30.00000000000000
 50
179.8932527946947
 51
0.0000000000000000
 71
0
  1
Piece Name: V - 2VC + 1 Keo - Lung TT
  0
TEXT
  8
1
 10
2692.855155700031
 20
108.6181453495912
 40
30.00000000000000
 50
179.8932527946947
 51
0.0000000000000000
 71
0
  1
Size: Base
  0
TEXT
  8
1
 10
2692.916637641058
 20
141.6180880763737
 40
30.00000000000000
 50
179.8932527946947
 51
0.0000000000000000
 71
0
  1
Rotation: 90
  0
TEXT
  8
1
 10
2692.978119582086
 20
174.6180308031563
 40
30.00000000000000
 50
179.8932527946947
 51
0.0000000000000000
 71
0
  1
Flip: NO
  0
POINT
  8
4
 10
2359.993591308594
 20
30.63537597656250
 30
7.000122076964688
 50
89.99750214580710
 230
5.000000000000000
  0
LINE
  8
7
 10
2359.898376464844
 20
176.6960144042969
 11
2359.898376464844
 21
74.64492797851563
  0
POLYLINE
  8
1
 66
1
 70
1
  0
VERTEX
  8
1
 10
2593.296508789063
 20
183.8478088378906
  0
VERTEX
  8
1
 10
2576.032714843750
 20
120.9431457519531
  0
VERTEX
  8
1
 10
2567.709655761719
 20
91.91864013671875
  0
VERTEX
  8
1
 10
2554.442443847656
 20
47.97882080078125
  0
VERTEX
  8
1
 10
2539.822998046875
 20
1.289978027343750
  0
VERTEX
  8
1
 10
2489.430541992188
 20
14.16488647460938
  0
VERTEX
  8
1
 10
2448.346252441406
 20
22.87689208984375
  0
VERTEX
  8
1
 10
2443.198242187500
 20
23.76007080078125
  0
VERTEX
  8
1
 10
2411.091003417969
 20
28.04626464843750
  0
VERTEX
  8
1
 10
2391.313476562500
 20
29.65499877929688
  0
VERTEX
  8
1
 10
2373.524475097656
 20
30.42434692382813
  0
VERTEX
  8
1
 10
2359.993591308594
 20
30.63537597656250
  0
VERTEX
  8
1
 10
2346.463012695313
 20
30.42434692382813
  0
VERTEX
  8
1
 10
2313.047790527344
 20
28.44894409179688
  0
VERTEX
  8
1
 10
2308.896484375000
 20
28.04626464843750
  0
VERTEX
  8
1
 10
2271.729125976563
 20
22.89230346679688
  0
VERTEX
  8
1
 10
2256.253356933594
 20
19.92477416992188
  0
VERTEX
  8
1
 10
2230.556945800781
 20
14.16503906250000
  0
VERTEX
  8
1
 10
2180.164489746094
 20
1.289825439453125
  0
VERTEX
  8
1
 10
2160.759277343750
 20
63.56735229492188
  0
VERTEX
  8
1
 10
2152.277832031250
 20
91.91879272460938
  0
VERTEX
  8
1
 10
2139.573669433594
 20
136.6505432128906
  0
VERTEX
  8
1
 10
2126.690979003906
 20
183.8482666015625
  0
VERTEX
  8
1
 10
2172.454528808594
 20
196.2391662597656
  0
VERTEX
  8
1
 10
2184.352416992188
 20
199.2837524414063
  0
VERTEX
  8
1
 10
2207.541198730469
 20
204.8271179199219
  0
VERTEX
  8
1
 10
2224.099731445313
 20
208.3354187011719
  0
VERTEX
  8
1
 10
2242.529296875000
 20
211.6519165039063
  0
VERTEX
  8
1
 10
2262.822875976563
 20
214.4999694824219
  0
VERTEX
  8
1
 10
2287.675476074219
 20
217.1302795410156
  0
VERTEX
  8
1
 10
2289.814453125000
 20
217.3265075683594
  0
VERTEX
  8
1
 10
2314.530029296875
 20
219.2822265625000
  0
VERTEX
  8
1
 10
2334.445190429688
 20
220.2719116210938
  0
VERTEX
  8
1
 10
2359.993896484375
 20
220.7131958007813
  0
VERTEX
  8
1
 10
2385.542602539063
 20
220.2719116210938
  0
VERTEX
  8
1
 10
2404.560546875000
 20
219.3399047851563
  0
VERTEX
  8
1
 10
2430.173339843750
 20
217.3265075683594
  0
VERTEX
  8
1
 10
2453.500366210938
 20
214.9374389648438
  0
VERTEX
  8
1
 10
2470.033264160156
 20
212.7859497070313
  0
VERTEX
  8
1
 10
2477.458496093750
 20
211.6519165039063
  0
VERTEX
  8
1
 10
2497.106628417969
 20
208.0929565429688
  0
VERTEX
  8
1
 10
2517.117614746094
 20
203.7622070312500
  0
VERTEX
  8
1
 10
2535.635070800781
 20
199.2839050292969
  0
VERTEX
  8
1
 10
2569.788818359375
 20
190.3039550781250
  0
SEQEND
  0
POINT
  8
2
 10
2593.296508789063
 20
183.8478088378906
  0
POINT
  8
3
 10
2576.032714843750
 20
120.9431457519531
  0
POINT
  8
3
 10
2567.709655761719
 20
91.91864013671875
  0
POINT
  8
3
 10
2554.442443847656
 20
47.97882080078125
  0
POINT
  8
2
 10
2539.822998046875
 20
1.289978027343750
  0
POINT
  8
3
 10
2489.430541992188
 20
14.16488647460938
  0
POINT
  8
3
 10
2448.346252441406
 20
22.87689208984375
  0
POINT
  8
3
 10
2443.198242187500
 20
23.76007080078125
  0
POINT
  8
3
 10
2411.091003417969
 20
28.04626464843750
  0
POINT
  8
3
 10
2391.313476562500
 20
29.65499877929688
  0
POINT
  8
3
 10
2373.524475097656
 20
30.42434692382813
  0
POINT
  8
2
 10
2359.993591308594
 20
30.63537597656250
  0
POINT
  8
3
 10
2346.463012695313
 20
30.42434692382813
  0
POINT
  8
3
 10
2313.047790527344
 20
28.44894409179688
  0
POINT
  8
3
 10
2308.896484375000
 20
28.04626464843750
  0
POINT
  8
3
 10
2271.729125976563
 20
22.89230346679688
  0
POINT
  8
3
 10
2256.253356933594
 20
19.92477416992188
  0
POINT
  8
3
 10
2230.556945800781
 20
14.16503906250000
  0
POINT
  8
2
 10
2180.164489746094
 20
1.289825439453125
  0
POINT
  8
3
 10
2160.759277343750
 20
63.56735229492188
  0
POINT
  8
3
 10
2152.277832031250
 20
91.91879272460938
  0
POINT
  8
3
 10
2139.573669433594
 20
136.6505432128906
  0
POINT
  8
2
 10
2126.690979003906
 20
183.8482666015625
  0
POINT
  8
3
 10
2172.454528808594
 20
196.2391662597656
  0
POINT
  8
3
 10
2184.352416992188
 20
199.2837524414063
  0
POINT
  8
3
 10
2207.541198730469
 20
204.8271179199219
  0
POINT
  8
3
 10
2224.099731445313
 20
208.3354187011719
  0
POINT
  8
3
 10
2242.529296875000
 20
211.6519165039063
  0
POINT
  8
3
 10
2262.822875976563
 20
214.4999694824219
  0
POINT
  8
3
 10
2287.675476074219
 20
217.1302795410156
  0
POINT
  8
3
 10
2289.814453125000
 20
217.3265075683594
  0
POINT
  8
3
 10
2314.530029296875
 20
219.2822265625000
  0
POINT
  8
3
 10
2334.445190429688
 20
220.2719116210938
  0
POINT
  8
2
 10
2359.993896484375
 20
220.7131958007813
  0
POINT
  8
3
 10
2385.542602539063
 20
220.2719116210938
  0
POINT
  8
3
 10
2404.560546875000
 20
219.3399047851563
  0
POINT
  8
3
 10
2430.173339843750
 20
217.3265075683594
  0
POINT
  8
3
 10
2453.500366210938
 20
214.9374389648438
  0
POINT
  8
3
 10
2470.033264160156
 20
212.7859497070313
  0
POINT
  8
3
 10
2477.458496093750
 20
211.6519165039063
  0
POINT
  8
3
 10
2497.106628417969
 20
208.0929565429688
  0
POINT
  8
3
 10
2517.117614746094
 20
203.7622070312500
  0
POINT
  8
3
 10
2535.635070800781
 20
199.2839050292969
  0
POINT
  8
3
 10
2569.788818359375
 20
190.3039550781250
  0
ENDBLK
  0
BLOCK
  8
1
  2
11
 70
64
 10
0.0
 20
0.0
  0
TEXT
  8
1
 10
2141.116230056350
 20
1413.301253683703
 40
25.37629842758179
 50
269.9999877756042
 51
0.0000000000000000
 71
0
  1
Piece Name: VC - TS x 1
  0
TEXT
  8
1
 10
2113.202301786011
 20
1413.301259639306
 40
25.37629842758179
 50
269.9999877756042
 51
0.0000000000000000
 71
0
  1
Size: Base
  0
TEXT
  8
1
 10
2085.288373515672
 20
1413.301265594909
 40
25.37629842758179
 50
269.9999877756042
 51
0.0000000000000000
 71
0
  1
Rotation: 90
  0
TEXT
  8
1
 10
2057.374445245332
 20
1413.301271550512
 40
25.37629842758179
 50
269.9999877756042
 51
0.0000000000000000
 71
0
  1
Flip: NO
  0
POINT
  8
4
 10
2358.322143554688
 20
1277.131042480469
 30
6.999869224391650
 50
-144.5925578132458
 230
5.000000000000000
  0
POINT
  8
4
 10
2475.901794433594
 20
1206.993103027344
 30
6.999891624745294
 50
-142.7351754778534
 230
5.000000000000000
  0
POINT
  8
4
 10
2283.049163818359
 20
951.5827941894531
 30
6.999877371948575
 50
103.3649576050395
 230
5.000000000000000
  0
POINT
  8
4
 10
1916.595764160156
 20
951.5827941894531
 30
7.000025827456515
 50
76.63533109205687
 230
5.000000000000000
  0
POINT
  8
4
 10
1723.742980957031
 20
1206.993103027344
 30
7.000105453126904
 50
-37.26506225029053
 230
5.000000000000000
  0
POINT
  8
4
 10
1841.322631835938
 20
1277.130889892578
 30
7.000029557721285
 50
-35.40497698860339
 230
5.000000000000000
  0
TEXT
  8
8
 10
2405.259453172669
 20
1224.806012974321
 40
10.00000000000000
 50
180.4814172322263
 51
0.0000000000000000
 71
0
  1
Nach
  0
TEXT
  8
8
 10
2084.752403612122
 20
1029.120588169634
 40
10.00000000000000
 50
180.4814172322263
 51
0.0000000000000000
 71
0
  1
Xe tru  + vien
  0
POLYLINE
  8
8
 66
1
 70
0
  0
VERTEX
  8
8
 10
2099.802246093750
 20
1021.856842041016
  0
VERTEX
  8
8
 10
2103.330688476563
 20
1021.855926513672
  0
VERTEX
  8
8
 10
2099.842529296875
 20
1021.856842041016
  0
SEQEND
  0
POINT
  8
2
 10
2099.802246093750
 20
1021.856842041016
  0
POINT
  8
2
 10
2103.330688476563
 20
1021.855926513672
  0
POINT
  8
2
 10
2099.842529296875
 20
1021.856842041016
  0
POLYLINE
  8
8
 66
1
 70
0
  0
VERTEX
  8
8
 10
2099.822387695313
 20
992.3973083496094
  0
VERTEX
  8
8
 10
2099.823303222656
 20
1090.330657958984
  0
VERTEX
  8
8
 10
2092.727050781250
 20
1069.361114501953
  0
SEQEND
  0
POINT
  8
2
 10
2099.822387695313
 20
992.3973083496094
  0
POINT
  8
2
 10
2099.823303222656
 20
1090.330657958984
  0
POINT
  8
2
 10
2092.727050781250
 20
1069.361114501953
  0
LINE
  8
8
 10
2099.823303222656
 20
1090.330657958984
 11
2107.301635742188
 21
1069.597625732422
  0
POINT
  8
2
 10
2099.823303222656
 20
1090.330657958984
  0
POINT
  8
2
 10
2107.301635742188
 20
1069.597625732422
  0
LINE
  8
7
 10
2099.245605468750
 20
1385.729827880859
 11
2099.245605468750
 21
1090.679321289063
  0
POLYLINE
  8
1
 66
1
 70
1
  0
VERTEX
  8
1
 10
2352.648315429688
 20
1487.297668457031
  0
VERTEX
  8
1
 10
2351.332855224609
 20
1312.443084716797
  0
VERTEX
  8
1
 10
2351.615753173828
 20
1301.789093017578
  0
VERTEX
  8
1
 10
2351.677856445313
 20
1301.023712158203
  0
VERTEX
  8
1
 10
2352.485809326172
 20
1294.841918945313
  0
VERTEX
  8
1
 10
2352.673492431641
 20
1293.818817138672
  0
VERTEX
  8
1
 10
2353.190765380859
 20
1291.357269287109
  0
VERTEX
  8
1
 10
2354.125213623047
 20
1287.748260498047
  0
VERTEX
  8
1
 10
2354.738616943359
 20
1285.760040283203
  0
VERTEX
  8
1
 10
2355.788574218750
 20
1282.823791503906
  0
VERTEX
  8
1
 10
2356.403198242188
 20
1281.311798095703
  0
VERTEX
  8
1
 10
2358.322143554688
 20
1277.131042480469
  0
VERTEX
  8
1
 10
2372.661590576172
 20
1263.420257568359
  0
VERTEX
  8
1
 10
2374.161682128906
 20
1262.113189697266
  0
VERTEX
  8
1
 10
2386.591339111328
 20
1252.345733642578
  0
VERTEX
  8
1
 10
2389.824371337891
 20
1250.066375732422
  0
VERTEX
  8
1
 10
2394.482421875000
 20
1246.939086914063
  0
VERTEX
  8
1
 10
2409.997711181641
 20
1237.608489990234
  0
VERTEX
  8
1
 10
2418.362579345703
 20
1233.104248046875
  0
VERTEX
  8
1
 10
2449.006347656250
 20
1218.507690429688
  0
VERTEX
  8
1
 10
2476.172943115234
 20
1206.878814697266
  0
VERTEX
  8
1
 10
2479.747009277344
 20
1178.715972900391
  0
VERTEX
  8
1
 10
2482.267608642578
 20
1154.718627929688
  0
VERTEX
  8
1
 10
2483.549804687500
 20
1136.611328125000
  0
VERTEX
  8
1
 10
2483.969726562500
 20
1121.259613037109
  0
VERTEX
  8
1
 10
2483.736877441406
 20
1109.475860595703
  0
VERTEX
  8
1
 10
2482.969665527344
 20
1098.299255371094
  0
VERTEX
  8
1
 10
2482.093658447266
 20
1090.735626220703
  0
VERTEX
  8
1
 10
2481.611175537109
 20
1087.443542480469
  0
VERTEX
  8
1
 10
2479.660491943359
 20
1077.163085937500
  0
VERTEX
  8
1
 10
2478.640136718750
 20
1072.929992675781
  0
VERTEX
  8
1
 10
2476.808166503906
 20
1066.477355957031
  0
VERTEX
  8
1
 10
2474.924011230469
 20
1060.892944335938
  0
VERTEX
  8
1
 10
2472.799530029297
 20
1055.470581054688
  0
VERTEX
  8
1
 10
2470.405426025391
 20
1050.161132812500
  0
VERTEX
  8
1
 10
2468.675384521484
 20
1046.731567382813
  0
VERTEX
  8
1
 10
2465.953063964844
 20
1041.878051757813
  0
VERTEX
  8
1
 10
2463.009948730469
 20
1037.218170166016
  0
VERTEX
  8
1
 10
2460.914764404297
 20
1034.200744628906
  0
VERTEX
  8
1
 10
2456.637268066406
 20
1028.668518066406
  0
VERTEX
  8
1
 10
2455.140533447266
 20
1026.903533935547
  0
VERTEX
  8
1
 10
2449.816589355469
 20
1021.186981201172
  0
VERTEX
  8
1
 10
2447.013397216797
 20
1018.464202880859
  0
VERTEX
  8
1
 10
2439.649353027344
 20
1012.019805908203
  0
VERTEX
  8
1
 10
2438.844146728516
 20
1011.367034912109
  0
VERTEX
  8
1
 10
2430.627288818359
 20
1005.174560546875
  0
VERTEX
  8
1
 10
2424.813842773438
 20
1001.241607666016
  0
VERTEX
  8
1
 10
2418.226013183594
 20
997.1569824218750
  0
VERTEX
  8
1
 10
2407.557678222656
 20
991.2442016601563
  0
VERTEX
  8
1
 10
2398.046417236328
 20
986.5945434570313
  0
VERTEX
  8
1
 10
2397.082061767578
 20
986.1521911621094
  0
VERTEX
  8
1
 10
2384.659423828125
 20
980.8732604980469
  0
VERTEX
  8
1
 10
2375.297851562500
 20
977.3423767089844
  0
VERTEX
  8
1
 10
2359.840850830078
 20
972.1701049804688
  0
VERTEX
  8
1
 10
2339.098815917969
 20
966.1160278320313
  0
VERTEX
  8
1
 10
2331.488342285156
 20
964.0481567382813
  0
VERTEX
  8
1
 10
2283.049163818359
 20
951.5827941894531
  0
VERTEX
  8
1
 10
2175.589752197266
 20
927.5643920898438
  0
VERTEX
  8
1
 10
2167.645721435547
 20
950.2838134765625
  0
VERTEX
  8
1
 10
2166.460723876953
 20
953.0445861816406
  0
VERTEX
  8
1
 10
2165.084533691406
 20
956.0371398925781
  0
VERTEX
  8
1
 10
2163.013153076172
 20
960.0866699218750
  0
VERTEX
  8
1
 10
2162.098999023438
 20
961.6664123535156
  0
VERTEX
  8
1
 10
2160.809326171875
 20
963.6747741699219
  0
VERTEX
  8
1
 10
2160.077362060547
 20
964.7058105468750
  0
VERTEX
  8
1
 10
2159.106292724609
 20
965.9649658203125
  0
VERTEX
  8
1
 10
2158.083190917969
 20
967.1702575683594
  0
VERTEX
  8
1
 10
2157.007293701172
 20
968.3164978027344
  0
VERTEX
  8
1
 10
2156.165466308594
 20
969.1345214843750
  0
VERTEX
  8
1
 10
2155.603332519531
 20
969.6446228027344
  0
VERTEX
  8
1
 10
2154.994201660156
 20
970.1669311523438
  0
VERTEX
  8
1
 10
2153.313293457031
 20
971.4665222167969
  0
VERTEX
  8
1
 10
2152.884826660156
 20
971.7691040039063
  0
VERTEX
  8
1
 10
2152.012634277344
 20
972.3533630371094
  0
VERTEX
  8
1
 10
2150.229492187500
 20
973.4327697753906
  0
VERTEX
  8
1
 10
2149.595336914063
 20
973.7838745117188
  0
VERTEX
  8
1
 10
2148.403320312500
 20
974.4030761718750
  0
VERTEX
  8
1
 10
2145.845031738281
 20
975.5766296386719
  0
VERTEX
  8
1
 10
2143.895568847656
 20
976.3537597656250
  0
VERTEX
  8
1
 10
2142.277526855469
 20
976.9364929199219
  0
VERTEX
  8
1
 10
2138.428649902344
 20
978.1384277343750
  0
VERTEX
  8
1
 10
2135.565795898438
 20
978.8853454589844
  0
VERTEX
  8
1
 10
2132.677307128906
 20
979.5283508300781
  0
VERTEX
  8
1
 10
2126.840515136719
 20
980.5426025390625
  0
VERTEX
  8
1
 10
2124.022827148438
 20
980.9182739257813
  0
VERTEX
  8
1
 10
2111.914978027344
 20
981.9271850585938
  0
VERTEX
  8
1
 10
2099.822387695313
 20
982.3791503906250
  0
VERTEX
  8
1
 10
2075.622253417969
 20
980.9182739257813
  0
VERTEX
  8
1
 10
2072.829284667969
 20
980.5462646484375
  0
VERTEX
  8
1
 10
2067.122192382813
 20
979.5599365234375
  0
VERTEX
  8
1
 10
2064.299926757813
 20
978.9382934570313
  0
VERTEX
  8
1
 10
2061.503906250000
 20
978.2189941406250
  0
VERTEX
  8
1
 10
2057.367248535156
 20
976.9366455078125
  0
VERTEX
  8
1
 10
2056.006164550781
 20
976.4498901367188
  0
VERTEX
  8
1
 10
2052.626342773438
 20
975.0622558593750
  0
VERTEX
  8
1
 10
2050.983276367188
 20
974.2730712890625
  0
VERTEX
  8
1
 10
2050.049438476563
 20
973.7838745117188
  0
VERTEX
  8
1
 10
2048.034057617188
 20
972.6094055175781
  0
VERTEX
  8
1
 10
2046.736145019531
 20
971.7524719238281
  0
VERTEX
  8
1
 10
2045.487976074219
 20
970.8383178710938
  0
VERTEX
  8
1
 10
2044.294128417969
 20
969.8649597167969
  0
VERTEX
  8
1
 10
2044.041442871094
 20
969.6446228027344
  0
VERTEX
  8
1
 10
2042.790527343750
 20
968.4703063964844
  0
VERTEX
  8
1
 10
2042.073669433594
 20
967.7305603027344
  0
VERTEX
  8
1
 10
2040.726623535156
 20
966.1952209472656
  0
VERTEX
  8
1
 10
2040.407714843750
 20
965.8020019531250
  0
VERTEX
  8
1
 10
2038.835754394531
 20
963.6746215820313
  0
VERTEX
  8
1
 10
2038.622131347656
 20
963.3596801757813
  0
VERTEX
  8
1
 10
2036.666259765625
 20
960.1484680175781
  0
VERTEX
  8
1
 10
2035.951232910156
 20
958.8249206542969
  0
VERTEX
  8
1
 10
2034.560241699219
 20
956.0371398925781
  0
VERTEX
  8
1
 10
2032.150573730469
 20
950.6469726562500
  0
VERTEX
  8
1
 10
2029.939880371094
 20
945.0598144531250
  0
VERTEX
  8
1
 10
2024.055175781250
 20
927.5645446777344
  0
VERTEX
  8
1
 10
1916.595764160156
 20
951.5827941894531
  0
VERTEX
  8
1
 10
1868.992004394531
 20
963.8241577148438
  0
VERTEX
  8
1
 10
1868.156433105469
 20
964.0483093261719
  0
VERTEX
  8
1
 10
1848.387756347656
 20
969.5692443847656
  0
VERTEX
  8
1
 10
1833.211059570313
 20
974.2889404296875
  0
VERTEX
  8
1
 10
1824.346923828125
 20
977.3422241210938
  0
VERTEX
  8
1
 10
1811.825256347656
 20
982.1469116210938
  0
VERTEX
  8
1
 10
1802.562866210938
 20
986.1523437500000
  0
VERTEX
  8
1
 10
1791.020202636719
 20
991.8005371093750
  0
VERTEX
  8
1
 10
1783.951110839844
 20
995.6797790527344
  0
VERTEX
  8
1
 10
1781.418762207031
 20
997.1569824218750
  0
VERTEX
  8
1
 10
1771.240539550781
 20
1003.630828857422
  0
VERTEX
  8
1
 10
1767.307739257813
 20
1006.397552490234
  0
VERTEX
  8
1
 10
1760.800476074219
 20
1011.366882324219
  0
VERTEX
  8
1
 10
1755.041503906250
 20
1016.252136230469
  0
VERTEX
  8
1
 10
1750.592041015625
 20
1020.427703857422
  0
VERTEX
  8
1
 10
1746.359252929688
 20
1024.819641113281
  0
VERTEX
  8
1
 10
1743.007507324219
 20
1028.668670654297
  0
VERTEX
  8
1
 10
1740.106506347656
 20
1032.335357666016
  0
VERTEX
  8
1
 10
1736.907958984375
 20
1036.811828613281
  0
VERTEX
  8
1
 10
1733.947753906250
 20
1041.450347900391
  0
VERTEX
  8
1
 10
1731.229248046875
 20
1046.241607666016
  0
VERTEX
  8
1
 10
1730.969543457031
 20
1046.731719970703
  0
VERTEX
  8
1
 10
1727.102050781250
 20
1054.864501953125
  0
VERTEX
  8
1
 10
1726.358947753906
 20
1056.645202636719
  0
VERTEX
  8
1
 10
1723.075561523438
 20
1065.719757080078
  0
VERTEX
  8
1
 10
1722.836914062500
 20
1066.477355957031
  0
VERTEX
  8
1
 10
1720.274963378906
 20
1075.899047851563
  0
VERTEX
  8
1
 10
1719.351806640625
 20
1080.111083984375
  0
VERTEX
  8
1
 10
1718.033752441406
 20
1087.443695068359
  0
VERTEX
  8
1
 10
1716.903991699219
 20
1096.044311523438
  0
VERTEX
  8
1
 10
1716.084594726563
 20
1106.001586914063
  0
VERTEX
  8
1
 10
1715.907897949219
 20
1109.476013183594
  0
VERTEX
  8
1
 10
1715.683593750000
 20
1122.845153808594
  0
VERTEX
  8
1
 10
1716.149291992188
 20
1137.667388916016
  0
VERTEX
  8
1
 10
1717.377319335938
 20
1154.718627929688
  0
VERTEX
  8
1
 10
1720.071105957031
 20
1180.169525146484
  0
VERTEX
  8
1
 10
1723.471984863281
 20
1206.878967285156
  0
VERTEX
  8
1
 10
1766.894531250000
 20
1225.947113037109
  0
VERTEX
  8
1
 10
1781.282348632813
 20
1233.104095458984
  0
VERTEX
  8
1
 10
1798.281250000000
 20
1242.616577148438
  0
VERTEX
  8
1
 10
1805.162353515625
 20
1246.938934326172
  0
VERTEX
  8
1
 10
1814.735412597656
 20
1253.569641113281
  0
VERTEX
  8
1
 10
1821.004638671875
 20
1258.389129638672
  0
VERTEX
  8
1
 10
1826.983337402344
 20
1263.420257568359
  0
VERTEX
  8
1
 10
1835.702209472656
 20
1271.571655273438
  0
VERTEX
  8
1
 10
1841.322631835938
 20
1277.130889892578
  0
VERTEX
  8
1
 10
1843.241882324219
 20
1281.311950683594
  0
VERTEX
  8
1
 10
1843.856201171875
 20
1282.823791503906
  0
VERTEX
  8
1
 10
1845.221557617188
 20
1286.751251220703
  0
VERTEX
  8
1
 10
1845.801391601563
 20
1288.750000000000
  0
VERTEX
  8
1
 10
1846.454162597656
 20
1291.357269287109
  0
VERTEX
  8
1
 10
1847.159118652344
 20
1294.841766357422
  0
VERTEX
  8
1
 10
1847.630920410156
 20
1297.924804687500
  0
VERTEX
  8
1
 10
1848.029174804688
 20
1301.788940429688
  0
VERTEX
  8
1
 10
1848.214416503906
 20
1305.169372558594
  0
VERTEX
  8
1
 10
1848.311767578125
 20
1312.442932128906
  0
VERTEX
  8
1
 10
1846.996765136719
 20
1487.297515869141
  0
VERTEX
  8
1
 10
1925.359802246094
 20
1492.914276123047
  0
VERTEX
  8
1
 10
1941.773071289063
 20
1493.968658447266
  0
VERTEX
  8
1
 10
1990.357360839844
 20
1496.625823974609
  0
VERTEX
  8
1
 10
2027.810363769531
 20
1498.019104003906
  0
VERTEX
  8
1
 10
2069.887695312500
 20
1498.801879882813
  0
VERTEX
  8
1
 10
2099.822387695313
 20
1499.082794189453
  0
VERTEX
  8
1
 10
2157.685546875000
 20
1498.361358642578
  0
VERTEX
  8
1
 10
2171.834411621094
 20
1498.018798828125
  0
VERTEX
  8
1
 10
2208.287658691406
 20
1496.671142578125
  0
VERTEX
  8
1
 10
2251.628723144531
 20
1494.352111816406
  0
VERTEX
  8
1
 10
2257.871856689453
 20
1493.968658447266
  0
VERTEX
  8
1
 10
2323.794860839844
 20
1489.435272216797
  0
SEQEND
  0
POINT
  8
2
 10
2352.648315429688
 20
1487.297668457031
  0
POINT
  8
2
 10
2351.332855224609
 20
1312.443084716797
  0
POINT
  8
3
 10
2351.615753173828
 20
1301.789093017578
  0
POINT
  8
3
 10
2351.677856445313
 20
1301.023712158203
  0
POINT
  8
3
 10
2352.485809326172
 20
1294.841918945313
  0
POINT
  8
3
 10
2352.673492431641
 20
1293.818817138672
  0
POINT
  8
3
 10
2353.190765380859
 20
1291.357269287109
  0
POINT
  8
3
 10
2354.125213623047
 20
1287.748260498047
  0
POINT
  8
3
 10
2354.738616943359
 20
1285.760040283203
  0
POINT
  8
3
 10
2355.788574218750
 20
1282.823791503906
  0
POINT
  8
3
 10
2356.403198242188
 20
1281.311798095703
  0
POINT
  8
2
 10
2358.322143554688
 20
1277.131042480469
  0
POINT
  8
3
 10
2372.661590576172
 20
1263.420257568359
  0
POINT
  8
3
 10
2374.161682128906
 20
1262.113189697266
  0
POINT
  8
3
 10
2386.591339111328
 20
1252.345733642578
  0
POINT
  8
3
 10
2389.824371337891
 20
1250.066375732422
  0
POINT
  8
3
 10
2394.482421875000
 20
1246.939086914063
  0
POINT
  8
3
 10
2409.997711181641
 20
1237.608489990234
  0
POINT
  8
3
 10
2418.362579345703
 20
1233.104248046875
  0
POINT
  8
3
 10
2449.006347656250
 20
1218.507690429688
  0
POINT
  8
2
 10
2476.172943115234
 20
1206.878814697266
  0
POINT
  8
3
 10
2479.747009277344
 20
1178.715972900391
  0
POINT
  8
3
 10
2482.267608642578
 20
1154.718627929688
  0
POINT
  8
3
 10
2483.549804687500
 20
1136.611328125000
  0
POINT
  8
3
 10
2483.969726562500
 20
1121.259613037109
  0
POINT
  8
3
 10
2483.736877441406
 20
1109.475860595703
  0
POINT
  8
3
 10
2482.969665527344
 20
1098.299255371094
  0
POINT
  8
3
 10
2482.093658447266
 20
1090.735626220703
  0
POINT
  8
3
 10
2481.611175537109
 20
1087.443542480469
  0
POINT
  8
3
 10
2479.660491943359
 20
1077.163085937500
  0
POINT
  8
3
 10
2478.640136718750
 20
1072.929992675781
  0
POINT
  8
3
 10
2476.808166503906
 20
1066.477355957031
  0
POINT
  8
3
 10
2474.924011230469
 20
1060.892944335938
  0
POINT
  8
3
 10
2472.799530029297
 20
1055.470581054688
  0
POINT
  8
3
 10
2470.405426025391
 20
1050.161132812500
  0
POINT
  8
3
 10
2468.675384521484
 20
1046.731567382813
  0
POINT
  8
3
 10
2465.953063964844
 20
1041.878051757813
  0
POINT
  8
3
 10
2463.009948730469
 20
1037.218170166016
  0
POINT
  8
3
 10
2460.914764404297
 20
1034.200744628906
  0
POINT
  8
3
 10
2456.637268066406
 20
1028.668518066406
  0
POINT
  8
3
 10
2455.140533447266
 20
1026.903533935547
  0
POINT
  8
3
 10
2449.816589355469
 20
1021.186981201172
  0
POINT
  8
3
 10
2447.013397216797
 20
1018.464202880859
  0
POINT
  8
3
 10
2439.649353027344
 20
1012.019805908203
  0
POINT
  8
3
 10
2438.844146728516
 20
1011.367034912109
  0
POINT
  8
3
 10
2430.627288818359
 20
1005.174560546875
  0
POINT
  8
3
 10
2424.813842773438
 20
1001.241607666016
  0
POINT
  8
3
 10
2418.226013183594
 20
997.1569824218750
  0
POINT
  8
3
 10
2407.557678222656
 20
991.2442016601563
  0
POINT
  8
3
 10
2398.046417236328
 20
986.5945434570313
  0
POINT
  8
3
 10
2397.082061767578
 20
986.1521911621094
  0
POINT
  8
3
 10
2384.659423828125
 20
980.8732604980469
  0
POINT
  8
3
 10
2375.297851562500
 20
977.3423767089844
  0
POINT
  8
3
 10
2359.840850830078
 20
972.1701049804688
  0
POINT
  8
3
 10
2339.098815917969
 20
966.1160278320313
  0
POINT
  8
3
 10
2331.488342285156
 20
964.0481567382813
  0
POINT
  8
2
 10
2283.049163818359
 20
951.5827941894531
  0
POINT
  8
2
 10
2175.589752197266
 20
927.5643920898438
  0
POINT
  8
3
 10
2167.645721435547
 20
950.2838134765625
  0
POINT
  8
3
 10
2166.460723876953
 20
953.0445861816406
  0
POINT
  8
3
 10
2165.084533691406
 20
956.0371398925781
  0
POINT
  8
3
 10
2163.013153076172
 20
960.0866699218750
  0
POINT
  8
3
 10
2162.098999023438
 20
961.6664123535156
  0
POINT
  8
3
 10
2160.809326171875
 20
963.6747741699219
  0
POINT
  8
3
 10
2160.077362060547
 20
964.7058105468750
  0
POINT
  8
3
 10
2159.106292724609
 20
965.9649658203125
  0
POINT
  8
3
 10
2158.083190917969
 20
967.1702575683594
  0
POINT
  8
3
 10
2157.007293701172
 20
968.3164978027344
  0
POINT
  8
3
 10
2156.165466308594
 20
969.1345214843750
  0
POINT
  8
3
 10
2155.603332519531
 20
969.6446228027344
  0
POINT
  8
3
 10
2154.994201660156
 20
970.1669311523438
  0
POINT
  8
3
 10
2153.313293457031
 20
971.4665222167969
  0
POINT
  8
3
 10
2152.884826660156
 20
971.7691040039063
  0
POINT
  8
3
 10
2152.012634277344
 20
972.3533630371094
  0
POINT
  8
3
 10
2150.229492187500
 20
973.4327697753906
  0
POINT
  8
3
 10
2149.595336914063
 20
973.7838745117188
  0
POINT
  8
3
 10
2148.403320312500
 20
974.4030761718750
  0
POINT
  8
3
 10
2145.845031738281
 20
975.5766296386719
  0
POINT
  8
3
 10
2143.895568847656
 20
976.3537597656250
  0
POINT
  8
3
 10
2142.277526855469
 20
976.9364929199219
  0
POINT
  8
3
 10
2138.428649902344
 20
978.1384277343750
  0
POINT
  8
3
 10
2135.565795898438
 20
978.8853454589844
  0
POINT
  8
3
 10
2132.677307128906
 20
979.5283508300781
  0
POINT
  8
3
 10
2126.840515136719
 20
980.5426025390625
  0
POINT
  8
3
 10
2124.022827148438
 20
980.9182739257813
  0
POINT
  8
3
 10
2111.914978027344
 20
981.9271850585938
  0
POINT
  8
2
 10
2099.822387695313
 20
982.3791503906250
  0
POINT
  8
3
 10
2075.622253417969
 20
980.9182739257813
  0
POINT
  8
3
 10
2072.829284667969
 20
980.5462646484375
  0
POINT
  8
3
 10
2067.122192382813
 20
979.5599365234375
  0
POINT
  8
3
 10
2064.299926757813
 20
978.9382934570313
  0
POINT
  8
3
 10
2061.503906250000
 20
978.2189941406250
  0
POINT
  8
3
 10
2057.367248535156
 20
976.9366455078125
  0
POINT
  8
3
 10
2056.006164550781
 20
976.4498901367188
  0
POINT
  8
3
 10
2052.626342773438
 20
975.0622558593750
  0
POINT
  8
3
 10
2050.983276367188
 20
974.2730712890625
  0
POINT
  8
3
 10
2050.049438476563
 20
973.7838745117188
  0
POINT
  8
3
 10
2048.034057617188
 20
972.6094055175781
  0
POINT
  8
3
 10
2046.736145019531
 20
971.7524719238281
  0
POINT
  8
3
 10
2045.487976074219
 20
970.8383178710938
  0
POINT
  8
3
 10
2044.294128417969
 20
969.8649597167969
  0
POINT
  8
3
 10
2044.041442871094
 20
969.6446228027344
  0
POINT
  8
3
 10
2042.790527343750
 20
968.4703063964844
  0
POINT
  8
3
 10
2042.073669433594
 20
967.7305603027344
  0
POINT
  8
3
 10
2040.726623535156
 20
966.1952209472656
  0
POINT
  8
3
 10
2040.407714843750
 20
965.8020019531250
  0
POINT
  8
3
 10
2038.835754394531
 20
963.6746215820313
  0
POINT
  8
3
 10
2038.622131347656
 20
963.3596801757813
  0
POINT
  8
3
 10
2036.666259765625
 20
960.1484680175781
  0
POINT
  8
3
 10
2035.951232910156
 20
958.8249206542969
  0
POINT
  8
3
 10
2034.560241699219
 20
956.0371398925781
  0
POINT
  8
3
 10
2032.150573730469
 20
950.6469726562500
  0
POINT
  8
3
 10
2029.939880371094
 20
945.0598144531250
  0
POINT
  8
2
 10
2024.055175781250
 20
927.5645446777344
  0
POINT
  8
2
 10
1916.595764160156
 20
951.5827941894531
  0
POINT
  8
3
 10
1868.992004394531
 20
963.8241577148438
  0
POINT
  8
3
 10
1868.156433105469
 20
964.0483093261719
  0
POINT
  8
3
 10
1848.387756347656
 20
969.5692443847656
  0
POINT
  8
3
 10
1833.211059570313
 20
974.2889404296875
  0
POINT
  8
3
 10
1824.346923828125
 20
977.3422241210938
  0
POINT
  8
3
 10
1811.825256347656
 20
982.1469116210938
  0
POINT
  8
3
 10
1802.562866210938
 20
986.1523437500000
  0
POINT
  8
3
 10
1791.020202636719
 20
991.8005371093750
  0
POINT
  8
3
 10
1783.951110839844
 20
995.6797790527344
  0
POINT
  8
3
 10
1781.418762207031
 20
997.1569824218750
  0
POINT
  8
3
 10
1771.240539550781
 20
1003.630828857422
  0
POINT
  8
3
 10
1767.307739257813
 20
1006.397552490234
  0
POINT
  8
3
 10
1760.800476074219
 20
1011.366882324219
  0
POINT
  8
3
 10
1755.041503906250
 20
1016.252136230469
  0
POINT
  8
3
 10
1750.592041015625
 20
1020.427703857422
  0
POINT
  8
3
 10
1746.359252929688
 20
1024.819641113281
  0
POINT
  8
3
 10
1743.007507324219
 20
1028.668670654297
  0
POINT
  8
3
 10
1740.106506347656
 20
1032.335357666016
  0
POINT
  8
3
 10
1736.907958984375
 20
1036.811828613281
  0
POINT
  8
3
 10
1733.947753906250
 20
1041.450347900391
  0
POINT
  8
3
 10
1731.229248046875
 20
1046.241607666016
  0
POINT
  8
3
 10
1730.969543457031
 20
1046.731719970703
  0
POINT
  8
3
 10
1727.102050781250
 20
1054.864501953125
  0
POINT
  8
3
 10
1726.358947753906
 20
1056.645202636719
  0
POINT
  8
3
 10
1723.075561523438
 20
1065.719757080078
  0
POINT
  8
3
 10
1722.836914062500
 20
1066.477355957031
  0
POINT
  8
3
 10
1720.274963378906
 20
1075.899047851563
  0
POINT
  8
3
 10
1719.351806640625
 20
1080.111083984375
  0
POINT
  8
3
 10
1718.033752441406
 20
1087.443695068359
  0
POINT
  8
3
 10
1716.903991699219
 20
1096.044311523438
  0
POINT
  8
3
 10
1716.084594726563
 20
1106.001586914063
  0
POINT
  8
3
 10
1715.907897949219
 20
1109.476013183594
  0
POINT
  8
3
 10
1715.683593750000
 20
1122.845153808594
  0
POINT
  8
3
 10
1716.149291992188
 20
1137.667388916016
  0
POINT
  8
3
 10
1717.377319335938
 20
1154.718627929688
  0
POINT
  8
3
 10
1720.071105957031
 20
1180.169525146484
  0
POINT
  8
2
 10
1723.471984863281
 20
1206.878967285156
  0
POINT
  8
3
 10
1766.894531250000
 20
1225.947113037109
  0
POINT
  8
3
 10
1781.282348632813
 20
1233.104095458984
  0
POINT
  8
3
 10
1798.281250000000
 20
1242.616577148438
  0
POINT
  8
3
 10
1805.162353515625
 20
1246.938934326172
  0
POINT
  8
3
 10
1814.735412597656
 20
1253.569641113281
  0
POINT
  8
3
 10
1821.004638671875
 20
1258.389129638672
  0
POINT
  8
3
 10
1826.983337402344
 20
1263.420257568359
  0
POINT
  8
3
 10
1835.702209472656
 20
1271.571655273438
  0
POINT
  8
2
 10
1841.322631835938
 20
1277.130889892578
  0
POINT
  8
3
 10
1843.241882324219
 20
1281.311950683594
  0
POINT
  8
3
 10
1843.856201171875
 20
1282.823791503906
  0
POINT
  8
3
 10
1845.221557617188
 20
1286.751251220703
  0
POINT
  8
3
 10
1845.801391601563
 20
1288.750000000000
  0
POINT
  8
3
 10
1846.454162597656
 20
1291.357269287109
  0
POINT
  8
3
 10
1847.159118652344
 20
1294.841766357422
  0
POINT
  8
3
 10
1847.630920410156
 20
1297.924804687500
  0
POINT
  8
3
 10
1848.029174804688
 20
1301.788940429688
  0
POINT
  8
3
 10
1848.214416503906
 20
1305.169372558594
  0
POINT
  8
2
 10
1848.311767578125
 20
1312.442932128906
  0
POINT
  8
2
 10
1846.996765136719
 20
1487.297515869141
  0
POINT
  8
3
 10
1925.359802246094
 20
1492.914276123047
  0
POINT
  8
3
 10
1941.773071289063
 20
1493.968658447266
  0
POINT
  8
3
 10
1990.357360839844
 20
1496.625823974609
  0
POINT
  8
3
 10
2027.810363769531
 20
1498.019104003906
  0
POINT
  8
3
 10
2069.887695312500
 20
1498.801879882813
  0
POINT
  8
2
 10
2099.822387695313
 20
1499.082794189453
  0
POINT
  8
3
 10
2157.685546875000
 20
1498.361358642578
  0
POINT
  8
3
 10
2171.834411621094
 20
1498.018798828125
  0
POINT
  8
3
 10
2208.287658691406
 20
1496.671142578125
  0
POINT
  8
3
 10
2251.628723144531
 20
1494.352111816406
  0
POINT
  8
3
 10
2257.871856689453
 20
1493.968658447266
  0
POINT
  8
3
 10
2323.794860839844
 20
1489.435272216797
  0
ENDBLK
  0
BLOCK
  8
1
  2
12
 70
64
 10
0.0
 20
0.0
  0
TEXT
  8
1
 10
2725.530324996781
 20
1389.328388289296
 40
15.41384100914001
 50
179.9998094632126
 51
0.0000000000000000
 71
0
  1
Piece Name: A - VC - TT 2  (b.trai) x1
  0
TEXT
  8
1
 10
2725.530381381285
 20
1406.283613399256
 40
15.41384100914001
 50
179.9998094632126
 51
0.0000000000000000
 71
0
  1
Size: Base
  0
TEXT
  8
1
 10
2725.530437765789
 20
1423.238838509216
 40
15.41384100914001
 50
179.9998094632126
 51
0.0000000000000000
 71
0
  1
Rotation: 90
  0
TEXT
  8
1
 10
2725.530494150294
 20
1440.194063619176
 40
15.41384100914001
 50
179.9998094632126
 51
0.0000000000000000
 71
0
  1
Flip: NO
  0
POINT
  8
4
 10
2461.922912597656
 20
1597.493133544922
 30
7.000105022396689
 50
-91.60008748603413
 230
5.000000000000000
  0
POINT
  8
4
 10
2446.991577148438
 20
1362.380218505859
 30
7.000100964550890
 50
46.06776293070889
 230
5.000000000000000
  0
POINT
  8
4
 10
2426.639251708984
 20
1383.173675537109
 30
6.999803323462731
 50
42.76149036449477
 230
5.000000000000000
  0
LINE
  8
7
 10
2632.115249633789
 20
1414.762115478516
 11
2467.509613037109
 21
1414.762115478516
  0
POLYLINE
  8
1
 66
1
 70
1
  0
VERTEX
  8
1
 10
2350.591125488281
 20
1624.395294189453
  0
VERTEX
  8
1
 10
2370.421142578125
 20
1621.988677978516
  0
VERTEX
  8
1
 10
2370.203857421875
 20
1618.235015869141
  0
VERTEX
  8
1
 10
2370.213928222656
 20
1617.859039306641
  0
VERTEX
  8
1
 10
2370.254058837891
 20
1617.108001708984
  0
VERTEX
  8
1
 10
2370.410308837891
 20
1615.608673095703
  0
VERTEX
  8
1
 10
2370.491027832031
 20
1615.061798095703
  0
VERTEX
  8
1
 10
2370.686798095703
 20
1613.972015380859
  0
VERTEX
  8
1
 10
2371.084747314453
 20
1612.252044677734
  0
VERTEX
  8
1
 10
2371.191253662109
 20
1611.854095458984
  0
VERTEX
  8
1
 10
2371.840820312500
 20
1609.759979248047
  0
VERTEX
  8
1
 10
2372.137756347656
 20
1608.940582275391
  0
VERTEX
  8
1
 10
2372.971191406250
 20
1606.938629150391
  0
VERTEX
  8
1
 10
2373.340911865234
 20
1606.156768798828
  0
VERTEX
  8
1
 10
2373.571014404297
 20
1605.696258544922
  0
VERTEX
  8
1
 10
2374.142608642578
 20
1604.626007080078
  0
VERTEX
  8
1
 10
2374.997711181641
 20
1603.188323974609
  0
VERTEX
  8
1
 10
2375.684356689453
 20
1602.148284912109
  0
VERTEX
  8
1
 10
2376.660614013672
 20
1600.812530517578
  0
VERTEX
  8
1
 10
2377.249908447266
 20
1600.075225830078
  0
VERTEX
  8
1
 10
2377.704162597656
 20
1599.538421630859
  0
VERTEX
  8
1
 10
2379.395904541016
 20
1597.737274169922
  0
VERTEX
  8
1
 10
2380.106658935547
 20
1597.058258056641
  0
VERTEX
  8
1
 10
2381.958312988281
 20
1595.460357666016
  0
VERTEX
  8
1
 10
2382.727050781250
 20
1594.859466552734
  0
VERTEX
  8
1
 10
2384.307556152344
 20
1593.721160888672
  0
VERTEX
  8
1
 10
2385.669860839844
 20
1592.832183837891
  0
VERTEX
  8
1
 10
2387.919158935547
 20
1591.526031494141
  0
VERTEX
  8
1
 10
2389.433135986328
 20
1590.746002197266
  0
VERTEX
  8
1
 10
2391.489257812500
 20
1589.798126220703
  0
VERTEX
  8
1
 10
2393.582763671875
 20
1588.950347900391
  0
VERTEX
  8
1
 10
2396.438140869141
 20
1587.960968017578
  0
VERTEX
  8
1
 10
2397.863769531250
 20
1587.531585693359
  0
VERTEX
  8
1
 10
2400.289611816406
 20
1586.892242431641
  0
VERTEX
  8
1
 10
2402.734222412109
 20
1586.357269287109
  0
VERTEX
  8
1
 10
2405.195465087891
 20
1585.922698974609
  0
VERTEX
  8
1
 10
2408.838653564453
 20
1585.457611083984
  0
VERTEX
  8
1
 10
2410.158233642578
 20
1585.339202880859
  0
VERTEX
  8
1
 10
2415.179901123047
 20
1585.127105712891
  0
VERTEX
  8
1
 10
2417.684631347656
 20
1585.163116455078
  0
VERTEX
  8
1
 10
2421.433563232422
 20
1585.396881103516
  0
VERTEX
  8
1
 10
2422.672119140625
 20
1585.522308349609
  0
VERTEX
  8
1
 10
2428.513031005859
 20
1586.416778564453
  0
VERTEX
  8
1
 10
2431.404571533203
 20
1587.028350830078
  0
VERTEX
  8
1
 10
2437.132720947266
 20
1588.521270751953
  0
VERTEX
  8
1
 10
2439.737701416016
 20
1589.307098388672
  0
VERTEX
  8
1
 10
2452.234497070313
 20
1593.758087158203
  0
VERTEX
  8
1
 10
2461.734008789063
 20
1597.584075927734
  0
VERTEX
  8
1
 10
2477.482452392578
 20
1590.941619873047
  0
VERTEX
  8
1
 10
2478.647766113281
 20
1590.596160888672
  0
VERTEX
  8
1
 10
2479.575958251953
 20
1590.341949462891
  0
VERTEX
  8
1
 10
2483.389282226563
 20
1589.484405517578
  0
VERTEX
  8
1
 10
2484.591522216797
 20
1589.270782470703
  0
VERTEX
  8
1
 10
2489.440002441406
 20
1588.639373779297
  0
VERTEX
  8
1
 10
2490.555725097656
 20
1588.539886474609
  0
VERTEX
  8
1
 10
2500.406188964844
 20
1588.162994384766
  0
VERTEX
  8
1
 10
2502.844696044922
 20
1588.142242431641
  0
VERTEX
  8
1
 10
2676.938247680664
 20
1589.460296630859
  0
VERTEX
  8
1
 10
2684.812622070313
 20
1550.020599365234
  0
VERTEX
  8
1
 10
2687.756805419922
 20
1533.901824951172
  0
VERTEX
  8
1
 10
2691.601409912109
 20
1510.283050537109
  0
VERTEX
  8
1
 10
2695.141220092773
 20
1484.902496337891
  0
VERTEX
  8
1
 10
2698.361968994141
 20
1457.278289794922
  0
VERTEX
  8
1
 10
2700.425491333008
 20
1435.632476806641
  0
VERTEX
  8
1
 10
2702.438049316406
 20
1408.389129638672
  0
VERTEX
  8
1
 10
2703.599929809570
 20
1386.181488037109
  0
VERTEX
  8
1
 10
2704.427337646484
 20
1359.780731201172
  0
VERTEX
  8
1
 10
2704.658737182617
 20
1336.639862060547
  0
VERTEX
  8
1
 10
2704.376525878906
 20
1311.027679443359
  0
VERTEX
  8
1
 10
2703.599777221680
 20
1287.098541259766
  0
VERTEX
  8
1
 10
2701.869430541992
 20
1256.321716308594
  0
VERTEX
  8
1
 10
2700.423812866211
 20
1237.698059082031
  0
VERTEX
  8
1
 10
2697.249755859375
 20
1204.913024902344
  0
VERTEX
  8
1
 10
2695.315170288086
 20
1186.797790527344
  0
VERTEX
  8
1
 10
2625.867385864258
 20
1230.312805175781
  0
VERTEX
  8
1
 10
2617.033386230469
 20
1235.918884277344
  0
VERTEX
  8
1
 10
2584.003143310547
 20
1257.192993164063
  0
VERTEX
  8
1
 10
2572.781829833984
 20
1264.597625732422
  0
VERTEX
  8
1
 10
2548.316802978516
 20
1281.205596923828
  0
VERTEX
  8
1
 10
2528.113098144531
 20
1295.526580810547
  0
VERTEX
  8
1
 10
2506.899261474609
 20
1311.319732666016
  0
VERTEX
  8
1
 10
2488.902893066406
 20
1325.487823486328
  0
VERTEX
  8
1
 10
2484.680633544922
 20
1328.933258056641
  0
VERTEX
  8
1
 10
2466.362304687500
 20
1344.512786865234
  0
VERTEX
  8
1
 10
2452.287902832031
 20
1357.308502197266
  0
VERTEX
  8
1
 10
2444.165802001953
 20
1365.086212158203
  0
VERTEX
  8
1
 10
2430.723724365234
 20
1378.716583251953
  0
VERTEX
  8
1
 10
2419.837646484375
 20
1390.595855712891
  0
VERTEX
  8
1
 10
2408.378906250000
 20
1404.126129150391
  0
VERTEX
  8
1
 10
2398.439483642578
 20
1416.943817138672
  0
VERTEX
  8
1
 10
2392.600555419922
 20
1425.062713623047
  0
VERTEX
  8
1
 10
2383.561401367188
 20
1438.733978271484
  0
VERTEX
  8
1
 10
2378.716735839844
 20
1446.756439208984
  0
VERTEX
  8
1
 10
2371.374206542969
 20
1460.158538818359
  0
VERTEX
  8
1
 10
2366.870727539063
 20
1469.358673095703
  0
VERTEX
  8
1
 10
2361.614074707031
 20
1481.435089111328
  0
VERTEX
  8
1
 10
2357.301483154297
 20
1492.897186279297
  0
VERTEX
  8
1
 10
2354.159088134766
 20
1502.600860595703
  0
VERTEX
  8
1
 10
2350.619049072266
 20
1515.806732177734
  0
VERTEX
  8
1
 10
2350.252380371094
 20
1517.384796142578
  0
VERTEX
  8
1
 10
2347.923431396484
 20
1528.972625732422
  0
VERTEX
  8
1
 10
2346.345367431641
 20
1539.560089111328
  0
VERTEX
  8
1
 10
2345.959930419922
 20
1542.853240966797
  0
VERTEX
  8
1
 10
2344.924621582031
 20
1555.706024169922
  0
VERTEX
  8
1
 10
2344.607849121094
 20
1566.560211181641
  0
VERTEX
  8
1
 10
2344.663696289063
 20
1573.586578369141
  0
VERTEX
  8
1
 10
2345.258636474609
 20
1586.166534423828
  0
VERTEX
  8
1
 10
2346.677398681641
 20
1600.429534912109
  0
VERTEX
  8
1
 10
2347.527313232422
 20
1606.580963134766
  0
SEQEND
  0
POINT
  8
2
 10
2350.591125488281
 20
1624.395294189453
  0
POINT
  8
2
 10
2370.421142578125
 20
1621.988677978516
  0
POINT
  8
3
 10
2370.203857421875
 20
1618.235015869141
  0
POINT
  8
3
 10
2370.213928222656
 20
1617.859039306641
  0
POINT
  8
3
 10
2370.254058837891
 20
1617.108001708984
  0
POINT
  8
3
 10
2370.410308837891
 20
1615.608673095703
  0
POINT
  8
3
 10
2370.491027832031
 20
1615.061798095703
  0
POINT
  8
3
 10
2370.686798095703
 20
1613.972015380859
  0
POINT
  8
3
 10
2371.084747314453
 20
1612.252044677734
  0
POINT
  8
3
 10
2371.191253662109
 20
1611.854095458984
  0
POINT
  8
3
 10
2371.840820312500
 20
1609.759979248047
  0
POINT
  8
3
 10
2372.137756347656
 20
1608.940582275391
  0
POINT
  8
3
 10
2372.971191406250
 20
1606.938629150391
  0
POINT
  8
3
 10
2373.340911865234
 20
1606.156768798828
  0
POINT
  8
3
 10
2373.571014404297
 20
1605.696258544922
  0
POINT
  8
3
 10
2374.142608642578
 20
1604.626007080078
  0
POINT
  8
3
 10
2374.997711181641
 20
1603.188323974609
  0
POINT
  8
3
 10
2375.684356689453
 20
1602.148284912109
  0
POINT
  8
3
 10
2376.660614013672
 20
1600.812530517578
  0
POINT
  8
3
 10
2377.249908447266
 20
1600.075225830078
  0
POINT
  8
3
 10
2377.704162597656
 20
1599.538421630859
  0
POINT
  8
3
 10
2379.395904541016
 20
1597.737274169922
  0
POINT
  8
3
 10
2380.106658935547
 20
1597.058258056641
  0
POINT
  8
3
 10
2381.958312988281
 20
1595.460357666016
  0
POINT
  8
3
 10
2382.727050781250
 20
1594.859466552734
  0
POINT
  8
3
 10
2384.307556152344
 20
1593.721160888672
  0
POINT
  8
3
 10
2385.669860839844
 20
1592.832183837891
  0
POINT
  8
3
 10
2387.919158935547
 20
1591.526031494141
  0
POINT
  8
3
 10
2389.433135986328
 20
1590.746002197266
  0
POINT
  8
3
 10
2391.489257812500
 20
1589.798126220703
  0
POINT
  8
3
 10
2393.582763671875
 20
1588.950347900391
  0
POINT
  8
3
 10
2396.438140869141
 20
1587.960968017578
  0
POINT
  8
3
 10
2397.863769531250
 20
1587.531585693359
  0
POINT
  8
3
 10
2400.289611816406
 20
1586.892242431641
  0
POINT
  8
3
 10
2402.734222412109
 20
1586.357269287109
  0
POINT
  8
3
 10
2405.195465087891
 20
1585.922698974609
  0
POINT
  8
3
 10
2408.838653564453
 20
1585.457611083984
  0
POINT
  8
3
 10
2410.158233642578
 20
1585.339202880859
  0
POINT
  8
3
 10
2415.179901123047
 20
1585.127105712891
  0
POINT
  8
3
 10
2417.684631347656
 20
1585.163116455078
  0
POINT
  8
3
 10
2421.433563232422
 20
1585.396881103516
  0
POINT
  8
3
 10
2422.672119140625
 20
1585.522308349609
  0
POINT
  8
3
 10
2428.513031005859
 20
1586.416778564453
  0
POINT
  8
3
 10
2431.404571533203
 20
1587.028350830078
  0
POINT
  8
3
 10
2437.132720947266
 20
1588.521270751953
  0
POINT
  8
3
 10
2439.737701416016
 20
1589.307098388672
  0
POINT
  8
3
 10
2452.234497070313
 20
1593.758087158203
  0
POINT
  8
2
 10
2461.734008789063
 20
1597.584075927734
  0
POINT
  8
3
 10
2477.482452392578
 20
1590.941619873047
  0
POINT
  8
3
 10
2478.647766113281
 20
1590.596160888672
  0
POINT
  8
3
 10
2479.575958251953
 20
1590.341949462891
  0
POINT
  8
3
 10
2483.389282226563
 20
1589.484405517578
  0
POINT
  8
3
 10
2484.591522216797
 20
1589.270782470703
  0
POINT
  8
3
 10
2489.440002441406
 20
1588.639373779297
  0
POINT
  8
3
 10
2490.555725097656
 20
1588.539886474609
  0
POINT
  8
3
 10
2500.406188964844
 20
1588.162994384766
  0
POINT
  8
2
 10
2502.844696044922
 20
1588.142242431641
  0
POINT
  8
2
 10
2676.938247680664
 20
1589.460296630859
  0
POINT
  8
3
 10
2684.812622070313
 20
1550.020599365234
  0
POINT
  8
3
 10
2687.756805419922
 20
1533.901824951172
  0
POINT
  8
3
 10
2691.601409912109
 20
1510.283050537109
  0
POINT
  8
3
 10
2695.141220092773
 20
1484.902496337891
  0
POINT
  8
3
 10
2698.361968994141
 20
1457.278289794922
  0
POINT
  8
3
 10
2700.425491333008
 20
1435.632476806641
  0
POINT
  8
3
 10
2702.438049316406
 20
1408.389129638672
  0
POINT
  8
3
 10
2703.599929809570
 20
1386.181488037109
  0
POINT
  8
3
 10
2704.427337646484
 20
1359.780731201172
  0
POINT
  8
3
 10
2704.658737182617
 20
1336.639862060547
  0
POINT
  8
3
 10
2704.376525878906
 20
1311.027679443359
  0
POINT
  8
3
 10
2703.599777221680
 20
1287.098541259766
  0
POINT
  8
3
 10
2701.869430541992
 20
1256.321716308594
  0
POINT
  8
3
 10
2700.423812866211
 20
1237.698059082031
  0
POINT
  8
3
 10
2697.249755859375
 20
1204.913024902344
  0
POINT
  8
2
 10
2695.315170288086
 20
1186.797790527344
  0
POINT
  8
3
 10
2625.867385864258
 20
1230.312805175781
  0
POINT
  8
3
 10
2617.033386230469
 20
1235.918884277344
  0
POINT
  8
3
 10
2584.003143310547
 20
1257.192993164063
  0
POINT
  8
3
 10
2572.781829833984
 20
1264.597625732422
  0
POINT
  8
3
 10
2548.316802978516
 20
1281.205596923828
  0
POINT
  8
3
 10
2528.113098144531
 20
1295.526580810547
  0
POINT
  8
3
 10
2506.899261474609
 20
1311.319732666016
  0
POINT
  8
3
 10
2488.902893066406
 20
1325.487823486328
  0
POINT
  8
3
 10
2484.680633544922
 20
1328.933258056641
  0
POINT
  8
3
 10
2466.362304687500
 20
1344.512786865234
  0
POINT
  8
3
 10
2452.287902832031
 20
1357.308502197266
  0
POINT
  8
3
 10
2444.165802001953
 20
1365.086212158203
  0
POINT
  8
3
 10
2430.723724365234
 20
1378.716583251953
  0
POINT
  8
3
 10
2419.837646484375
 20
1390.595855712891
  0
POINT
  8
3
 10
2408.378906250000
 20
1404.126129150391
  0
POINT
  8
3
 10
2398.439483642578
 20
1416.943817138672
  0
POINT
  8
3
 10
2392.600555419922
 20
1425.062713623047
  0
POINT
  8
3
 10
2383.561401367188
 20
1438.733978271484
  0
POINT
  8
3
 10
2378.716735839844
 20
1446.756439208984
  0
POINT
  8
3
 10
2371.374206542969
 20
1460.158538818359
  0
POINT
  8
3
 10
2366.870727539063
 20
1469.358673095703
  0
POINT
  8
3
 10
2361.614074707031
 20
1481.435089111328
  0
POINT
  8
3
 10
2357.301483154297
 20
1492.897186279297
  0
POINT
  8
3
 10
2354.159088134766
 20
1502.600860595703
  0
POINT
  8
3
 10
2350.619049072266
 20
1515.806732177734
  0
POINT
  8
3
 10
2350.252380371094
 20
1517.384796142578
  0
POINT
  8
3
 10
2347.923431396484
 20
1528.972625732422
  0
POINT
  8
3
 10
2346.345367431641
 20
1539.560089111328
  0
POINT
  8
3
 10
2345.959930419922
 20
1542.853240966797
  0
POINT
  8
3
 10
2344.924621582031
 20
1555.706024169922
  0
POINT
  8
3
 10
2344.607849121094
 20
1566.560211181641
  0
POINT
  8
3
 10
2344.663696289063
 20
1573.586578369141
  0
POINT
  8
3
 10
2345.258636474609
 20
1586.166534423828
  0
POINT
  8
3
 10
2346.677398681641
 20
1600.429534912109
  0
POINT
  8
3
 10
2347.527313232422
 20
1606.580963134766
  0
ENDBLK
  0
BLOCK
  8
1
  2
13
 70
64
 10
0.0
 20
0.0
  0
TEXT
  8
1
 10
2369.066282749176
 20
606.4968235492706
 40
10.87809085845947
 50
0.0000000000000000
 51
0.0000000000000000
 71
0
  1
Piece Name: A - VC - TT 1 x 1
  0
TEXT
  8
1
 10
2369.066282749176
 20
594.5309236049652
 40
10.87809085845947
 50
0.0000000000000000
 51
0.0000000000000000
 71
0
  1
Size: Base
  0
TEXT
  8
1
 10
2369.066282749176
 20
582.5650236606598
 40
10.87809085845947
 50
0.0000000000000000
 51
0.0000000000000000
 71
0
  1
Rotation: 90
  0
TEXT
  8
1
 10
2369.066282749176
 20
570.5991237163544
 40
10.87809085845947
 50
0.0000000000000000
 51
0.0000000000000000
 71
0
  1
Flip: NO
  0
POINT
  8
4
 10
2356.281051635742
 20
850.3131103515625
 30
6.999966474319352
 50
-88.35177674628048
 230
5.000000000000000
  0
POINT
  8
4
 10
2665.632247924805
 20
771.4706420898438
 30
7.000068202349054
 50
-166.9343318609724
 230
5.000000000000000
  0
POINT
  8
4
 10
2609.501876831055
 20
589.3705749511719
 30
6.999969482421875
 50
180.0000000000000
 230
5.000000000000000
  0
POINT
  8
4
 10
2665.633316040039
 20
407.2708129882813
 30
6.999954062296751
 50
166.9328328885974
 230
5.000000000000000
  0
POINT
  8
4
 10
2377.003784179688
 20
529.2550659179688
 30
6.999963896122921
 50
42.96303908251193
 230
5.000000000000000
  0
POINT
  8
4
 10
2357.441558837891
 20
549.0597534179688
 30
6.999993815366773
 50
46.26343558984341
 230
5.000000000000000
  0
TEXT
  8
8
 10
2460.529524244047
 20
876.7694291076891
 40
10.00000000000000
 50
270.4789881893600
 51
0.0000000000000000
 71
0
  1
Nach
  0
TEXT
  8
8
 10
2460.529524244047
 20
876.7694291076891
 40
10.00000000000000
 50
270.4789881893600
 51
0.0000000000000000
 71
0
  1
Nach
  0
LINE
  8
7
 10
2382.223968505859
 20
588.5479736328125
 11
2545.187454223633
 21
588.5479736328125
  0
POLYLINE
  8
1
 66
1
 70
1
  0
VERTEX
  8
1
 10
2141.079330444336
 20
842.1899414062500
  0
VERTEX
  8
1
 10
2315.172958374023
 20
840.8721923828125
  0
VERTEX
  8
1
 10
2327.461929321289
 20
841.2696838378906
  0
VERTEX
  8
1
 10
2328.576889038086
 20
841.3688659667969
  0
VERTEX
  8
1
 10
2334.627151489258
 20
842.2140502929688
  0
VERTEX
  8
1
 10
2335.823516845703
 20
842.4522399902344
  0
VERTEX
  8
1
 10
2338.441848754883
 20
843.0715942382813
  0
VERTEX
  8
1
 10
2340.533676147461
 20
843.6708068847656
  0
VERTEX
  8
1
 10
2343.984603881836
 20
844.8489379882813
  0
VERTEX
  8
1
 10
2347.380447387695
 20
846.2036132812500
  0
VERTEX
  8
1
 10
2355.174331665039
 20
849.7807312011719
  0
VERTEX
  8
1
 10
2356.281051635742
 20
850.3131103515625
  0
VERTEX
  8
1
 10
2378.306808471680
 20
842.0358276367188
  0
VERTEX
  8
1
 10
2378.901367187500
 20
841.8513488769531
  0
VERTEX
  8
1
 10
2387.266464233398
 20
839.6141052246094
  0
VERTEX
  8
1
 10
2390.086288452148
 20
839.0382385253906
  0
VERTEX
  8
1
 10
2392.921524047852
 20
838.5653686523438
  0
VERTEX
  8
1
 10
2396.584396362305
 20
838.1268310546875
  0
VERTEX
  8
1
 10
2398.640899658203
 20
837.9719543457031
  0
VERTEX
  8
1
 10
2401.171340942383
 20
837.8715515136719
  0
VERTEX
  8
1
 10
2403.700103759766
 20
837.8694152832031
  0
VERTEX
  8
1
 10
2406.225051879883
 20
837.9641723632813
  0
VERTEX
  8
1
 10
2409.105987548828
 20
838.1903076171875
  0
VERTEX
  8
1
 10
2411.254806518555
 20
838.4413146972656
  0
VERTEX
  8
1
 10
2413.596725463867
 20
838.7983703613281
  0
VERTEX
  8
1
 10
2415.918426513672
 20
839.2425537109375
  0
VERTEX
  8
1
 10
2418.217697143555
 20
839.7760009765625
  0
VERTEX
  8
1
 10
2421.447372436523
 20
840.6944274902344
  0
VERTEX
  8
1
 10
2422.741012573242
 20
841.1215209960938
  0
VERTEX
  8
1
 10
2426.556777954102
 20
842.6046752929688
  0
VERTEX
  8
1
 10
2428.408660888672
 20
843.4605407714844
  0
VERTEX
  8
1
 10
2430.218811035156
 20
844.3966674804688
  0
VERTEX
  8
1
 10
2432.251358032227
 20
845.5807495117188
  0
VERTEX
  8
1
 10
2433.700942993164
 20
846.5231323242188
  0
VERTEX
  8
1
 10
2435.159912109375
 20
847.5659179687500
  0
VERTEX
  8
1
 10
2436.561279296875
 20
848.6697387695313
  0
VERTEX
  8
1
 10
2437.900924682617
 20
849.8345947265625
  0
VERTEX
  8
1
 10
2439.174957275391
 20
851.0609436035156
  0
VERTEX
  8
1
 10
2440.084838867188
 20
852.0214843750000
  0
VERTEX
  8
1
 10
2440.828399658203
 20
852.8684997558594
  0
VERTEX
  8
1
 10
2441.234207153320
 20
853.3576965332031
  0
VERTEX
  8
1
 10
2442.432708740234
 20
854.9348449707031
  0
VERTEX
  8
1
 10
2442.880096435547
 20
855.5836486816406
  0
VERTEX
  8
1
 10
2443.914947509766
 20
857.2477722167969
  0
VERTEX
  8
1
 10
2444.294891357422
 20
857.9306030273438
  0
VERTEX
  8
1
 10
2444.552993774414
 20
858.4219360351563
  0
VERTEX
  8
1
 10
2444.994506835938
 20
859.3244934082031
  0
VERTEX
  8
1
 10
2445.601730346680
 20
860.7298278808594
  0
VERTEX
  8
1
 10
2445.999755859375
 20
861.7953491210938
  0
VERTEX
  8
1
 10
2446.454467773438
 20
863.2319641113281
  0
VERTEX
  8
1
 10
2446.792526245117
 20
864.5571899414063
  0
VERTEX
  8
1
 10
2446.820602416992
 20
864.6827697753906
  0
VERTEX
  8
1
 10
2447.247085571289
 20
867.2071838378906
  0
VERTEX
  8
1
 10
2447.350082397461
 20
868.2156372070313
  0
VERTEX
  8
1
 10
2447.452850341797
 20
870.2268981933594
  0
VERTEX
  8
1
 10
2447.458648681641
 20
870.7270812988281
  0
VERTEX
  8
1
 10
2447.343444824219
 20
873.7179565429688
  0
VERTEX
  8
1
 10
2447.314224243164
 20
874.0682983398438
  0
VERTEX
  8
1
 10
2447.138824462891
 20
875.6896972656250
  0
VERTEX
  8
1
 10
2446.746368408203
 20
878.1838989257813
  0
VERTEX
  8
1
 10
2446.366043090820
 20
880.0311279296875
  0
VERTEX
  8
1
 10
2445.757598876953
 20
882.4670410156250
  0
VERTEX
  8
1
 10
2445.313568115234
 20
884.0127563476563
  0
VERTEX
  8
1
 10
2444.184799194336
 20
887.4291992187500
  0
VERTEX
  8
1
 10
2443.224792480469
 20
889.9441528320313
  0
VERTEX
  8
1
 10
2442.172470092773
 20
892.4182128906250
  0
VERTEX
  8
1
 10
2441.031951904297
 20
894.8512268066406
  0
VERTEX
  8
1
 10
2439.113922119141
 20
898.5125732421875
  0
VERTEX
  8
1
 10
2438.502273559570
 20
899.5901489257813
  0
VERTEX
  8
1
 10
2434.750595092773
 20
905.5526733398438
  0
VERTEX
  8
1
 10
2432.734451293945
 20
908.4391784667969
  0
VERTEX
  8
1
 10
2430.188217163086
 20
911.8861389160156
  0
VERTEX
  8
1
 10
2419.166870117188
 20
925.3343200683594
  0
VERTEX
  8
1
 10
2412.618179321289
 20
932.5741577148438
  0
VERTEX
  8
1
 10
2393.588943481445
 20
952.1511840820313
  0
VERTEX
  8
1
 10
2436.324386596680
 20
958.9468383789063
  0
VERTEX
  8
1
 10
2462.062759399414
 20
962.3966979980469
  0
VERTEX
  8
1
 10
2481.624450683594
 20
964.3876647949219
  0
VERTEX
  8
1
 10
2486.755447387695
 20
964.7647094726563
  0
VERTEX
  8
1
 10
2501.869049072266
 20
965.4000854492188
  0
VERTEX
  8
1
 10
2510.770721435547
 20
965.3868103027344
  0
VERTEX
  8
1
 10
2523.573379516602
 20
964.7607421875000
  0
VERTEX
  8
1
 10
2528.585586547852
 20
964.2875671386719
  0
VERTEX
  8
1
 10
2533.912277221680
 20
963.6242675781250
  0
VERTEX
  8
1
 10
2544.421157836914
 20
961.7694091796875
  0
VERTEX
  8
1
 10
2548.552322387695
 20
960.8163452148438
  0
VERTEX
  8
1
 10
2555.900344848633
 20
958.7625122070313
  0
VERTEX
  8
1
 10
2560.256423950195
 20
957.3042297363281
  0
VERTEX
  8
1
 10
2565.481491088867
 20
955.2915954589844
  0
VERTEX
  8
1
 10
2570.594406127930
 20
953.0130004882813
  0
VERTEX
  8
1
 10
2573.934249877930
 20
951.3404846191406
  0
VERTEX
  8
1
 10
2576.329879760742
 20
950.0421142578125
  0
VERTEX
  8
1
 10
2581.726303100586
 20
946.7851257324219
  0
VERTEX
  8
1
 10
2584.644699096680
 20
944.8156738281250
  0
VERTEX
  8
1
 10
2588.881607055664
 20
941.6667175292969
  0
VERTEX
  8
1
 10
2591.608505249023
 20
939.4392395019531
  0
VERTEX
  8
1
 10
2594.630661010742
 20
936.7640686035156
  0
VERTEX
  8
1
 10
2598.250350952148
 20
933.2402038574219
  0
VERTEX
  8
1
 10
2602.120437622070
 20
929.0583801269531
  0
VERTEX
  8
1
 10
2605.782852172852
 20
924.6827697753906
  0
VERTEX
  8
1
 10
2610.374832153320
 20
918.5905456542969
  0
VERTEX
  8
1
 10
2613.195419311523
 20
914.5039367675781
  0
VERTEX
  8
1
 10
2619.036941528320
 20
905.1748657226563
  0
VERTEX
  8
1
 10
2624.010848999023
 20
896.2438964843750
  0
VERTEX
  8
1
 10
2627.796707153320
 20
888.8090515136719
  0
VERTEX
  8
1
 10
2634.011611938477
 20
875.3666687011719
  0
VERTEX
  8
1
 10
2640.379257202148
 20
859.6997070312500
  0
VERTEX
  8
1
 10
2646.089706420898
 20
843.6111450195313
  0
VERTEX
  8
1
 10
2650.312881469727
 20
830.2511596679688
  0
VERTEX
  8
1
 10
2655.446701049805
 20
812.1800231933594
  0
VERTEX
  8
1
 10
2662.190628051758
 20
785.6986999511719
  0
VERTEX
  8
1
 10
2665.632247924805
 20
771.4706420898438
  0
VERTEX
  8
1
 10
2689.756698608398
 20
663.5203552246094
  0
VERTEX
  8
1
 10
2659.985275268555
 20
654.3226623535156
  0
VERTEX
  8
1
 10
2650.117874145508
 20
650.7066345214844
  0
VERTEX
  8
1
 10
2643.726577758789
 20
647.9788208007813
  0
VERTEX
  8
1
 10
2641.408309936523
 20
646.8814086914063
  0
VERTEX
  8
1
 10
2636.034011840820
 20
644.0457153320313
  0
VERTEX
  8
1
 10
2633.822555541992
 20
642.7296447753906
  0
VERTEX
  8
1
 10
2631.663742065430
 20
641.3388061523438
  0
VERTEX
  8
1
 10
2629.564285278320
 20
639.8672485351563
  0
VERTEX
  8
1
 10
2627.530441284180
 20
638.3081054687500
  0
VERTEX
  8
1
 10
2626.362380981445
 20
637.3431396484375
  0
VERTEX
  8
1
 10
2624.209365844727
 20
635.4040527343750
  0
VERTEX
  8
1
 10
2622.905197143555
 20
634.1050720214844
  0
VERTEX
  8
1
 10
2621.661300659180
 20
632.7548217773438
  0
VERTEX
  8
1
 10
2621.049270629883
 20
632.0425415039063
  0
VERTEX
  8
1
 10
2619.288406372070
 20
629.7764587402344
  0
VERTEX
  8
1
 10
2618.181533813477
 20
628.1533813476563
  0
VERTEX
  8
1
 10
2617.161941528320
 20
626.4848327636719
  0
VERTEX
  8
1
 10
2616.772537231445
 20
625.7946777343750
  0
VERTEX
  8
1
 10
2616.229476928711
 20
624.7744750976563
  0
VERTEX
  8
1
 10
2614.932022094727
 20
622.0124816894531
  0
VERTEX
  8
1
 10
2614.466934204102
 20
620.8879089355469
  0
VERTEX
  8
1
 10
2613.620681762695
 20
618.6100769042969
  0
VERTEX
  8
1
 10
2612.732162475586
 20
615.8094787597656
  0
VERTEX
  8
1
 10
2612.225570678711
 20
613.9662170410156
  0
VERTEX
  8
1
 10
2611.582412719727
 20
611.2562561035156
  0
VERTEX
  8
1
 10
2611.048202514648
 20
608.5308837890625
  0
VERTEX
  8
1
 10
2610.450820922852
 20
604.5431518554688
  0
VERTEX
  8
1
 10
2609.969558715820
 20
599.5880126953125
  0
VERTEX
  8
1
 10
2609.501876831055
 20
589.3705749511719
  0
VERTEX
  8
1
 10
2610.450820922852
 20
574.1979980468750
  0
VERTEX
  8
1
 10
2610.745468139648
 20
572.0587158203125
  0
VERTEX
  8
1
 10
2611.662673950195
 20
567.1188354492188
  0
VERTEX
  8
1
 10
2612.251052856445
 20
564.6774291992188
  0
VERTEX
  8
1
 10
2612.732315063477
 20
562.9316711425781
  0
VERTEX
  8
1
 10
2613.542098999023
 20
560.3608703613281
  0
VERTEX
  8
1
 10
2614.217453002930
 20
558.4921264648438
  0
VERTEX
  8
1
 10
2614.962844848633
 20
556.6572570800781
  0
VERTEX
  8
1
 10
2615.783767700195
 20
554.8605346679688
  0
VERTEX
  8
1
 10
2616.772689819336
 20
552.9466247558594
  0
VERTEX
  8
1
 10
2617.672653198242
 20
551.3978576660156
  0
VERTEX
  8
1
 10
2618.718338012695
 20
549.7793579101563
  0
VERTEX
  8
1
 10
2619.836502075195
 20
548.2220458984375
  0
VERTEX
  8
1
 10
2621.025314331055
 20
546.7277526855469
  0
VERTEX
  8
1
 10
2622.282180786133
 20
545.2978515625000
  0
VERTEX
  8
1
 10
2623.980636596680
 20
543.5578918457031
  0
VERTEX
  8
1
 10
2625.306777954102
 20
542.3207092285156
  0
VERTEX
  8
1
 10
2626.362838745117
 20
541.3981628417969
  0
VERTEX
  8
1
 10
2629.251022338867
 20
539.1055297851563
  0
VERTEX
  8
1
 10
2631.433486938477
 20
537.5579833984375
  0
VERTEX
  8
1
 10
2633.677902221680
 20
536.1016845703125
  0
VERTEX
  8
1
 10
2635.976943969727
 20
534.7285461425781
  0
VERTEX
  8
1
 10
2640.709304809570
 20
532.2044372558594
  0
VERTEX
  8
1
 10
2641.408767700195
 20
531.8600463867188
  0
VERTEX
  8
1
 10
2649.505538940430
 20
528.2800292968750
  0
VERTEX
  8
1
 10
2652.740859985352
 20
527.0172119140625
  0
VERTEX
  8
1
 10
2659.985580444336
 20
524.4187927246094
  0
VERTEX
  8
1
 10
2689.757003784180
 20
515.2212524414063
  0
VERTEX
  8
1
 10
2665.633316040039
 20
407.2708129882813
  0
VERTEX
  8
1
 10
2656.537704467773
 20
370.6515502929688
  0
VERTEX
  8
1
 10
2650.314102172852
 20
348.4902954101563
  0
VERTEX
  8
1
 10
2644.351577758789
 20
330.0018310546875
  0
VERTEX
  8
1
 10
2640.380477905273
 20
319.0417480468750
  0
VERTEX
  8
1
 10
2634.066696166992
 20
303.4979248046875
  0
VERTEX
  8
1
 10
2627.798385620117
 20
289.9322509765625
  0
VERTEX
  8
1
 10
2621.796646118164
 20
278.4024047851563
  0
VERTEX
  8
1
 10
2616.120529174805
 20
268.7557983398438
  0
VERTEX
  8
1
 10
2613.196945190430
 20
264.2373657226563
  0
VERTEX
  8
1
 10
2606.962509155273
 20
255.5560302734375
  0
VERTEX
  8
1
 10
2605.668869018555
 20
253.9138793945313
  0
VERTEX
  8
1
 10
2600.224533081055
 20
247.5772094726563
  0
VERTEX
  8
1
 10
2598.790969848633
 20
246.0571289062500
  0
VERTEX
  8
1
 10
2594.632339477539
 20
241.9772338867188
  0
VERTEX
  8
1
 10
2591.660385131836
 20
239.3444824218750
  0
VERTEX
  8
1
 10
2587.550430297852
 20
236.0446166992188
  0
VERTEX
  8
1
 10
2584.712753295898
 20
233.9721679687500
  0
VERTEX
  8
1
 10
2580.316543579102
 20
231.0574340820313
  0
VERTEX
  8
1
 10
2576.331710815430
 20
228.6990356445313
  0
VERTEX
  8
1
 10
2572.487564086914
 20
226.6561889648438
  0
VERTEX
  8
1
 10
2567.474136352539
 20
224.2980957031250
  0
VERTEX
  8
1
 10
2562.345657348633
 20
222.2045898437500
  0
VERTEX
  8
1
 10
2557.114486694336
 20
220.3652954101563
  0
VERTEX
  8
1
 10
2555.902023315430
 20
219.9783325195313
  0
VERTEX
  8
1
 10
2547.302932739258
 20
217.6214599609375
  0
VERTEX
  8
1
 10
2543.233566284180
 20
216.7218017578125
  0
VERTEX
  8
1
 10
2533.914260864258
 20
215.1165771484375
  0
VERTEX
  8
1
 10
2528.081817626953
 20
214.3991088867188
  0
VERTEX
  8
1
 10
2515.852279663086
 20
213.5095214843750
  0
VERTEX
  8
1
 10
2510.772628784180
 20
213.3538818359375
  0
VERTEX
  8
1
 10
2496.688232421875
 20
213.4716796875000
  0
VERTEX
  8
1
 10
2486.757354736328
 20
213.9758300781250
  0
VERTEX
  8
1
 10
2469.923553466797
 20
215.4550170898438
  0
VERTEX
  8
1
 10
2462.064590454102
 20
216.3436889648438
  0
VERTEX
  8
1
 10
2437.490234375000
 20
219.6231079101563
  0
VERTEX
  8
1
 10
2400.445022583008
 20
225.4586791992188
  0
VERTEX
  8
1
 10
2393.570251464844
 20
226.5921020507813
  0
VERTEX
  8
1
 10
2415.293121337891
 20
249.0847778320313
  0
VERTEX
  8
1
 10
2422.169647216797
 20
256.8753051757813
  0
VERTEX
  8
1
 10
2430.196685791016
 20
266.8130493164063
  0
VERTEX
  8
1
 10
2434.893493652344
 20
273.3047485351563
  0
VERTEX
  8
1
 10
2436.613159179688
 20
275.9188842773438
  0
VERTEX
  8
1
 10
2439.061126708984
 20
280.0045776367188
  0
VERTEX
  8
1
 10
2439.782409667969
 20
281.3195800781250
  0
VERTEX
  8
1
 10
2442.072067260742
 20
285.9655761718750
  0
VERTEX
  8
1
 10
2443.089675903320
 20
288.3398437500000
  0
VERTEX
  8
1
 10
2444.017639160156
 20
290.7464599609375
  0
VERTEX
  8
1
 10
2445.184249877930
 20
294.2507934570313
  0
VERTEX
  8
1
 10
2445.590057373047
 20
295.6512451171875
  0
VERTEX
  8
1
 10
2446.749114990234
 20
300.3408813476563
  0
VERTEX
  8
1
 10
2447.769470214844
 20
305.3442382812500
  0
VERTEX
  8
1
 10
2451.533050537109
 20
329.2675781250000
  0
VERTEX
  8
1
 10
2452.425308227539
 20
337.7813720703125
  0
VERTEX
  8
1
 10
2453.308868408203
 20
352.7822875976563
  0
VERTEX
  8
1
 10
2453.384780883789
 20
357.7960205078125
  0
VERTEX
  8
1
 10
2453.002777099609
 20
371.4111328125000
  0
VERTEX
  8
1
 10
2452.680969238281
 20
375.9423828125000
  0
VERTEX
  8
1
 10
2452.207870483398
 20
380.9643554687500
  0
VERTEX
  8
1
 10
2450.430526733398
 20
393.7994384765625
  0
VERTEX
  8
1
 10
2449.634246826172
 20
398.1823730468750
  0
VERTEX
  8
1
 10
2447.542495727539
 20
407.7972412109375
  0
VERTEX
  8
1
 10
2445.492401123047
 20
415.5917358398438
  0
VERTEX
  8
1
 10
2441.378021240234
 20
428.5275268554688
  0
VERTEX
  8
1
 10
2439.533386230469
 20
433.5601806640625
  0
VERTEX
  8
1
 10
2432.530441284180
 20
450.0070190429688
  0
VERTEX
  8
1
 10
2430.472335815430
 20
454.2636108398438
  0
VERTEX
  8
1
 10
2428.382644653320
 20
458.3840942382813
  0
VERTEX
  8
1
 10
2418.335571289063
 20
476.0317993164063
  0
VERTEX
  8
1
 10
2414.288101196289
 20
482.3718261718750
  0
VERTEX
  8
1
 10
2403.346481323242
 20
497.9530334472656
  0
VERTEX
  8
1
 10
2397.454910278320
 20
505.6028747558594
  0
VERTEX
  8
1
 10
2380.994491577148
 20
524.9832153320313
  0
VERTEX
  8
1
 10
2378.101272583008
 20
528.1439208984375
  0
VERTEX
  8
1
 10
2356.543502807617
 20
549.9690246582031
  0
VERTEX
  8
1
 10
2342.303161621094
 20
563.0734252929688
  0
VERTEX
  8
1
 10
2313.773727416992
 20
587.0854187011719
  0
VERTEX
  8
1
 10
2307.233276367188
 20
592.2598266601563
  0
VERTEX
  8
1
 10
2271.608581542969
 20
618.8594055175781
  0
VERTEX
  8
1
 10
2251.841201782227
 20
632.7043151855469
  0
VERTEX
  8
1
 10
2192.238769531250
 20
671.9830322265625
  0
VERTEX
  8
1
 10
2120.302352905273
 20
717.0906066894531
  0
VERTEX
  8
1
 10
2126.099777221680
 20
760.2056884765625
  0
VERTEX
  8
1
 10
2130.250396728516
 20
786.5769958496094
  0
VERTEX
  8
1
 10
2135.301437377930
 20
813.7695312500000
  0
SEQEND
  0
POINT
  8
2
 10
2141.079330444336
 20
842.1899414062500
  0
POINT
  8
2
 10
2315.172958374023
 20
840.8721923828125
  0
POINT
  8
3
 10
2327.461929321289
 20
841.2696838378906
  0
POINT
  8
3
 10
2328.576889038086
 20
841.3688659667969
  0
POINT
  8
3
 10
2334.627151489258
 20
842.2140502929688
  0
POINT
  8
3
 10
2335.823516845703
 20
842.4522399902344
  0
POINT
  8
3
 10
2338.441848754883
 20
843.0715942382813
  0
POINT
  8
3
 10
2340.533676147461
 20
843.6708068847656
  0
POINT
  8
3
 10
2343.984603881836
 20
844.8489379882813
  0
POINT
  8
3
 10
2347.380447387695
 20
846.2036132812500
  0
POINT
  8
3
 10
2355.174331665039
 20
849.7807312011719
  0
POINT
  8
2
 10
2356.281051635742
 20
850.3131103515625
  0
POINT
  8
3
 10
2378.306808471680
 20
842.0358276367188
  0
POINT
  8
3
 10
2378.901367187500
 20
841.8513488769531
  0
POINT
  8
3
 10
2387.266464233398
 20
839.6141052246094
  0
POINT
  8
3
 10
2390.086288452148
 20
839.0382385253906
  0
POINT
  8
3
 10
2392.921524047852
 20
838.5653686523438
  0
POINT
  8
3
 10
2396.584396362305
 20
838.1268310546875
  0
POINT
  8
3
 10
2398.640899658203
 20
837.9719543457031
  0
POINT
  8
3
 10
2401.171340942383
 20
837.8715515136719
  0
POINT
  8
3
 10
2403.700103759766
 20
837.8694152832031
  0
POINT
  8
3
 10
2406.225051879883
 20
837.9641723632813
  0
POINT
  8
3
 10
2409.105987548828
 20
838.1903076171875
  0
POINT
  8
3
 10
2411.254806518555
 20
838.4413146972656
  0
POINT
  8
3
 10
2413.596725463867
 20
838.7983703613281
  0
POINT
  8
3
 10
2415.918426513672
 20
839.2425537109375
  0
POINT
  8
3
 10
2418.217697143555
 20
839.7760009765625
  0
POINT
  8
3
 10
2421.447372436523
 20
840.6944274902344
  0
POINT
  8
3
 10
2422.741012573242
 20
841.1215209960938
  0
POINT
  8
3
 10
2426.556777954102
 20
842.6046752929688
  0
POINT
  8
3
 10
2428.408660888672
 20
843.4605407714844
  0
POINT
  8
3
 10
2430.218811035156
 20
844.3966674804688
  0
POINT
  8
3
 10
2432.251358032227
 20
845.5807495117188
  0
POINT
  8
3
 10
2433.700942993164
 20
846.5231323242188
  0
POINT
  8
3
 10
2435.159912109375
 20
847.5659179687500
  0
POINT
  8
3
 10
2436.561279296875
 20
848.6697387695313
  0
POINT
  8
3
 10
2437.900924682617
 20
849.8345947265625
  0
POINT
  8
3
 10
2439.174957275391
 20
851.0609436035156
  0
POINT
  8
3
 10
2440.084838867188
 20
852.0214843750000
  0
POINT
  8
3
 10
2440.828399658203
 20
852.8684997558594
  0
POINT
  8
3
 10
2441.234207153320
 20
853.3576965332031
  0
POINT
  8
3
 10
2442.432708740234
 20
854.9348449707031
  0
POINT
  8
3
 10
2442.880096435547
 20
855.5836486816406
  0
POINT
  8
3
 10
2443.914947509766
 20
857.2477722167969
  0
POINT
  8
3
 10
2444.294891357422
 20
857.9306030273438
  0
POINT
  8
3
 10
2444.552993774414
 20
858.4219360351563
  0
POINT
  8
3
 10
2444.994506835938
 20
859.3244934082031
  0
POINT
  8
3
 10
2445.601730346680
 20
860.7298278808594
  0
POINT
  8
3
 10
2445.999755859375
 20
861.7953491210938
  0
POINT
  8
3
 10
2446.454467773438
 20
863.2319641113281
  0
POINT
  8
3
 10
2446.792526245117
 20
864.5571899414063
  0
POINT
  8
3
 10
2446.820602416992
 20
864.6827697753906
  0
POINT
  8
3
 10
2447.247085571289
 20
867.2071838378906
  0
POINT
  8
3
 10
2447.350082397461
 20
868.2156372070313
  0
POINT
  8
3
 10
2447.452850341797
 20
870.2268981933594
  0
POINT
  8
3
 10
2447.458648681641
 20
870.7270812988281
  0
POINT
  8
3
 10
2447.343444824219
 20
873.7179565429688
  0
POINT
  8
3
 10
2447.314224243164
 20
874.0682983398438
  0
POINT
  8
3
 10
2447.138824462891
 20
875.6896972656250
  0
POINT
  8
3
 10
2446.746368408203
 20
878.1838989257813
  0
POINT
  8
3
 10
2446.366043090820
 20
880.0311279296875
  0
POINT
  8
3
 10
2445.757598876953
 20
882.4670410156250
  0
POINT
  8
3
 10
2445.313568115234
 20
884.0127563476563
  0
POINT
  8
3
 10
2444.184799194336
 20
887.4291992187500
  0
POINT
  8
3
 10
2443.224792480469
 20
889.9441528320313
  0
POINT
  8
3
 10
2442.172470092773
 20
892.4182128906250
  0
POINT
  8
3
 10
2441.031951904297
 20
894.8512268066406
  0
POINT
  8
3
 10
2439.113922119141
 20
898.5125732421875
  0
POINT
  8
3
 10
2438.502273559570
 20
899.5901489257813
  0
POINT
  8
3
 10
2434.750595092773
 20
905.5526733398438
  0
POINT
  8
3
 10
2432.734451293945
 20
908.4391784667969
  0
POINT
  8
3
 10
2430.188217163086
 20
911.8861389160156
  0
POINT
  8
3
 10
2419.166870117188
 20
925.3343200683594
  0
POINT
  8
3
 10
2412.618179321289
 20
932.5741577148438
  0
POINT
  8
2
 10
2393.588943481445
 20
952.1511840820313
  0
POINT
  8
3
 10
2436.324386596680
 20
958.9468383789063
  0
POINT
  8
3
 10
2462.062759399414
 20
962.3966979980469
  0
POINT
  8
3
 10
2481.624450683594
 20
964.3876647949219
  0
POINT
  8
3
 10
2486.755447387695
 20
964.7647094726563
  0
POINT
  8
3
 10
2501.869049072266
 20
965.4000854492188
  0
POINT
  8
3
 10
2510.770721435547
 20
965.3868103027344
  0
POINT
  8
3
 10
2523.573379516602
 20
964.7607421875000
  0
POINT
  8
3
 10
2528.585586547852
 20
964.2875671386719
  0
POINT
  8
3
 10
2533.912277221680
 20
963.6242675781250
  0
POINT
  8
3
 10
2544.421157836914
 20
961.7694091796875
  0
POINT
  8
3
 10
2548.552322387695
 20
960.8163452148438
  0
POINT
  8
3
 10
2555.900344848633
 20
958.7625122070313
  0
POINT
  8
3
 10
2560.256423950195
 20
957.3042297363281
  0
POINT
  8
3
 10
2565.481491088867
 20
955.2915954589844
  0
POINT
  8
3
 10
2570.594406127930
 20
953.0130004882813
  0
POINT
  8
3
 10
2573.934249877930
 20
951.3404846191406
  0
POINT
  8
3
 10
2576.329879760742
 20
950.0421142578125
  0
POINT
  8
3
 10
2581.726303100586
 20
946.7851257324219
  0
POINT
  8
3
 10
2584.644699096680
 20
944.8156738281250
  0
POINT
  8
3
 10
2588.881607055664
 20
941.6667175292969
  0
POINT
  8
3
 10
2591.608505249023
 20
939.4392395019531
  0
POINT
  8
3
 10
2594.630661010742
 20
936.7640686035156
  0
POINT
  8
3
 10
2598.250350952148
 20
933.2402038574219
  0
POINT
  8
3
 10
2602.120437622070
 20
929.0583801269531
  0
POINT
  8
3
 10
2605.782852172852
 20
924.6827697753906
  0
POINT
  8
3
 10
2610.374832153320
 20
918.5905456542969
  0
POINT
  8
3
 10
2613.195419311523
 20
914.5039367675781
  0
POINT
  8
3
 10
2619.036941528320
 20
905.1748657226563
  0
POINT
  8
3
 10
2624.010848999023
 20
896.2438964843750
  0
POINT
  8
3
 10
2627.796707153320
 20
888.8090515136719
  0
POINT
  8
3
 10
2634.011611938477
 20
875.3666687011719
  0
POINT
  8
3
 10
2640.379257202148
 20
859.6997070312500
  0
POINT
  8
3
 10
2646.089706420898
 20
843.6111450195313
  0
POINT
  8
3
 10
2650.312881469727
 20
830.2511596679688
  0
POINT
  8
3
 10
2655.446701049805
 20
812.1800231933594
  0
POINT
  8
3
 10
2662.190628051758
 20
785.6986999511719
  0
POINT
  8
2
 10
2665.632247924805
 20
771.4706420898438
  0
POINT
  8
2
 10
2689.756698608398
 20
663.5203552246094
  0
POINT
  8
3
 10
2659.985275268555
 20
654.3226623535156
  0
POINT
  8
3
 10
2650.117874145508
 20
650.7066345214844
  0
POINT
  8
3
 10
2643.726577758789
 20
647.9788208007813
  0
POINT
  8
3
 10
2641.408309936523
 20
646.8814086914063
  0
POINT
  8
3
 10
2636.034011840820
 20
644.0457153320313
  0
POINT
  8
3
 10
2633.822555541992
 20
642.7296447753906
  0
POINT
  8
3
 10
2631.663742065430
 20
641.3388061523438
  0
POINT
  8
3
 10
2629.564285278320
 20
639.8672485351563
  0
POINT
  8
3
 10
2627.530441284180
 20
638.3081054687500
  0
POINT
  8
3
 10
2626.362380981445
 20
637.3431396484375
  0
POINT
  8
3
 10
2624.209365844727
 20
635.4040527343750
  0
POINT
  8
3
 10
2622.905197143555
 20
634.1050720214844
  0
POINT
  8
3
 10
2621.661300659180
 20
632.7548217773438
  0
POINT
  8
3
 10
2621.049270629883
 20
632.0425415039063
  0
POINT
  8
3
 10
2619.288406372070
 20
629.7764587402344
  0
POINT
  8
3
 10
2618.181533813477
 20
628.1533813476563
  0
POINT
  8
3
 10
2617.161941528320
 20
626.4848327636719
  0
POINT
  8
3
 10
2616.772537231445
 20
625.7946777343750
  0
POINT
  8
3
 10
2616.229476928711
 20
624.7744750976563
  0
POINT
  8
3
 10
2614.932022094727
 20
622.0124816894531
  0
POINT
  8
3
 10
2614.466934204102
 20
620.8879089355469
  0
POINT
  8
3
 10
2613.620681762695
 20
618.6100769042969
  0
POINT
  8
3
 10
2612.732162475586
 20
615.8094787597656
  0
POINT
  8
3
 10
2612.225570678711
 20
613.9662170410156
  0
POINT
  8
3
 10
2611.582412719727
 20
611.2562561035156
  0
POINT
  8
3
 10
2611.048202514648
 20
608.5308837890625
  0
POINT
  8
3
 10
2610.450820922852
 20
604.5431518554688
  0
POINT
  8
3
 10
2609.969558715820
 20
599.5880126953125
  0
POINT
  8
2
 10
2609.501876831055
 20
589.3705749511719
  0
POINT
  8
3
 10
2610.450820922852
 20
574.1979980468750
  0
POINT
  8
3
 10
2610.745468139648
 20
572.0587158203125
  0
POINT
  8
3
 10
2611.662673950195
 20
567.1188354492188
  0
POINT
  8
3
 10
2612.251052856445
 20
564.6774291992188
  0
POINT
  8
3
 10
2612.732315063477
 20
562.9316711425781
  0
POINT
  8
3
 10
2613.542098999023
 20
560.3608703613281
  0
POINT
  8
3
 10
2614.217453002930
 20
558.4921264648438
  0
POINT
  8
3
 10
2614.962844848633
 20
556.6572570800781
  0
POINT
  8
3
 10
2615.783767700195
 20
554.8605346679688
  0
POINT
  8
3
 10
2616.772689819336
 20
552.9466247558594
  0
POINT
  8
3
 10
2617.672653198242
 20
551.3978576660156
  0
POINT
  8
3
 10
2618.718338012695
 20
549.7793579101563
  0
POINT
  8
3
 10
2619.836502075195
 20
548.2220458984375
  0
POINT
  8
3
 10
2621.025314331055
 20
546.7277526855469
  0
POINT
  8
3
 10
2622.282180786133
 20
545.2978515625000
  0
POINT
  8
3
 10
2623.980636596680
 20
543.5578918457031
  0
POINT
  8
3
 10
2625.306777954102
 20
542.3207092285156
  0
POINT
  8
3
 10
2626.362838745117
 20
541.3981628417969
  0
POINT
  8
3
 10
2629.251022338867
 20
539.1055297851563
  0
POINT
  8
3
 10
2631.433486938477
 20
537.5579833984375
  0
POINT
  8
3
 10
2633.677902221680
 20
536.1016845703125
  0
POINT
  8
3
 10
2635.976943969727
 20
534.7285461425781
  0
POINT
  8
3
 10
2640.709304809570
 20
532.2044372558594
  0
POINT
  8
3
 10
2641.408767700195
 20
531.8600463867188
  0
POINT
  8
3
 10
2649.505538940430
 20
528.2800292968750
  0
POINT
  8
3
 10
2652.740859985352
 20
527.0172119140625
  0
POINT
  8
3
 10
2659.985580444336
 20
524.4187927246094
  0
POINT
  8
2
 10
2689.757003784180
 20
515.2212524414063
  0
POINT
  8
2
 10
2665.633316040039
 20
407.2708129882813
  0
POINT
  8
3
 10
2656.537704467773
 20
370.6515502929688
  0
POINT
  8
3
 10
2650.314102172852
 20
348.4902954101563
  0
POINT
  8
3
 10
2644.351577758789
 20
330.0018310546875
  0
POINT
  8
3
 10
2640.380477905273
 20
319.0417480468750
  0
POINT
  8
3
 10
2634.066696166992
 20
303.4979248046875
  0
POINT
  8
3
 10
2627.798385620117
 20
289.9322509765625
  0
POINT
  8
3
 10
2621.796646118164
 20
278.4024047851563
  0
POINT
  8
3
 10
2616.120529174805
 20
268.7557983398438
  0
POINT
  8
3
 10
2613.196945190430
 20
264.2373657226563
  0
POINT
  8
3
 10
2606.962509155273
 20
255.5560302734375
  0
POINT
  8
3
 10
2605.668869018555
 20
253.9138793945313
  0
POINT
  8
3
 10
2600.224533081055
 20
247.5772094726563
  0
POINT
  8
3
 10
2598.790969848633
 20
246.0571289062500
  0
POINT
  8
3
 10
2594.632339477539
 20
241.9772338867188
  0
POINT
  8
3
 10
2591.660385131836
 20
239.3444824218750
  0
POINT
  8
3
 10
2587.550430297852
 20
236.0446166992188
  0
POINT
  8
3
 10
2584.712753295898
 20
233.9721679687500
  0
POINT
  8
3
 10
2580.316543579102
 20
231.0574340820313
  0
POINT
  8
3
 10
2576.331710815430
 20
228.6990356445313
  0
POINT
  8
3
 10
2572.487564086914
 20
226.6561889648438
  0
POINT
  8
3
 10
2567.474136352539
 20
224.2980957031250
  0
POINT
  8
3
 10
2562.345657348633
 20
222.2045898437500
  0
POINT
  8
3
 10
2557.114486694336
 20
220.3652954101563
  0
POINT
  8
3
 10
2555.902023315430
 20
219.9783325195313
  0
POINT
  8
3
 10
2547.302932739258
 20
217.6214599609375
  0
POINT
  8
3
 10
2543.233566284180
 20
216.7218017578125
  0
POINT
  8
3
 10
2533.914260864258
 20
215.1165771484375
  0
POINT
  8
3
 10
2528.081817626953
 20
214.3991088867188
  0
POINT
  8
3
 10
2515.852279663086
 20
213.5095214843750
  0
POINT
  8
3
 10
2510.772628784180
 20
213.3538818359375
  0
POINT
  8
3
 10
2496.688232421875
 20
213.4716796875000
  0
POINT
  8
3
 10
2486.757354736328
 20
213.9758300781250
  0
POINT
  8
3
 10
2469.923553466797
 20
215.4550170898438
  0
POINT
  8
3
 10
2462.064590454102
 20
216.3436889648438
  0
POINT
  8
3
 10
2437.490234375000
 20
219.6231079101563
  0
POINT
  8
3
 10
2400.445022583008
 20
225.4586791992188
  0
POINT
  8
2
 10
2393.570251464844
 20
226.5921020507813
  0
POINT
  8
3
 10
2415.293121337891
 20
249.0847778320313
  0
POINT
  8
3
 10
2422.169647216797
 20
256.8753051757813
  0
POINT
  8
3
 10
2430.196685791016
 20
266.8130493164063
  0
POINT
  8
3
 10
2434.893493652344
 20
273.3047485351563
  0
POINT
  8
3
 10
2436.613159179688
 20
275.9188842773438
  0
POINT
  8
3
 10
2439.061126708984
 20
280.0045776367188
  0
POINT
  8
3
 10
2439.782409667969
 20
281.3195800781250
  0
POINT
  8
3
 10
2442.072067260742
 20
285.9655761718750
  0
POINT
  8
3
 10
2443.089675903320
 20
288.3398437500000
  0
POINT
  8
3
 10
2444.017639160156
 20
290.7464599609375
  0
POINT
  8
3
 10
2445.184249877930
 20
294.2507934570313
  0
POINT
  8
3
 10
2445.590057373047
 20
295.6512451171875
  0
POINT
  8
3
 10
2446.749114990234
 20
300.3408813476563
  0
POINT
  8
3
 10
2447.769470214844
 20
305.3442382812500
  0
POINT
  8
3
 10
2451.533050537109
 20
329.2675781250000
  0
POINT
  8
3
 10
2452.425308227539
 20
337.7813720703125
  0
POINT
  8
3
 10
2453.308868408203
 20
352.7822875976563
  0
POINT
  8
3
 10
2453.384780883789
 20
357.7960205078125
  0
POINT
  8
3
 10
2453.002777099609
 20
371.4111328125000
  0
POINT
  8
3
 10
2452.680969238281
 20
375.9423828125000
  0
POINT
  8
3
 10
2452.207870483398
 20
380.9643554687500
  0
POINT
  8
3
 10
2450.430526733398
 20
393.7994384765625
  0
POINT
  8
3
 10
2449.634246826172
 20
398.1823730468750
  0
POINT
  8
3
 10
2447.542495727539
 20
407.7972412109375
  0
POINT
  8
3
 10
2445.492401123047
 20
415.5917358398438
  0
POINT
  8
3
 10
2441.378021240234
 20
428.5275268554688
  0
POINT
  8
3
 10
2439.533386230469
 20
433.5601806640625
  0
POINT
  8
3
 10
2432.530441284180
 20
450.0070190429688
  0
POINT
  8
3
 10
2430.472335815430
 20
454.2636108398438
  0
POINT
  8
3
 10
2428.382644653320
 20
458.3840942382813
  0
POINT
  8
3
 10
2418.335571289063
 20
476.0317993164063
  0
POINT
  8
3
 10
2414.288101196289
 20
482.3718261718750
  0
POINT
  8
3
 10
2403.346481323242
 20
497.9530334472656
  0
POINT
  8
3
 10
2397.454910278320
 20
505.6028747558594
  0
POINT
  8
3
 10
2380.994491577148
 20
524.9832153320313
  0
POINT
  8
3
 10
2378.101272583008
 20
528.1439208984375
  0
POINT
  8
3
 10
2356.543502807617
 20
549.9690246582031
  0
POINT
  8
3
 10
2342.303161621094
 20
563.0734252929688
  0
POINT
  8
3
 10
2313.773727416992
 20
587.0854187011719
  0
POINT
  8
3
 10
2307.233276367188
 20
592.2598266601563
  0
POINT
  8
3
 10
2271.608581542969
 20
618.8594055175781
  0
POINT
  8
3
 10
2251.841201782227
 20
632.7043151855469
  0
POINT
  8
3
 10
2192.238769531250
 20
671.9830322265625
  0
POINT
  8
2
 10
2120.302352905273
 20
717.0906066894531
  0
POINT
  8
3
 10
2126.099777221680
 20
760.2056884765625
  0
POINT
  8
3
 10
2130.250396728516
 20
786.5769958496094
  0
POINT
  8
3
 10
2135.301437377930
 20
813.7695312500000
  0
ENDBLK
  0
ENDSEC
  0
SECTION
  2
ENTITIES
  0
INSERT
  8
1
  2
1
 10
0.0
 20
0.0
  0
INSERT
  8
1
  2
2
 10
0.0
 20
0.0
  0
INSERT
  8
1
  2
3
 10
0.0
 20
0.0
  0
INSERT
  8
1
  2
4
 10
0.0
 20
0.0
  0
INSERT
  8
1
  2
5
 10
0.0
 20
0.0
  0
INSERT
  8
1
  2
6
 10
0.0
 20
0.0
  0
INSERT
  8
1
  2
7
 10
0.0
 20
0.0
  0
INSERT
  8
1
  2
8
 10
0.0
 20
0.0
  0
INSERT
  8
1
  2
9
 10
0.0
 20
0.0
  0
INSERT
  8
1
  2
10
 10
0.0
 20
0.0
  0
INSERT
  8
1
  2
11
 10
0.0
 20
0.0
  0
INSERT
  8
1
  2
12
 10
0.0
 20
0.0
  0
INSERT
  8
1
  2
13
 10
0.0
 20
0.0
  0
ENDSEC
  0
EOF
